<svg width="731" height="980" viewBox="0 0 731 980" fill="none" xmlns="http://www.w3.org/2000/svg">
<path d="M526.369 46.5979C521.779 49.2562 30.2602 334.469 30.2602 334.469C-0.268745 352.094 8.0516e-05 353.411 8.0516e-05 384.964V853.792C0.452493 880.827 -1.79083 906.192 28.3915 895.427L597.935 560.345C619.158 547.16 621.808 536.642 621.808 514.574L625.636 32.5216C625.636 4.85891 623.763 6.53368 615.782 1.20309C608.129 -3.12808 599.035 4.55262 574.324 19.1356C552.522 32.0027 528.562 45.3268 526.369 46.5979Z" fill="url(#paint0_linear_205_8817)"/>
<path d="M530.115 49.4072C525.526 52.0655 34.0067 337.278 34.0067 337.278C3.47784 354.903 3.74666 356.22 3.74666 387.773V856.601C4.19907 883.636 2.84559 908.74 34.0077 893.347L601.682 563.154C622.905 549.97 625.555 539.451 625.555 517.383L625.762 49.9954C625.762 22.3327 628.182 9.47317 620.203 4.14257C612.547 -0.193277 602.78 7.3591 578.07 21.9393C556.268 34.812 532.309 48.1361 530.115 49.4072Z" fill="url(#paint1_linear_205_8817)"/>
<path d="M651.306 952.663C651.306 952.663 657.189 976.536 645.966 977.959C634.743 979.381 630.135 978.728 627.243 977.303C624.351 975.878 612.856 973.453 609.572 973.333C597.194 971.992 585.325 962.124 585.651 959.62C585.651 959.62 582.491 949.497 602.13 949.88C621.77 950.264 618.349 946.902 618.349 946.902C620.284 947.887 651.306 952.663 651.306 952.663Z" fill="url(#paint2_linear_205_8817)"/>
<path d="M709.516 526.363C709.516 526.363 721.445 532.639 727.488 542.859C733.531 553.079 726.979 591.509 726.979 591.509C725.287 593.235 723.069 594.348 720.674 594.674C716.574 595.28 712.023 596.153 712.023 596.153L703.869 525.31L709.516 526.363Z" fill="#3D32D9"/>
<path d="M707.739 925.155C707.739 925.155 714.513 949.067 702.867 950.264C691.221 951.46 685.631 943.777 683.521 941.941C681.411 940.105 672.735 935.522 669.994 934.574C669.327 934.294 668.67 933.986 667.409 933.331C658.904 928.976 651.389 918.988 652.181 917.29C652.181 917.29 647.797 904.81 660.574 907.332C673.351 909.854 678.55 914.681 678.55 914.681C679.959 915.936 707.739 925.155 707.739 925.155Z" fill="url(#paint3_linear_205_8817)"/>
<path d="M707.381 706.209C707.381 706.209 708.951 724.926 709.033 738.54C709.139 748.36 707.402 758.113 703.913 767.293C701.402 784.381 701.536 810.15 701.536 810.15C701.536 810.15 706.722 901.646 707.351 909.574C708.866 928.69 707.759 937.608 695.742 937.212C683.726 936.817 676.09 928.186 675.808 919.408C675.526 910.631 669.571 821.605 666.726 814.534C663.88 807.463 662.191 780.375 662.191 780.375C662.191 780.375 660.015 761.868 656.082 773.464C653.889 779.914 648.672 796.833 645.044 826.742C645.044 826.742 652.287 929.241 652.224 933.59C652.162 937.939 654.258 952.788 652.222 955.856C650.185 958.924 644.222 963.593 630.783 960.756C617.344 957.919 618.46 949.397 617.578 923.372C615.202 898.615 607.685 831.832 607.911 820.415C608.137 808.997 606.874 788.079 606.357 784.978C605.84 781.876 604.811 757.671 604.811 757.671C604.811 757.671 604.85 743.712 604.814 735.526C604.779 727.339 612.798 684.766 612.798 684.766L674.511 715.613L707.381 706.209Z" fill="url(#paint4_linear_205_8817)"/>
<path d="M475.036 626.119L489.575 619.077L515.726 637.11L500.608 644.894L475.036 626.119Z" fill="url(#paint5_linear_205_8817)"/>
<path d="M678.566 491.442C678.566 491.442 676.821 512.295 685.378 517.71C693.936 523.125 697.425 523.611 697.425 523.611C697.425 523.611 677.746 548.067 672.01 547.422C666.275 546.778 643.661 538.493 634.813 539.13C625.964 539.767 615.372 536.962 615.372 536.962C615.372 536.962 633.175 527.454 637.177 523.612C641.18 519.77 639.879 505.415 639.72 503.641C639.561 501.868 668.777 495.483 668.777 495.483L678.566 491.442Z" fill="url(#paint6_linear_205_8817)"/>
<path d="M629.802 443.074C629.802 443.074 621.552 453.311 621.509 463.477C626.019 471.198 617.068 479.828 620.471 483.407C621.582 484.576 623.128 485.58 623.708 487.622C624.665 490.961 623.978 495.798 625.626 500.502C628.073 507.492 628.568 511.849 637.745 510.396C646.921 508.943 664.559 507.586 668.66 505.244C672.762 502.902 680.971 485.074 681.36 484.804C681.75 484.534 629.802 443.074 629.802 443.074Z" fill="url(#paint7_linear_205_8817)"/>
<path d="M577.841 591.199C574.054 597.698 561.943 623.258 559.226 631.736C548.262 630.706 533.52 635.193 519.718 636.196C514.435 635.821 514.472 638.199 509.499 638.022C504.525 637.845 506.83 629.822 502.355 629.967C500.294 631.091 502.531 633.792 502.355 638.022C502.273 638.785 501.951 639.502 501.435 640.07C500.92 640.639 500.237 641.029 499.486 641.185C496.185 641.028 490.363 634.722 488.772 635.003C488.428 634.845 487.134 634.236 487.46 636.201C487.661 637.355 489.722 640.637 491.593 644.008C496.167 646.969 500.886 647.432 504.755 648.035C506.61 648.436 517.568 648.035 517.568 648.035C517.568 648.035 557.447 652.463 565.17 651.147C577.479 649.051 593.189 620.282 594.552 616.142C595.915 612.002 603.019 605.906 603.019 605.906L577.841 591.199Z" fill="url(#paint8_linear_205_8817)"/>
<path d="M690.06 479.451C697.741 466.999 700.573 460.343 695.825 449.437C691.077 438.53 692.164 431.937 677.49 426.496C662.816 421.055 656.256 419.014 643.333 420.718C630.409 422.422 623.981 425.28 622.632 428.754C621.282 432.228 627.11 441.126 627.908 443.496C628.706 445.867 629.645 458.447 629.466 462.5C629.288 466.553 628.435 494.64 635.66 489.952C638.652 488.011 639.394 484.717 639.58 479.452C639.821 472.66 639.091 463.617 643.335 462.498C650.578 460.593 653.732 468.862 653.346 474.277C653.147 477.087 648.466 485.647 648.466 485.647C648.466 485.647 653.881 484.32 655.514 485.647C657.896 487.583 662.704 495.078 664.542 495.922C670.433 498.623 664.993 507.121 675.636 500.065C686.278 493.009 682.377 491.903 690.06 479.451Z" fill="url(#paint9_linear_205_8817)"/>
<path d="M725.953 550.578C723.659 520.817 685.884 519.895 683.493 520.054C681.101 520.213 679.267 529.795 667.034 531.388C654.801 532.98 652.726 533.224 639.857 531.388C626.988 529.551 634.721 525.517 619.27 531.388C603.82 537.258 607.501 536.193 600.74 540.559C593.979 544.926 587.934 553.579 585.013 560.754C582.093 567.929 572.959 587.308 572.451 595.486C571.942 603.664 578.954 618.595 592.241 617.195C605.529 615.795 608.413 571.307 614.124 649.801C611.492 660.778 609.981 671.995 609.616 683.278C606.387 716.343 602.113 717.005 616.735 721.682C633.662 723.765 706.489 735.144 709.694 700.733C712.899 666.323 712.09 662.355 712.09 662.355L716.196 627.826C716.196 627.826 720.418 615.828 722.867 590.212C723.576 582.805 727.359 563.201 725.953 550.578Z" fill="#7965F7"/>
<path d="M703.245 527.845C681.421 516.68 665.593 534.634 650.916 534.84C644.064 534.935 624.137 531.387 614.876 536.507C601.069 542.712 588.952 566.337 589.41 575.711C589.472 576.962 585.19 606.131 591.566 612.335C592.896 613.624 595.752 614.774 598.914 612.335C605.759 603.166 605.804 600.536 611.188 599.546C615.011 598.842 618.427 620.437 617.795 652.176C614.81 663.651 620.463 693.024 620.463 693.024C620.463 693.024 624.688 705.704 636.651 708.576C648.614 711.449 648.01 739.476 699.776 708.574C705.42 703.573 707.962 667.766 712.242 626.429C722.639 595.772 721.262 555.661 721.162 553.107C720.663 540.42 703.245 527.845 703.245 527.845Z" fill="url(#paint10_linear_205_8817)"/>
<path d="M631.66 520.231C630.425 521.282 630.038 519.505 626.139 528.646C663.816 544.897 685.456 526.343 689.999 522.938C694.542 519.533 684.972 512.812 684.972 512.812C684.972 512.812 659.432 532.281 631.66 520.231Z" fill="url(#paint11_linear_205_8817)"/>
<path d="M651.765 912.256C651.679 910.801 649.472 915.844 650.11 917.348C650.749 918.851 653.499 925.531 658.657 929.045C661.988 931.399 665.565 933.383 669.325 934.964C670.735 935.474 670.926 935.618 672.26 936.174C674.654 937.233 676.921 938.558 679.019 940.124C682.216 942.41 683.934 944.602 684.648 944.964C685.361 945.326 689.761 948.548 692.136 949.268C694.511 949.988 694.82 950.435 699.852 950.523C704.883 950.611 704.87 949.753 706.686 949.268C707.181 949.182 707.642 948.96 708.018 948.628C708.395 948.296 708.672 947.866 708.82 947.386C709.151 946.903 708.819 944.965 708.819 944.965C708.819 944.965 701.847 950.122 696.337 947.916C692.562 946.426 688.913 944.634 685.426 942.556C684.582 941.978 680.609 938.457 679.868 937.971C677.488 936.226 674.943 934.719 672.269 933.47C669.026 932.14 667.317 932.301 662.049 928.935C656.782 925.57 655.207 923.526 653.539 920.323C652.365 917.796 651.759 915.042 651.765 912.256Z" fill="#1CDAB9"/>
<path d="M690.06 480.804C697.74 468.352 700.572 460.346 695.824 449.437C691.076 438.527 692.164 431.937 677.49 426.496C662.816 421.055 656.256 419.014 643.332 420.718C630.409 422.422 625.571 425.668 624.219 429.142C622.868 432.616 624.191 436.167 630.495 435.171C630.495 435.171 627.38 438.168 641.651 430.488C646.749 427.709 652.419 426.142 658.22 425.909C664.022 425.676 669.799 426.783 675.103 429.145C675.962 429.538 681.555 430.764 685.295 435.174C689.035 439.584 690.063 446.781 690.063 446.781C690.063 446.781 696.065 455.103 694.191 461.269C688.645 479.503 682.376 493.257 690.06 480.804Z" fill="url(#paint12_linear_205_8817)"/>
<path d="M626.33 435.035C625.129 432.873 630.953 427.907 635.409 425.79C639.865 423.673 635.735 432.957 633.875 434.261C632.015 435.565 627.534 437.197 626.33 435.035Z" fill="#BDA0FF"/>
<path d="M665.249 759.812C666.982 759.878 662.765 765.843 658.72 770.91C654.674 775.978 653.365 783.938 653.365 783.938L645.725 821.774C645.725 821.774 646.138 831.582 646.426 837.805C646.545 840.382 647.916 859.937 649.382 881.053C651.41 910.261 652.719 943.584 652.719 943.584C652.719 943.584 653.778 949.724 653.342 952.994C653.274 953.88 653.007 954.739 652.561 955.507C652.115 956.276 651.502 956.933 650.766 957.432C650.766 957.432 639.458 836.968 634.094 836.202C623.086 834.627 636.179 836.816 637.935 832.116C639.691 827.416 640.959 818.451 641.349 816.151C641.738 813.852 645.136 785.082 649.377 777.881C653.618 770.68 651.026 773.742 653.361 770.911C654.861 769.142 656.677 767.666 658.715 766.559C658.715 766.559 663.517 759.747 665.249 759.812Z" fill="#1494DA"/>
<path d="M607.036 720.256C605.686 724.153 604.862 728.213 604.588 732.328C603.978 738.799 602.913 744.915 603.101 750.46C603.042 753.028 604.218 756.822 604.588 762.211C605.442 774.625 607.036 792.101 607.036 792.101C607.036 792.101 608.316 816.655 608.166 817.47C608.016 818.285 609.708 844.752 610.147 849.461C610.586 854.17 616.804 912.824 616.804 912.824C616.804 912.824 617.67 927.575 617.961 933.502C618.251 939.429 617.886 943.579 620.621 943.859C623.356 944.139 623.856 930.105 623.178 925.229C622.5 920.354 623.09 885.814 620.621 877.263C618.152 868.713 617.469 845.474 616.804 841.048C616.139 836.622 612.975 780.908 614.678 772.952C616.381 764.996 622.837 751.565 635.066 744.018C647.295 736.472 650.572 737.93 654.371 736.906C658.17 735.882 661.871 739.726 669.376 732.323C676.881 724.919 669.1 728.171 640.892 726.708C612.684 725.245 607.036 720.256 607.036 720.256Z" fill="#1CDAB9"/>
<path opacity="0.154" d="M622.167 775.48C617.652 779.854 620.563 824.093 621.451 829.862C624.944 838.87 630.175 834.628 637.522 834.939C639.869 835.037 648.106 785.351 648.106 785.351C648.106 785.351 656.625 768.933 658.572 769.738C663.548 771.794 669.069 817.341 672.096 827.554C685.507 836.238 693.911 830.071 697.941 823.844C699.725 819.691 700.987 783.206 702.396 774.69C703.804 766.173 706.018 750.705 706.018 750.705C706.018 750.705 699.139 768.659 684.732 772.106C671.327 773.202 654.599 766.866 654.599 766.866C654.599 766.866 646.497 778.111 640.267 776.697C626.108 773.481 626.682 771.102 622.167 775.48Z" fill="#1494DA"/>
<path d="M607.501 716.018C606.34 715.191 606.294 709.859 606.663 707.344C607.032 704.829 609.047 686.899 609.198 686.065C609.348 685.231 610.205 674.401 610.566 669.537C610.927 664.672 613.013 652.362 614.044 649.586C613.805 647.367 613.446 643.096 613.446 643.096L609.954 609.987L609.702 607.196C609.702 607.196 610.559 604.717 611.646 608.236C612.734 611.755 614.528 623.462 614.528 623.462C614.528 623.462 616.444 641.213 616.605 643.319C616.766 645.426 616.943 649.501 616.605 650.944C616.267 652.386 612.42 667.455 612.588 674.247C612.568 679.812 612.224 685.372 611.559 690.897L609.586 705.923L608.394 715.878C608.394 715.878 608.661 716.845 607.501 716.018Z" fill="#A68CFC"/>
<path opacity="0.335" d="M606.46 726.243C606.46 726.243 616.403 740.164 617.653 739.062C618.902 737.96 616.699 741.138 616.699 741.138C616.699 741.138 614.721 741.064 609.487 738.616C604.253 736.169 606.46 726.243 606.46 726.243Z" fill="#0CAFE1"/>
<path d="M606.46 725.526C606.46 725.526 602.938 734.518 610.311 739.014C617.685 743.51 617.224 740.419 617.655 739.014" stroke="#0BB5E3" stroke-linecap="round"/>
<path d="M621.517 461.505C621.517 461.505 619.972 464.057 621.517 464.698C623.061 465.34 625.781 464.511 626.223 464.698C626.665 464.886 621.517 461.505 621.517 461.505Z" fill="#183EE6"/>
<path d="M642.913 470.244C642.913 470.244 641.844 468.061 643.788 467.655C645.732 467.248 648.574 467.446 648.82 469.174C649.273 471.26 649.273 473.42 648.82 475.506C648.164 477.828 648.546 478.241 647.139 479.852C645.733 481.463 644.642 481.567 643.788 481.017C642.934 480.467 644.946 478.413 644.839 476.513C644.732 474.612 642.866 474.539 642.913 473.639C642.961 472.739 642.913 470.244 642.913 470.244Z" fill="#12C3D3"/>
<path d="M610.364 953.908L618.147 948.622L612.221 950.057L616.449 953.908H610.364Z" stroke="#8771F9" stroke-linecap="round" stroke-linejoin="round"/>
<path d="M667.684 914.549L675.125 912.758L670.995 911.843L674.149 917.412L667.684 914.549Z" stroke="#8771F9" stroke-linecap="round" stroke-linejoin="round"/>
<path d="M585.822 957.313C585.291 955.955 584.751 961.434 585.822 962.667C586.894 963.899 591.574 969.402 597.565 971.151C601.461 972.36 605.476 973.142 609.54 973.483C611.039 973.533 611.265 973.611 612.705 973.727C615.309 973.994 617.875 974.554 620.355 975.395C624.101 976.581 626.413 978.135 627.203 978.259C627.994 978.382 634.654 980.328 639.236 979.952C641.67 979.855 644.086 979.486 646.438 978.852C647.62 978.614 648.74 978.137 649.732 977.451C650.402 976.998 650.913 976.348 651.196 975.591C651.269 975.128 651.217 974.654 651.043 974.219C651.043 974.219 645.157 977.848 639.241 977.451C635.19 977.201 631.166 976.624 627.208 975.726C626.226 975.436 621.36 973.316 620.505 973.082C617.702 972.158 614.816 971.511 611.887 971.15C608.392 970.887 606.816 971.568 600.766 969.995C594.716 968.423 592.587 966.965 590.011 964.434C588.11 962.395 586.68 959.964 585.822 957.313Z" fill="#1CDAB9"/>
<path d="M221.116 570.302C220.184 570.841 120.415 628.734 120.415 628.734C114.218 632.311 114.273 632.579 114.273 638.983L113.59 776.018C113.684 781.506 114.089 787.769 120.414 784.645L234.959 716.455C239.268 713.779 239.804 711.643 239.804 707.164L240.528 570.419C240.528 564.803 243.421 562.176 240.528 561.226C238.974 560.346 235.864 561.765 230.848 564.725C226.427 567.339 221.561 570.044 221.116 570.302Z" fill="url(#paint13_linear_205_8817)"/>
<path d="M674.592 903.721C674.992 915.04 678.002 908.254 677.6 903.721C677.198 899.187 675.204 860.727 674.592 857.629C673.981 854.53 672.129 836.041 672.129 836.041C672.129 836.041 668.288 824.358 669.176 831.328C670.064 838.298 674.192 892.401 674.592 903.721Z" fill="#1CDAB9"/>
<path d="M573.362 592.307C573.362 592.307 572.535 596.822 573.362 598.193C574.189 599.563 574.896 599.56 575.41 598.193C575.924 596.825 579.261 583.657 581.106 579.944C582.95 576.231 590.431 555.749 593.765 552.074C595.148 550.549 595.984 546.799 603.892 541.348C611.801 535.898 624.181 531.986 625.589 530.977C627.997 529.252 625.596 528.749 623.871 529.268C622.849 529.575 611.46 533.52 602.897 538.754C599.164 541.155 595.837 544.135 593.041 547.581C591.016 549.804 586.211 558.679 582.088 568.228C577.965 577.776 575.001 584.859 574.7 586.378C574.399 587.896 573.362 592.307 573.362 592.307Z" fill="#A68CFC"/>
<g filter="url(#filter0_d_205_8817)">
<path d="M223.929 571.232C222.997 571.772 123.229 629.665 123.229 629.665C117.032 633.242 117.086 633.51 117.086 639.914L116.403 776.949C116.497 782.437 116.216 787.533 122.546 784.407L237.773 717.388C242.082 714.712 242.619 712.576 242.619 708.097L243.343 571.351C243.343 565.736 243.835 563.126 242.219 562.045C240.665 561.164 238.683 562.7 233.667 565.658C229.24 568.27 224.374 570.975 223.929 571.232Z" fill="url(#paint14_linear_205_8817)"/>
</g>
<g filter="url(#filter1_d_205_8817)">
<path d="M525.264 175.433C524.332 175.973 121.355 407.674 121.355 407.674C115.158 411.251 115.212 411.519 115.212 417.923L114.901 597.296C114.995 602.783 114.714 607.88 121.044 604.754L539.479 363.926C543.788 361.25 544.325 359.114 544.325 354.635L544.678 175.552C544.678 169.937 545.169 167.327 543.554 166.245C542 165.365 540.018 166.901 535.002 169.859C530.572 172.47 525.709 175.174 525.264 175.433Z" fill="url(#paint15_linear_205_8817)"/>
</g>
<g filter="url(#filter2_d_205_8817)">
<path d="M368.176 484.122C367.244 484.661 267.476 542.554 267.476 542.554C261.279 546.131 261.333 546.399 261.333 552.803V647.969C261.427 653.457 261.146 658.553 267.476 655.428L382.703 588.405C387.012 585.729 387.548 583.594 387.548 579.114L387.591 484.244C387.591 478.628 388.082 476.019 386.467 474.937C384.913 474.056 382.931 475.593 377.915 478.551C373.487 481.159 368.621 483.864 368.176 484.122Z" fill="url(#paint16_linear_205_8817)"/>
</g>
<path d="M527.134 176.375C526.202 176.915 123.225 408.616 123.225 408.616C117.028 412.193 117.082 412.461 117.082 418.865L116.771 598.238C116.865 603.726 116.584 608.822 122.914 605.696L541.349 364.868C545.658 362.192 546.195 360.056 546.195 355.577L546.548 176.494C546.548 170.879 547.04 168.269 545.424 167.187C543.87 166.307 541.888 167.843 536.872 170.801C532.443 173.413 527.579 176.116 527.134 176.375Z" fill="url(#paint17_linear_205_8817)"/>
<path opacity="0.42" d="M114.894 448.7L546.699 197.672" stroke="#3F3E52"/>
<path d="M147.678 442.612C152.592 442.612 156.576 437.37 156.576 430.903C156.576 424.437 152.592 419.195 147.678 419.195C142.763 419.195 138.779 424.437 138.779 430.903C138.779 437.37 142.763 442.612 147.678 442.612Z" fill="url(#paint18_linear_205_8817)"/>
<defs>
<filter id="filter0_d_205_8817" x="49.4033" y="509.798" width="194.01" height="275.564" filterUnits="userSpaceOnUse" color-interpolation-filters="sRGB">
<feFlood flood-opacity="0" result="BackgroundImageFix"/>
<feColorMatrix in="SourceAlpha" type="matrix" values="0 0 0 0 0 0 0 0 0 0 0 0 0 0 0 0 0 0 127 0" result="hardAlpha"/>
<feOffset dx="-42" dy="-27"/>
<feGaussianBlur stdDeviation="12.5"/>
<feColorMatrix type="matrix" values="0 0 0 0 0.137255 0 0 0 0 0.909804 0 0 0 0 0.654902 0 0 0 0.18 0"/>
<feBlend mode="normal" in2="BackgroundImageFix" result="effect1_dropShadow_205_8817"/>
<feBlend mode="normal" in="SourceGraphic" in2="effect1_dropShadow_205_8817" result="shape"/>
</filter>
<filter id="filter1_d_205_8817" x="47.9014" y="113.998" width="496.847" height="491.71" filterUnits="userSpaceOnUse" color-interpolation-filters="sRGB">
<feFlood flood-opacity="0" result="BackgroundImageFix"/>
<feColorMatrix in="SourceAlpha" type="matrix" values="0 0 0 0 0 0 0 0 0 0 0 0 0 0 0 0 0 0 127 0" result="hardAlpha"/>
<feOffset dx="-42" dy="-27"/>
<feGaussianBlur stdDeviation="12.5"/>
<feColorMatrix type="matrix" values="0 0 0 0 0 0 0 0 0 0 0 0 0 0 0 0 0 0 0.133 0"/>
<feBlend mode="normal" in2="BackgroundImageFix" result="effect1_dropShadow_205_8817"/>
<feBlend mode="normal" in="SourceGraphic" in2="effect1_dropShadow_205_8817" result="shape"/>
</filter>
<filter id="filter2_d_205_8817" x="214.333" y="470.69" width="173.328" height="225.692" filterUnits="userSpaceOnUse" color-interpolation-filters="sRGB">
<feFlood flood-opacity="0" result="BackgroundImageFix"/>
<feColorMatrix in="SourceAlpha" type="matrix" values="0 0 0 0 0 0 0 0 0 0 0 0 0 0 0 0 0 0 127 0" result="hardAlpha"/>
<feOffset dx="-25" dy="18"/>
<feGaussianBlur stdDeviation="11"/>
<feColorMatrix type="matrix" values="0 0 0 0 0.611765 0 0 0 0 0.219608 0 0 0 0 0.898039 0 0 0 0.161 0"/>
<feBlend mode="normal" in2="BackgroundImageFix" result="effect1_dropShadow_205_8817"/>
<feBlend mode="normal" in="SourceGraphic" in2="effect1_dropShadow_205_8817" result="shape"/>
</filter>
<linearGradient id="paint0_linear_205_8817" x1="48.174" y1="670.776" x2="427.269" y2="356.072" gradientUnits="userSpaceOnUse">
<stop stop-color="#2C2B3D"/>
<stop offset="1" stop-color="#434258"/>
</linearGradient>
<linearGradient id="paint1_linear_205_8817" x1="314.927" y1="2.92529" x2="314.927" y2="898.044" gradientUnits="userSpaceOnUse">
<stop stop-color="#2C2B3D"/>
<stop offset="1" stop-color="#37364E"/>
</linearGradient>
<linearGradient id="paint2_linear_205_8817" x1="618.586" y1="978.184" x2="619.681" y2="946.949" gradientUnits="userSpaceOnUse">
<stop stop-color="#BDA0FF"/>
<stop offset="0.568" stop-color="#1A12ED"/>
<stop offset="1"/>
</linearGradient>
<linearGradient id="paint3_linear_205_8817" x1="675.123" y1="942.858" x2="684.705" y2="915.028" gradientUnits="userSpaceOnUse">
<stop stop-color="#BDA0FF"/>
<stop offset="0.568" stop-color="#1A12ED"/>
<stop offset="1"/>
</linearGradient>
<linearGradient id="paint4_linear_205_8817" x1="682.092" y1="744.323" x2="704.06" y2="623.909" gradientUnits="userSpaceOnUse">
<stop stop-color="#0BB5E3"/>
<stop offset="1" stop-color="#2AF698"/>
</linearGradient>
<linearGradient id="paint5_linear_205_8817" x1="495.381" y1="619.077" x2="495.381" y2="644.894" gradientUnits="userSpaceOnUse">
<stop stop-color="#BDA0FF"/>
<stop offset="1" stop-color="#1911ED"/>
</linearGradient>
<linearGradient id="paint6_linear_205_8817" x1="647.619" y1="505.888" x2="653.642" y2="533.839" gradientUnits="userSpaceOnUse">
<stop stop-color="#0BB5E3"/>
<stop offset="1" stop-color="#2AF698"/>
</linearGradient>
<linearGradient id="paint7_linear_205_8817" x1="694.809" y1="496.073" x2="597.41" y2="497.143" gradientUnits="userSpaceOnUse">
<stop stop-color="#0BB5E3"/>
<stop offset="1" stop-color="#2AF698"/>
</linearGradient>
<linearGradient id="paint8_linear_205_8817" x1="545.214" y1="591.199" x2="545.214" y2="651.391" gradientUnits="userSpaceOnUse">
<stop stop-color="#0BB5E3"/>
<stop offset="1" stop-color="#2AF698"/>
</linearGradient>
<linearGradient id="paint9_linear_205_8817" x1="660.288" y1="420.133" x2="655.416" y2="536.664" gradientUnits="userSpaceOnUse">
<stop stop-color="#BDA0FF"/>
<stop offset="0.227" stop-color="#1A12ED"/>
<stop offset="0.62" stop-color="#12C3D3"/>
<stop offset="1" stop-color="#14C8CC"/>
</linearGradient>
<linearGradient id="paint10_linear_205_8817" x1="665.657" y1="881.405" x2="611.955" y2="205.542" gradientUnits="userSpaceOnUse">
<stop stop-color="#BDA0FF" stop-opacity="0"/>
<stop offset="0.261" stop-color="#1B1786" stop-opacity="0"/>
<stop offset="0.67" stop-color="#1A12ED"/>
<stop offset="1"/>
</linearGradient>
<linearGradient id="paint11_linear_205_8817" x1="622.754" y1="509.741" x2="653.992" y2="615.418" gradientUnits="userSpaceOnUse">
<stop stop-color="#BDA0FF"/>
<stop offset="0.477" stop-color="#1A12ED"/>
<stop offset="0.866" stop-color="#1B1786"/>
<stop offset="1"/>
</linearGradient>
<linearGradient id="paint12_linear_205_8817" x1="660.943" y1="425.565" x2="660.943" y2="560.795" gradientUnits="userSpaceOnUse">
<stop stop-color="#BDA0FF"/>
<stop offset="0.568" stop-color="#1A12ED"/>
<stop offset="0.843" stop-color="#1B1786"/>
<stop offset="1"/>
</linearGradient>
<linearGradient id="paint13_linear_205_8817" x1="177.702" y1="560.968" x2="177.702" y2="785.479" gradientUnits="userSpaceOnUse">
<stop stop-color="#BDA0FF"/>
<stop offset="0.568" stop-color="#1A12ED"/>
<stop offset="1"/>
</linearGradient>
<linearGradient id="paint14_linear_205_8817" x1="179.908" y1="561.798" x2="179.908" y2="785.361" gradientUnits="userSpaceOnUse">
<stop stop-color="#0BB5E3"/>
<stop offset="1" stop-color="#2AF698"/>
</linearGradient>
<linearGradient id="paint15_linear_205_8817" x1="62.4601" y1="674.303" x2="406.057" y2="284.515" gradientUnits="userSpaceOnUse">
<stop stop-color="#2C2B3D"/>
<stop offset="1" stop-color="#37364E"/>
</linearGradient>
<linearGradient id="paint16_linear_205_8817" x1="111.761" y1="966.711" x2="664.545" y2="487.85" gradientUnits="userSpaceOnUse">
<stop stop-color="#BDA0FF"/>
<stop offset="1" stop-color="#1911ED"/>
</linearGradient>
<linearGradient id="paint17_linear_205_8817" x1="341.152" y1="248.726" x2="105.489" y2="547.394" gradientUnits="userSpaceOnUse">
<stop stop-color="#2C2B3D"/>
<stop offset="1" stop-color="#37364E"/>
</linearGradient>
<linearGradient id="paint18_linear_205_8817" x1="166.542" y1="408.798" x2="45.2138" y2="506.936" gradientUnits="userSpaceOnUse">
<stop stop-color="#BDA0FF"/>
<stop offset="0.312" stop-color="#1A12ED"/>
<stop offset="0.813" stop-color="#1B1786"/>
<stop offset="1"/>
</linearGradient>
</defs>
</svg>
