<svg width="981" height="853" viewBox="0 0 981 853" fill="none" xmlns="http://www.w3.org/2000/svg">
<path opacity="0.996" d="M15.2416 578.616L391.487 362.168C406.312 353.61 428.099 354.452 441.464 362.168L816.848 578.616C820.983 580.963 824.421 584.365 826.814 588.474C829.206 592.584 830.467 597.254 830.467 602.009C830.467 606.764 829.206 611.434 826.814 615.543C824.421 619.652 820.983 623.054 816.848 625.402L429.663 847.856C425.531 850.275 420.83 851.549 416.042 851.549C411.254 851.549 406.553 850.275 402.421 847.856L15.2416 625.404C-3.7472 615.554 -3.7472 589.286 15.2416 578.616Z" fill="url(#paint0_radial_205_8608)" stroke="#1F8885" stroke-opacity="0.49"/>
<mask id="mask0_205_8608" style="mask-type:luminance" maskUnits="userSpaceOnUse" x="1" y="356" width="830" height="496">
<path d="M15.2416 578.616L391.487 362.168C406.312 353.61 428.099 354.452 441.464 362.168L816.848 578.616C820.983 580.963 824.421 584.365 826.814 588.474C829.206 592.584 830.467 597.254 830.467 602.009C830.467 606.764 829.206 611.434 826.814 615.543C824.421 619.652 820.983 623.054 816.848 625.402L429.663 847.856C425.531 850.275 420.83 851.549 416.042 851.549C411.254 851.549 406.553 850.275 402.421 847.856L15.2416 625.404C-3.7472 615.554 -3.7472 589.286 15.2416 578.616Z" fill="white"/>
</mask>
<g mask="url(#mask0_205_8608)">
<path d="M15.2416 621.882L391.487 405.434C406.312 396.876 428.099 397.718 441.464 405.434L816.848 621.882C820.983 624.229 824.421 627.631 826.814 631.741C829.206 635.85 830.467 640.52 830.467 645.275C830.467 650.03 829.206 654.7 826.814 658.809C824.421 662.919 820.983 666.32 816.848 668.668L429.663 891.122C425.531 893.541 420.83 894.816 416.042 894.816C411.254 894.816 406.553 893.541 402.421 891.122L15.2416 668.67C-3.7472 658.82 -3.7472 632.553 15.2416 621.882Z" fill="url(#paint1_linear_205_8608)"/>
</g>
<path opacity="0.996" d="M74.5608 582.009L394.834 397.763C407.456 390.477 425.999 391.194 437.376 397.763L756.912 582.009C760.432 584.008 763.36 586.903 765.397 590.401C767.434 593.9 768.507 597.875 768.507 601.923C768.507 605.971 767.434 609.947 765.397 613.445C763.36 616.943 760.432 619.839 756.912 621.837L427.331 811.195C423.814 813.254 419.811 814.339 415.736 814.339C411.66 814.339 407.658 813.254 404.141 811.195L74.5608 621.837C58.3977 613.453 58.3977 591.093 74.5608 582.009Z" fill="url(#paint2_radial_205_8608)" stroke="#1F8885" stroke-opacity="0.49"/>
<mask id="mask1_205_8608" style="mask-type:luminance" maskUnits="userSpaceOnUse" x="62" y="392" width="707" height="423">
<path d="M74.5608 582.009L394.834 397.763C407.456 390.477 425.999 391.194 437.376 397.763L756.912 582.009C760.432 584.008 763.36 586.903 765.397 590.401C767.434 593.9 768.507 597.875 768.507 601.923C768.507 605.971 767.434 609.947 765.397 613.445C763.36 616.943 760.432 619.839 756.912 621.837L427.331 811.195C423.814 813.254 419.811 814.339 415.736 814.339C411.66 814.339 407.658 813.254 404.141 811.195L74.5608 621.837C58.3977 613.453 58.3977 591.093 74.5608 582.009Z" fill="white"/>
</mask>
<g mask="url(#mask1_205_8608)">
<path d="M74.5608 547.882L394.834 363.635C407.456 356.35 425.999 357.066 437.376 363.635L756.912 547.882C760.432 549.88 763.36 552.776 765.397 556.274C767.434 559.772 768.507 563.748 768.507 567.796C768.507 571.844 767.434 575.819 765.397 579.317C763.36 582.816 760.432 585.711 756.912 587.71L427.331 777.067C423.814 779.126 419.811 780.212 415.736 780.212C411.66 780.212 407.658 779.126 404.141 777.067L74.5608 587.71C58.3977 579.325 58.3977 556.965 74.5608 547.882Z" fill="#2B3E5B"/>
</g>
<path opacity="0.769" d="M507.065 68.7358L822.922 245.791C840.124 257.267 839.063 259.081 840.038 275.594L840.886 536.154C840.886 548.406 830.714 561.957 818.701 555.738L498.126 373.713C485.74 366.393 484.193 360.552 484.193 348.3V85.3953C485.676 57.4507 507.065 68.7358 507.065 68.7358Z" fill="url(#paint3_linear_205_8608)"/>
<path opacity="0.459" d="M525.336 60.2529L841.193 237.308C858.395 248.784 857.333 250.598 858.308 267.111L859.157 527.671C859.157 539.923 848.985 553.474 836.972 547.256L516.397 365.23C504.01 357.91 502.463 352.069 502.463 339.817V76.9124C503.946 48.9678 525.336 60.2529 525.336 60.2529Z" fill="url(#paint4_linear_205_8608)"/>
<path d="M175.325 566.787L401.746 436.531C410.666 431.381 423.779 431.888 431.821 436.531L657.722 566.787C660.211 568.2 662.28 570.247 663.72 572.72C665.16 575.193 665.919 578.004 665.919 580.865C665.919 583.727 665.16 586.538 663.72 589.011C662.28 591.484 660.211 593.531 657.722 594.944L424.721 728.814C422.234 730.27 419.405 731.037 416.524 731.037C413.642 731.037 410.813 730.27 408.326 728.814L175.325 594.944C163.898 589.016 163.898 573.208 175.325 566.787Z" fill="url(#paint5_linear_205_8608)"/>
<path d="M215.068 566.268L403.16 458.062C410.571 453.784 421.463 454.205 428.145 458.062L615.803 566.268C617.872 567.441 619.592 569.142 620.788 571.197C621.985 573.251 622.615 575.587 622.615 577.965C622.615 580.342 621.985 582.678 620.788 584.732C619.592 586.787 617.872 588.488 615.803 589.661L422.245 700.866C420.179 702.075 417.829 702.712 415.435 702.712C413.042 702.712 410.691 702.075 408.626 700.866L215.068 589.657C205.576 584.734 205.576 571.603 215.068 566.268Z" fill="url(#paint6_linear_205_8608)"/>
<path d="M215.068 431.276L403.16 323.07C410.571 318.791 421.463 319.213 428.145 323.07L615.803 431.276C617.872 432.449 619.592 434.15 620.788 436.204C621.985 438.259 622.615 440.594 622.615 442.972C622.615 445.35 621.985 447.685 620.788 449.74C619.592 451.795 617.872 453.495 615.803 454.669L422.245 565.873C420.179 567.083 417.829 567.72 415.435 567.72C413.042 567.72 410.691 567.083 408.626 565.873L215.068 454.664C205.576 449.742 205.576 436.611 215.068 431.276Z" fill="url(#paint7_linear_205_8608)"/>
<path d="M231.083 429.763L404.126 330.213C410.942 326.276 420.965 326.664 427.112 330.213L599.76 429.759C601.663 430.839 603.245 432.403 604.346 434.293C605.447 436.183 606.027 438.332 606.027 440.519C606.027 442.706 605.447 444.855 604.346 446.745C603.245 448.635 601.663 450.199 599.76 451.278L421.688 553.594C419.788 554.706 417.626 555.293 415.423 555.293C413.221 555.293 411.059 554.706 409.159 553.594L231.083 451.28C222.35 446.752 222.35 434.671 231.083 429.763Z" fill="url(#paint8_linear_205_8608)"/>
<path d="M237.243 426.34L404.502 330.118C411.093 326.313 420.778 326.688 426.717 330.118L593.596 426.34C595.434 427.384 596.963 428.896 598.027 430.723C599.091 432.55 599.651 434.626 599.651 436.74C599.651 438.854 599.091 440.93 598.027 442.757C596.963 444.584 595.434 446.097 593.596 447.14L421.474 546.031C419.637 547.106 417.547 547.672 415.419 547.672C413.29 547.672 411.2 547.106 409.363 546.031L237.243 447.141C228.8 442.762 228.8 431.085 237.243 426.34Z" fill="url(#paint9_linear_205_8608)"/>
<path d="M215.067 310.994L403.16 202.788C410.571 198.509 421.463 198.93 428.144 202.788L615.804 310.994C617.872 312.167 619.592 313.868 620.789 315.923C621.985 317.977 622.616 320.313 622.616 322.691C622.616 325.068 621.985 327.404 620.789 329.458C619.592 331.513 617.872 333.214 615.804 334.387L423.903 445.592C422.244 447.426 411.988 448.054 407.86 445.592L215.067 335.728C205.575 330.802 205.575 316.328 215.067 310.994Z" fill="url(#paint10_linear_205_8608)"/>
<path d="M207.947 442.137C207.123 432.939 207.947 579.452 207.947 579.452C207.947 579.452 207.262 585.613 216.841 590.948C226.42 596.283 395.221 693.211 400.832 696.095C406.443 698.98 412.811 707.631 429.105 696.902C445.4 686.173 614.541 590.948 614.541 590.948C614.541 590.948 623.292 586.281 623.975 579.452C624.657 572.624 622.797 442.137 622.797 442.137C621.16 447.123 617.849 451.389 613.427 454.214C606.133 458.729 427.661 560.453 427.661 560.453C427.661 560.453 417.539 570.177 401.892 560.453C386.246 550.729 216.841 454.214 216.841 454.214C214.393 453.211 212.269 451.553 210.7 449.423C209.131 447.293 208.179 444.773 207.947 442.137Z" fill="url(#paint11_linear_205_8608)"/>
<path d="M207.947 442.137C207.123 432.939 207.947 579.452 207.947 579.452C207.947 579.452 207.262 585.613 216.841 590.948C226.42 596.283 395.221 693.211 400.832 696.095C406.443 698.98 412.811 707.631 429.105 696.902C445.4 686.173 614.541 590.948 614.541 590.948C614.541 590.948 623.292 586.281 623.975 579.452C624.657 572.624 622.797 442.137 622.797 442.137C621.16 447.123 617.849 451.389 613.427 454.214C606.133 458.729 427.661 560.453 427.661 560.453C427.661 560.453 417.539 570.177 401.892 560.453C386.246 550.729 216.841 454.214 216.841 454.214C214.393 453.211 212.269 451.553 210.7 449.423C209.131 447.293 208.179 444.773 207.947 442.137Z" fill="url(#paint12_linear_205_8608)"/>
<path d="M207.947 323.587C207.123 314.389 207.947 409.848 207.947 409.848C207.947 409.848 207.262 416.009 216.841 421.342C226.42 426.675 395.222 523.606 400.835 526.49C406.447 529.374 412.814 538.026 429.108 527.297C445.402 516.568 614.544 421.341 614.544 421.341C614.544 421.341 623.295 416.674 623.977 409.847C624.66 403.019 622.8 323.586 622.8 323.586C621.162 328.572 617.852 332.838 613.429 335.663C606.135 340.177 427.663 441.903 427.663 441.903C427.663 441.903 417.541 451.626 401.895 441.903C386.248 432.18 216.844 335.663 216.844 335.663C214.395 334.66 212.271 333.003 210.702 330.873C209.133 328.743 208.18 326.222 207.947 323.587Z" fill="url(#paint13_linear_205_8608)"/>
<g filter="url(#filter0_d_205_8608)">
<g opacity="0.322">
<path d="M415.829 377.485C463.686 377.485 502.482 351.861 502.482 320.253C502.482 288.645 463.686 263.022 415.829 263.022C367.972 263.022 329.176 288.645 329.176 320.253C329.176 351.861 367.972 377.485 415.829 377.485Z" stroke="#3F3C58" stroke-width="10"/>
</g>
</g>
<g filter="url(#filter1_d_205_8608)">
<g opacity="0.322">
<path d="M416.699 359.661C453.279 359.661 482.932 340.855 482.932 317.657C482.932 294.458 453.279 275.653 416.699 275.653C380.119 275.653 350.465 294.458 350.465 317.657C350.465 340.855 380.119 359.661 416.699 359.661Z" stroke="#3F3C58" stroke-width="3"/>
</g>
</g>
<path opacity="0.697" d="M835.184 254.524C832.624 251.753 850.936 244.522 850.936 244.522C850.936 244.522 857.919 247.539 858.206 258.356C858.494 269.174 858.969 524.141 858.969 524.141C858.969 524.141 860.973 536.385 852.142 545.165C843.311 553.945 826.253 557.845 826.253 557.845C826.253 557.845 832.416 555.941 836.128 550.885C839.84 545.83 841.11 537.617 841.11 537.617L839.93 267.536C839.93 267.536 837.741 257.295 835.184 254.524Z" fill="url(#paint14_linear_205_8608)"/>
<g filter="url(#filter2_d_205_8608)">
<path opacity="0.085" d="M383.476 428.931C383.729 429.183 406.611 445.161 416.904 444.583C421.086 444.35 621.526 333.432 621.747 323.373C621.968 313.314 606.507 306.82 606.507 306.82L429.814 205.73C429.814 205.73 416.939 196.043 401.185 205.73C352.019 234.004 240.623 297.4 221.544 308.306C197.023 322.323 218.147 334.464 218.147 334.464C218.147 334.464 383.118 428.568 383.476 428.931Z" stroke="#1ABFB4" stroke-width="4" stroke-linecap="round"/>
</g>
<path opacity="0.848" d="M496.644 66.4831C492.979 67.3776 512.276 58.7996 512.276 58.7996C512.276 58.7996 516.996 56.3248 526.594 61.3156C536.192 66.3064 767.356 195.684 767.356 195.684L751.08 205.902L512.276 71.4529C512.276 71.4529 500.31 65.5886 496.644 66.4831Z" fill="url(#paint15_linear_205_8608)"/>
<path d="M397.955 221.896L414.76 212.351C415.409 212.24 416.073 212.24 416.722 212.351L433.275 221.896C433.457 222 433.608 222.15 433.714 222.331C433.819 222.512 433.875 222.718 433.875 222.927C433.875 223.137 433.819 223.342 433.714 223.523C433.608 223.704 433.457 223.854 433.275 223.958L416.215 233.759C416.033 233.866 415.825 233.922 415.614 233.922C415.403 233.922 415.196 233.866 415.014 233.759L397.955 223.958C397.766 223.86 397.607 223.712 397.496 223.53C397.386 223.349 397.327 223.14 397.327 222.927C397.327 222.714 397.386 222.505 397.496 222.324C397.607 222.142 397.766 221.994 397.955 221.896Z" fill="url(#paint16_linear_205_8608)"/>
<path d="M397.955 221.896L414.532 212.359C414.872 212.182 415.25 212.09 415.633 212.09C416.016 212.09 416.394 212.182 416.734 212.359L433.275 221.896C433.457 222 433.608 222.15 433.714 222.331C433.819 222.512 433.875 222.718 433.875 222.927C433.875 223.137 433.819 223.342 433.714 223.523C433.608 223.704 433.457 223.854 433.275 223.958L416.215 233.759C416.033 233.866 415.825 233.922 415.614 233.922C415.403 233.922 415.196 233.866 415.014 233.759L397.955 223.958C397.766 223.86 397.607 223.712 397.496 223.53C397.386 223.349 397.327 223.14 397.327 222.927C397.327 222.714 397.386 222.505 397.496 222.324C397.607 222.142 397.766 221.994 397.955 221.896Z" fill="url(#paint17_linear_205_8608)"/>
<path opacity="0.399" d="M433.855 223.089C433.882 223.678 433.105 224.055 433.105 224.055C433.105 224.055 430.257 225.691 426.899 227.626C422.707 230.037 417.697 232.918 416.864 233.4C416.492 233.655 416.052 233.791 415.602 233.791C415.151 233.791 414.711 233.655 414.34 233.4L397.715 223.788C397.715 223.788 397.35 223.638 397.337 222.983" stroke="white" stroke-linecap="round" stroke-linejoin="round"/>
<path d="M402.517 222.187L415.139 215.151C415.274 215.072 415.427 215.031 415.583 215.031C415.739 215.031 415.893 215.072 416.027 215.151L428.649 222.187C428.784 222.263 428.897 222.374 428.975 222.508C429.053 222.642 429.094 222.794 429.094 222.949C429.094 223.105 429.053 223.257 428.975 223.391C428.897 223.525 428.784 223.636 428.649 223.712L416.027 230.966C415.893 231.045 415.739 231.086 415.583 231.086C415.427 231.086 415.274 231.045 415.139 230.966L402.517 223.712C402.377 223.64 402.26 223.53 402.178 223.396C402.096 223.261 402.053 223.107 402.053 222.949C402.053 222.792 402.096 222.638 402.178 222.503C402.26 222.369 402.377 222.259 402.517 222.187Z" fill="url(#paint18_linear_205_8608)"/>
<path d="M408.301 222.207L415.253 218.252C415.522 218.206 415.796 218.206 416.065 218.252L422.912 222.207C422.987 222.25 423.05 222.312 423.094 222.387C423.137 222.462 423.16 222.547 423.16 222.634C423.16 222.72 423.137 222.806 423.094 222.881C423.05 222.955 422.987 223.018 422.912 223.06L415.855 227.111C415.779 227.155 415.694 227.178 415.606 227.178C415.519 227.178 415.433 227.155 415.358 227.111L408.301 223.057C408.223 223.016 408.158 222.955 408.113 222.88C408.067 222.805 408.043 222.72 408.043 222.632C408.043 222.544 408.067 222.459 408.113 222.384C408.158 222.309 408.223 222.248 408.301 222.207Z" fill="url(#paint19_linear_205_8608)"/>
<path d="M408.301 222.204L415.159 218.258C415.299 218.185 415.456 218.146 415.614 218.146C415.773 218.146 415.929 218.185 416.07 218.258L422.912 222.204C422.987 222.246 423.05 222.308 423.094 222.383C423.137 222.458 423.16 222.543 423.16 222.63C423.16 222.717 423.137 222.802 423.094 222.877C423.05 222.952 422.987 223.014 422.912 223.057L415.855 227.111C415.779 227.155 415.694 227.178 415.606 227.178C415.519 227.178 415.433 227.155 415.358 227.111L408.301 223.056C408.222 223.016 408.157 222.954 408.111 222.879C408.065 222.804 408.041 222.718 408.041 222.63C408.041 222.542 408.065 222.455 408.111 222.38C408.157 222.305 408.222 222.244 408.301 222.204Z" fill="url(#paint20_linear_205_8608)"/>
<path opacity="0.399" d="M423.149 222.699C423.159 222.943 422.839 223.098 422.839 223.098C422.839 223.098 421.665 223.771 420.268 224.575C418.535 225.573 416.464 226.763 416.121 226.965C415.967 227.071 415.784 227.127 415.597 227.127C415.41 227.127 415.227 227.071 415.073 226.965L408.196 222.989C408.196 222.989 408.047 222.926 408.043 222.652" stroke="white" stroke-linecap="round" stroke-linejoin="round"/>
<path d="M410.186 222.324L415.411 219.413C415.467 219.381 415.531 219.364 415.595 219.364C415.66 219.364 415.723 219.381 415.779 219.413L421.002 222.324C421.058 222.356 421.105 222.402 421.137 222.457C421.169 222.512 421.186 222.576 421.186 222.64C421.186 222.704 421.169 222.767 421.137 222.822C421.105 222.878 421.058 222.924 421.002 222.955L415.779 225.956C415.723 225.989 415.66 226.006 415.595 226.006C415.531 226.006 415.467 225.989 415.411 225.956L410.186 222.955C410.128 222.925 410.079 222.88 410.045 222.824C410.012 222.769 409.994 222.705 409.994 222.64C409.994 222.575 410.012 222.511 410.045 222.455C410.079 222.399 410.128 222.354 410.186 222.324Z" fill="url(#paint21_linear_205_8608)"/>
<path d="M415.832 337.559C434.471 337.559 449.581 327.098 449.581 314.195C449.581 301.292 434.471 290.831 415.832 290.831C397.194 290.831 382.084 301.292 382.084 314.195C382.084 327.098 397.194 337.559 415.832 337.559Z" fill="url(#paint22_linear_205_8608)"/>
<path d="M415.832 337.138C434.239 337.138 449.16 326.866 449.16 314.195C449.16 301.524 434.239 291.252 415.832 291.252C397.426 291.252 382.505 301.524 382.505 314.195C382.505 326.866 397.426 337.138 415.832 337.138Z" stroke="#3F3C58"/>
<path d="M382.662 320.614C381.02 321.024 383.903 63.9319 383.903 63.9319C383.903 63.9319 448.912 102.793 448.912 121.355V318.444C448.912 318.444 414.218 288.791 382.662 320.614Z" fill="url(#paint23_linear_205_8608)"/>
<g opacity="0.206">
<path d="M414.792 235.405C414.211 235.816 413.771 236.395 413.529 237.063C413.287 237.732 413.256 238.459 413.44 239.146C413.623 239.833 414.012 240.448 414.555 240.907C415.098 241.366 415.769 241.648 416.477 241.715C417.185 241.783 417.896 241.631 418.516 241.282C419.135 240.933 419.633 240.403 419.942 239.763C420.252 239.122 420.358 238.403 420.246 237.7C420.134 236.998 419.81 236.347 419.318 235.834C419.288 235.783 419.247 235.739 419.2 235.703C418.773 235.402 418.419 235.008 418.166 234.551C417.913 234.094 417.766 233.586 417.737 233.064C417.737 232.074 417.973 231.557 419.2 230.371L419.175 230.334C419.688 229.857 420.046 229.235 420.201 228.552C420.356 227.868 420.301 227.153 420.042 226.501C419.784 225.849 419.335 225.29 418.754 224.898C418.173 224.505 417.487 224.297 416.786 224.301C416.085 224.305 415.401 224.52 414.825 224.919C414.248 225.318 413.805 225.881 413.554 226.536C413.303 227.191 413.255 227.906 413.417 228.588C413.579 229.27 413.944 229.887 414.462 230.359L414.45 230.378C415.676 231.556 415.913 232.077 415.913 233.07C415.892 233.515 415.782 233.951 415.59 234.352C415.397 234.753 415.125 235.111 414.792 235.405Z" fill="white"/>
<path d="M428.923 252.212C428.923 251.631 428.778 251.06 428.502 250.55C428.225 250.04 427.826 249.607 427.34 249.29C426.853 248.973 426.296 248.783 425.717 248.736C425.139 248.689 424.558 248.788 424.027 249.022C423.497 249.257 423.033 249.62 422.678 250.079C422.323 250.538 422.089 251.079 421.995 251.651C421.902 252.224 421.954 252.811 422.145 253.359C422.336 253.907 422.66 254.398 423.09 254.789L423.077 254.802C424.303 255.98 424.54 256.501 424.54 257.494C424.522 257.94 424.414 258.378 424.221 258.78C424.028 259.183 423.756 259.542 423.419 259.835C422.839 260.246 422.398 260.825 422.157 261.494C421.915 262.163 421.884 262.889 422.067 263.576C422.25 264.264 422.64 264.878 423.182 265.337C423.725 265.797 424.396 266.079 425.103 266.146C425.811 266.214 426.523 266.063 427.143 265.714C427.762 265.365 428.26 264.835 428.57 264.194C428.879 263.554 428.985 262.834 428.874 262.132C428.762 261.43 428.438 260.778 427.946 260.265C427.915 260.215 427.875 260.17 427.827 260.135C427.4 259.834 427.046 259.44 426.793 258.983C426.54 258.526 426.393 258.017 426.364 257.495C426.364 256.506 426.6 255.988 427.827 254.803L427.803 254.765C428.157 254.44 428.439 254.046 428.632 253.606C428.825 253.167 428.924 252.692 428.923 252.212Z" fill="white"/>
<path d="M406.157 259.827C405.577 260.238 405.136 260.817 404.895 261.485C404.653 262.154 404.621 262.881 404.805 263.568C404.988 264.255 405.377 264.87 405.92 265.329C406.463 265.788 407.133 266.071 407.841 266.138C408.549 266.205 409.261 266.054 409.88 265.705C410.5 265.356 410.998 264.826 411.307 264.186C411.617 263.546 411.723 262.826 411.611 262.124C411.5 261.421 411.176 260.77 410.684 260.257C410.653 260.206 410.613 260.162 410.565 260.127C410.138 259.825 409.784 259.431 409.531 258.974C409.277 258.517 409.131 258.009 409.102 257.487C409.102 256.497 409.338 255.981 410.565 254.794L410.54 254.757C411.053 254.28 411.411 253.659 411.566 252.975C411.721 252.291 411.665 251.576 411.407 250.924C411.149 250.272 410.7 249.713 410.119 249.321C409.538 248.928 408.852 248.72 408.151 248.724C407.45 248.728 406.766 248.943 406.189 249.342C405.613 249.741 405.17 250.304 404.919 250.959C404.668 251.614 404.62 252.329 404.782 253.011C404.944 253.693 405.309 254.311 405.827 254.782L405.815 254.801C407.041 255.979 407.278 256.501 407.278 257.494C407.26 257.938 407.151 258.375 406.959 258.776C406.766 259.177 406.493 259.535 406.157 259.827Z" fill="white"/>
<path d="M437.907 257.934C437.907 257.353 437.762 256.782 437.486 256.272C437.21 255.762 436.81 255.329 436.324 255.012C435.838 254.695 435.28 254.505 434.702 254.458C434.123 254.411 433.543 254.51 433.012 254.744C432.481 254.979 432.017 255.342 431.662 255.801C431.308 256.26 431.073 256.801 430.98 257.373C430.887 257.946 430.938 258.533 431.129 259.081C431.32 259.629 431.645 260.12 432.074 260.511L432.061 260.53C433.288 261.708 433.525 262.229 433.525 263.222C433.507 263.668 433.398 264.106 433.206 264.508C433.013 264.911 432.74 265.27 432.404 265.563C431.823 265.974 431.383 266.553 431.141 267.222C430.899 267.89 430.867 268.617 431.051 269.304C431.234 269.991 431.623 270.606 432.166 271.066C432.709 271.525 433.379 271.807 434.087 271.875C434.795 271.942 435.507 271.791 436.127 271.442C436.746 271.093 437.244 270.563 437.554 269.922C437.863 269.282 437.969 268.562 437.857 267.86C437.746 267.157 437.422 266.506 436.929 265.993C436.899 265.942 436.858 265.898 436.811 265.863C436.384 265.562 436.03 265.168 435.777 264.711C435.523 264.253 435.376 263.745 435.347 263.223C435.347 262.234 435.584 261.716 436.811 260.53L436.785 260.493C437.139 260.167 437.422 259.772 437.615 259.331C437.808 258.89 437.907 258.415 437.907 257.934Z" fill="white"/>
<path d="M445.795 260.965C445.369 260.664 445.015 260.27 444.762 259.813C444.509 259.356 444.362 258.847 444.333 258.326C444.333 257.336 444.569 256.819 445.795 255.633L445.771 255.596C446.285 255.119 446.642 254.497 446.797 253.814C446.952 253.13 446.897 252.415 446.639 251.763C446.381 251.111 445.932 250.552 445.351 250.16C444.77 249.767 444.084 249.559 443.383 249.563C442.681 249.567 441.998 249.782 441.421 250.181C440.844 250.579 440.401 251.143 440.15 251.798C439.899 252.452 439.851 253.168 440.014 253.85C440.176 254.532 440.54 255.149 441.059 255.621L441.046 255.64C442.272 256.818 442.51 257.339 442.51 258.332C442.492 258.778 442.383 259.216 442.19 259.618C441.998 260.021 441.725 260.38 441.389 260.673C440.808 261.084 440.368 261.663 440.126 262.332C439.885 263.001 439.853 263.728 440.037 264.415C440.22 265.102 440.61 265.716 441.153 266.176C441.695 266.635 442.366 266.917 443.074 266.984C443.782 267.051 444.493 266.9 445.113 266.551C445.732 266.202 446.23 265.672 446.54 265.031C446.849 264.391 446.955 263.671 446.843 262.969C446.732 262.267 446.408 261.615 445.915 261.103C445.89 261.045 445.849 260.997 445.795 260.965Z" fill="white"/>
<path d="M393.383 252.916C393.383 252.335 393.238 251.764 392.962 251.254C392.685 250.744 392.286 250.311 391.799 249.994C391.313 249.677 390.756 249.487 390.177 249.44C389.599 249.394 389.018 249.492 388.487 249.726C387.957 249.961 387.493 250.324 387.138 250.783C386.783 251.242 386.549 251.783 386.455 252.356C386.362 252.928 386.414 253.515 386.605 254.063C386.796 254.611 387.12 255.103 387.55 255.493L387.537 255.512C388.763 256.69 389 257.211 389 258.204C388.982 258.65 388.874 259.088 388.681 259.49C388.488 259.893 388.216 260.252 387.879 260.545C387.301 260.958 386.863 261.538 386.624 262.206C386.384 262.875 386.355 263.601 386.54 264.287C386.725 264.973 387.116 265.586 387.659 266.043C388.202 266.501 388.873 266.781 389.58 266.847C390.287 266.913 390.998 266.76 391.616 266.411C392.234 266.061 392.731 265.53 393.039 264.89C393.347 264.25 393.452 263.531 393.34 262.83C393.228 262.129 392.904 261.478 392.412 260.966C392.381 260.915 392.341 260.871 392.293 260.836C391.866 260.535 391.512 260.141 391.259 259.684C391.005 259.226 390.859 258.718 390.83 258.196C390.83 257.206 391.066 256.69 392.293 255.503L392.268 255.466C392.619 255.141 392.9 254.747 393.092 254.308C393.284 253.869 393.383 253.395 393.383 252.916Z" fill="white"/>
<path d="M414.792 265.546C414.211 265.957 413.771 266.536 413.529 267.205C413.287 267.874 413.256 268.6 413.439 269.287C413.623 269.975 414.012 270.589 414.555 271.048C415.097 271.508 415.768 271.79 416.476 271.857C417.184 271.925 417.895 271.774 418.515 271.425C419.134 271.076 419.632 270.546 419.942 269.905C420.251 269.265 420.357 268.545 420.246 267.843C420.134 267.141 419.811 266.489 419.318 265.976C419.288 265.926 419.248 265.881 419.2 265.846C418.773 265.545 418.42 265.151 418.166 264.694C417.913 264.237 417.766 263.728 417.737 263.206C417.723 262.791 417.804 262.377 417.972 261.997C418.14 261.616 418.391 261.279 418.708 261.009C419.194 260.692 419.593 260.259 419.869 259.75C420.145 259.24 420.289 258.669 420.289 258.089V257.921C420.29 257.305 420.126 256.699 419.816 256.167C419.505 255.635 419.059 255.194 418.522 254.892C418.033 254.344 417.755 253.64 417.738 252.906C417.738 251.916 417.974 251.4 419.201 250.213L419.176 250.176C419.69 249.699 420.047 249.078 420.202 248.394C420.357 247.71 420.302 246.995 420.043 246.343C419.785 245.691 419.336 245.132 418.755 244.74C418.174 244.347 417.488 244.139 416.787 244.143C416.086 244.147 415.402 244.362 414.826 244.761C414.249 245.16 413.806 245.723 413.555 246.378C413.304 247.033 413.256 247.748 413.418 248.43C413.58 249.112 413.945 249.73 414.464 250.201L414.451 250.22C415.677 251.398 415.914 251.92 415.914 252.912C415.894 253.63 415.627 254.319 415.157 254.861C414.601 255.16 414.137 255.604 413.814 256.145C413.49 256.687 413.32 257.306 413.321 257.937V258.098C413.321 258.697 413.475 259.286 413.769 259.808C414.062 260.331 414.484 260.769 414.995 261.081C415.297 261.346 415.536 261.675 415.695 262.045C415.853 262.414 415.927 262.815 415.911 263.216C415.89 263.66 415.78 264.095 415.588 264.495C415.395 264.895 415.125 265.253 414.792 265.546Z" fill="white"/>
<path d="M425.393 245.283C427.339 245.283 428.916 243.705 428.916 241.76C428.916 239.814 427.339 238.236 425.393 238.236C423.447 238.236 421.87 239.814 421.87 241.76C421.87 243.705 423.447 245.283 425.393 245.283Z" fill="white"/>
<path d="M408.211 245.283C410.157 245.283 411.734 243.705 411.734 241.76C411.734 239.814 410.157 238.236 408.211 238.236C406.265 238.236 404.688 239.814 404.688 241.76C404.688 243.705 406.265 245.283 408.211 245.283Z" fill="white"/>
<path d="M401.064 265.555C400.73 265.26 400.459 264.901 400.268 264.498C400.076 264.096 399.968 263.659 399.95 263.214C399.95 262.223 400.187 261.707 401.414 260.521L401.389 260.484C401.903 260.007 402.261 259.386 402.415 258.702C402.57 258.018 402.515 257.303 402.257 256.651C401.999 255.999 401.55 255.44 400.969 255.048C400.388 254.655 399.702 254.447 399.001 254.451C398.3 254.455 397.616 254.67 397.039 255.069C396.462 255.468 396.019 256.031 395.768 256.686C395.517 257.341 395.47 258.056 395.632 258.738C395.794 259.42 396.158 260.038 396.677 260.509L396.664 260.528C397.891 261.706 398.128 262.228 398.128 263.221C398.11 263.667 398.001 264.104 397.809 264.507C397.616 264.909 397.343 265.268 397.007 265.562C396.551 265.883 396.18 266.31 395.923 266.805C395.666 267.3 395.532 267.849 395.532 268.407V268.456C395.533 269.062 395.691 269.657 395.989 270.184C396.288 270.711 396.717 271.152 397.235 271.465C397.754 271.777 398.344 271.951 398.949 271.969C399.555 271.988 400.155 271.849 400.691 271.568C401.227 271.287 401.682 270.872 402.011 270.364C402.341 269.856 402.534 269.272 402.571 268.667C402.609 268.063 402.49 267.459 402.227 266.914C401.963 266.369 401.563 265.901 401.066 265.555H401.064Z" fill="white"/>
<path d="M408.211 276.64C410.157 276.64 411.734 275.062 411.734 273.116C411.734 271.17 410.157 269.593 408.211 269.593C406.265 269.593 404.688 271.17 404.688 273.116C404.688 275.062 406.265 276.64 408.211 276.64Z" fill="white"/>
<path d="M425.437 276.64C427.383 276.64 428.961 275.062 428.961 273.116C428.961 271.17 427.383 269.593 425.437 269.593C423.491 269.593 421.914 271.17 421.914 273.116C421.914 275.062 423.491 276.64 425.437 276.64Z" fill="white"/>
</g>
<g opacity="0.206">
<path d="M414.792 237.135C414.211 237.546 413.771 238.125 413.529 238.793C413.287 239.462 413.256 240.189 413.44 240.876C413.623 241.563 414.012 242.177 414.555 242.637C415.098 243.096 415.769 243.378 416.477 243.445C417.185 243.513 417.896 243.361 418.516 243.012C419.135 242.663 419.633 242.133 419.942 241.493C420.252 240.852 420.358 240.133 420.246 239.43C420.134 238.728 419.81 238.077 419.318 237.564C419.288 237.513 419.247 237.469 419.2 237.433C418.773 237.132 418.419 236.738 418.166 236.281C417.913 235.824 417.766 235.316 417.737 234.794C417.737 233.804 417.973 233.287 419.2 232.101L419.175 232.064C419.688 231.587 420.046 230.965 420.201 230.282C420.356 229.598 420.301 228.883 420.042 228.231C419.784 227.579 419.335 227.02 418.754 226.628C418.173 226.235 417.487 226.027 416.786 226.031C416.085 226.035 415.401 226.25 414.825 226.649C414.248 227.047 413.805 227.611 413.554 228.266C413.303 228.92 413.255 229.636 413.417 230.318C413.579 231 413.944 231.617 414.462 232.089L414.45 232.108C415.676 233.286 415.913 233.807 415.913 234.8C415.892 235.245 415.782 235.681 415.59 236.082C415.397 236.483 415.125 236.841 414.792 237.135Z" fill="white"/>
<path d="M428.923 253.942C428.923 253.361 428.778 252.79 428.502 252.28C428.225 251.77 427.826 251.337 427.34 251.02C426.853 250.703 426.296 250.513 425.717 250.466C425.139 250.419 424.558 250.518 424.027 250.752C423.497 250.987 423.033 251.35 422.678 251.809C422.323 252.268 422.089 252.809 421.995 253.381C421.902 253.954 421.954 254.541 422.145 255.089C422.336 255.637 422.66 256.128 423.09 256.519L423.077 256.532C424.303 257.71 424.54 258.231 424.54 259.224C424.522 259.67 424.414 260.108 424.221 260.51C424.028 260.913 423.756 261.272 423.419 261.565C422.839 261.976 422.398 262.555 422.157 263.224C421.915 263.893 421.884 264.619 422.067 265.306C422.25 265.994 422.64 266.608 423.182 267.067C423.725 267.527 424.396 267.809 425.103 267.876C425.811 267.944 426.523 267.793 427.143 267.444C427.762 267.095 428.26 266.564 428.57 265.924C428.879 265.284 428.985 264.564 428.874 263.862C428.762 263.16 428.438 262.508 427.946 261.995C427.915 261.945 427.875 261.9 427.827 261.865C427.4 261.564 427.046 261.17 426.793 260.713C426.54 260.256 426.393 259.747 426.364 259.225C426.364 258.236 426.6 257.718 427.827 256.533L427.803 256.495C428.157 256.17 428.439 255.776 428.632 255.336C428.825 254.897 428.924 254.422 428.923 253.942Z" fill="white"/>
<path d="M406.157 261.557C405.577 261.968 405.136 262.547 404.895 263.215C404.653 263.884 404.621 264.611 404.805 265.298C404.988 265.985 405.377 266.6 405.92 267.059C406.463 267.518 407.133 267.801 407.841 267.868C408.549 267.935 409.261 267.784 409.88 267.435C410.5 267.086 410.998 266.556 411.307 265.916C411.617 265.275 411.723 264.556 411.611 263.854C411.5 263.151 411.176 262.5 410.684 261.987C410.653 261.936 410.613 261.892 410.565 261.856C410.138 261.555 409.784 261.161 409.531 260.704C409.277 260.247 409.131 259.739 409.102 259.217C409.102 258.227 409.338 257.711 410.565 256.524L410.54 256.487C411.053 256.01 411.411 255.389 411.566 254.705C411.721 254.021 411.665 253.306 411.407 252.654C411.149 252.002 410.7 251.443 410.119 251.051C409.538 250.658 408.852 250.45 408.151 250.454C407.45 250.458 406.766 250.673 406.189 251.072C405.613 251.471 405.17 252.034 404.919 252.689C404.668 253.344 404.62 254.059 404.782 254.741C404.944 255.423 405.309 256.041 405.827 256.512L405.815 256.531C407.041 257.709 407.278 258.231 407.278 259.224C407.26 259.668 407.151 260.105 406.959 260.506C406.766 260.907 406.493 261.265 406.157 261.557Z" fill="white"/>
<path d="M437.907 259.664C437.907 259.083 437.762 258.512 437.486 258.002C437.21 257.492 436.81 257.059 436.324 256.742C435.838 256.425 435.28 256.235 434.702 256.188C434.123 256.141 433.543 256.24 433.012 256.474C432.481 256.709 432.017 257.072 431.662 257.531C431.308 257.99 431.073 258.531 430.98 259.103C430.887 259.676 430.938 260.263 431.129 260.811C431.32 261.359 431.645 261.85 432.074 262.241L432.061 262.26C433.288 263.438 433.525 263.959 433.525 264.952C433.507 265.398 433.398 265.836 433.206 266.238C433.013 266.641 432.74 267 432.404 267.293C431.823 267.704 431.383 268.283 431.141 268.952C430.899 269.62 430.867 270.347 431.051 271.034C431.234 271.721 431.623 272.336 432.166 272.795C432.709 273.255 433.379 273.537 434.087 273.605C434.795 273.672 435.507 273.521 436.127 273.172C436.746 272.823 437.244 272.293 437.554 271.652C437.863 271.012 437.969 270.292 437.857 269.59C437.746 268.887 437.422 268.236 436.929 267.723C436.899 267.672 436.858 267.628 436.811 267.593C436.384 267.292 436.03 266.898 435.777 266.441C435.523 265.983 435.376 265.475 435.347 264.953C435.347 263.963 435.584 263.446 436.811 262.26L436.785 262.223C437.139 261.897 437.422 261.502 437.615 261.061C437.808 260.62 437.907 260.145 437.907 259.664Z" fill="white"/>
<path d="M445.795 262.695C445.369 262.394 445.015 262 444.762 261.543C444.509 261.086 444.362 260.577 444.333 260.056C444.333 259.066 444.569 258.549 445.795 257.363L445.771 257.326C446.285 256.849 446.642 256.227 446.797 255.544C446.952 254.86 446.897 254.145 446.639 253.493C446.381 252.841 445.932 252.282 445.351 251.89C444.77 251.497 444.084 251.289 443.383 251.293C442.681 251.297 441.998 251.512 441.421 251.911C440.844 252.309 440.401 252.873 440.15 253.528C439.899 254.182 439.851 254.898 440.014 255.58C440.176 256.262 440.54 256.879 441.059 257.351L441.046 257.37C442.272 258.548 442.51 259.069 442.51 260.062C442.492 260.508 442.383 260.946 442.19 261.348C441.998 261.751 441.725 262.11 441.389 262.403C440.808 262.814 440.368 263.393 440.126 264.062C439.885 264.731 439.853 265.458 440.037 266.145C440.22 266.832 440.61 267.446 441.153 267.905C441.695 268.365 442.366 268.647 443.074 268.714C443.782 268.781 444.493 268.63 445.113 268.281C445.732 267.932 446.23 267.402 446.54 266.761C446.849 266.121 446.955 265.401 446.843 264.699C446.732 263.997 446.408 263.345 445.915 262.833C445.89 262.775 445.849 262.727 445.795 262.695Z" fill="white"/>
<path d="M393.383 254.646C393.383 254.065 393.238 253.494 392.962 252.984C392.685 252.474 392.286 252.041 391.799 251.724C391.313 251.407 390.756 251.217 390.177 251.17C389.599 251.124 389.018 251.222 388.487 251.456C387.957 251.691 387.493 252.054 387.138 252.513C386.783 252.972 386.549 253.513 386.455 254.086C386.362 254.658 386.414 255.245 386.605 255.793C386.796 256.341 387.12 256.833 387.55 257.223L387.537 257.242C388.763 258.42 389 258.941 389 259.934C388.982 260.38 388.874 260.818 388.681 261.22C388.488 261.623 388.216 261.982 387.879 262.275C387.301 262.688 386.863 263.268 386.624 263.936C386.384 264.605 386.355 265.331 386.54 266.017C386.725 266.703 387.116 267.316 387.659 267.773C388.202 268.231 388.873 268.511 389.58 268.577C390.287 268.643 390.998 268.49 391.616 268.141C392.234 267.791 392.731 267.26 393.039 266.62C393.347 265.98 393.452 265.261 393.34 264.56C393.228 263.859 392.904 263.208 392.412 262.696C392.381 262.645 392.341 262.601 392.293 262.566C391.866 262.265 391.512 261.871 391.259 261.413C391.005 260.956 390.859 260.448 390.83 259.926C390.83 258.936 391.066 258.42 392.293 257.233L392.268 257.196C392.619 256.871 392.9 256.477 393.092 256.038C393.284 255.599 393.383 255.125 393.383 254.646Z" fill="white"/>
<path d="M414.792 267.276C414.211 267.687 413.771 268.266 413.529 268.935C413.287 269.604 413.256 270.33 413.439 271.017C413.623 271.705 414.012 272.319 414.555 272.778C415.097 273.238 415.768 273.52 416.476 273.587C417.184 273.655 417.895 273.504 418.515 273.155C419.134 272.806 419.632 272.275 419.942 271.635C420.251 270.995 420.357 270.275 420.246 269.573C420.134 268.871 419.811 268.219 419.318 267.706C419.288 267.656 419.248 267.611 419.2 267.576C418.773 267.275 418.42 266.881 418.166 266.424C417.913 265.967 417.766 265.458 417.737 264.936C417.723 264.521 417.804 264.107 417.972 263.727C418.14 263.346 418.391 263.009 418.708 262.739C419.194 262.422 419.593 261.989 419.869 261.48C420.145 260.97 420.289 260.399 420.289 259.819V259.651C420.29 259.035 420.126 258.429 419.816 257.897C419.505 257.365 419.059 256.924 418.522 256.622C418.033 256.074 417.755 255.37 417.738 254.636C417.738 253.646 417.974 253.129 419.201 251.943L419.176 251.906C419.69 251.429 420.047 250.808 420.202 250.124C420.357 249.44 420.302 248.725 420.043 248.073C419.785 247.421 419.336 246.862 418.755 246.47C418.174 246.077 417.488 245.869 416.787 245.873C416.086 245.877 415.402 246.092 414.826 246.491C414.249 246.89 413.806 247.453 413.555 248.108C413.304 248.763 413.256 249.478 413.418 250.16C413.58 250.842 413.945 251.46 414.464 251.931L414.451 251.95C415.677 253.128 415.914 253.65 415.914 254.642C415.894 255.36 415.627 256.049 415.157 256.591C414.601 256.89 414.137 257.334 413.814 257.875C413.49 258.417 413.32 259.036 413.321 259.667V259.828C413.321 260.427 413.475 261.016 413.769 261.538C414.062 262.061 414.484 262.499 414.995 262.811C415.297 263.076 415.536 263.405 415.695 263.775C415.853 264.144 415.927 264.545 415.911 264.946C415.89 265.39 415.78 265.825 415.588 266.225C415.395 266.625 415.125 266.983 414.792 267.276Z" fill="white"/>
<path d="M425.393 247.013C427.339 247.013 428.916 245.435 428.916 243.49C428.916 241.544 427.339 239.966 425.393 239.966C423.447 239.966 421.87 241.544 421.87 243.49C421.87 245.435 423.447 247.013 425.393 247.013Z" fill="white"/>
<path d="M408.211 247.013C410.157 247.013 411.734 245.435 411.734 243.49C411.734 241.544 410.157 239.966 408.211 239.966C406.265 239.966 404.688 241.544 404.688 243.49C404.688 245.435 406.265 247.013 408.211 247.013Z" fill="white"/>
<path d="M401.064 267.285C400.73 266.99 400.459 266.631 400.268 266.228C400.076 265.826 399.968 265.389 399.95 264.944C399.95 263.953 400.187 263.437 401.414 262.251L401.389 262.214C401.903 261.737 402.261 261.116 402.415 260.432C402.57 259.748 402.515 259.033 402.257 258.381C401.999 257.729 401.55 257.17 400.969 256.778C400.388 256.385 399.702 256.177 399.001 256.181C398.3 256.185 397.616 256.4 397.039 256.799C396.462 257.198 396.019 257.761 395.768 258.416C395.517 259.071 395.47 259.786 395.632 260.468C395.794 261.15 396.158 261.768 396.677 262.239L396.664 262.258C397.891 263.436 398.128 263.958 398.128 264.951C398.11 265.396 398.001 265.834 397.809 266.237C397.616 266.639 397.343 266.998 397.007 267.292C396.551 267.613 396.18 268.04 395.923 268.535C395.666 269.03 395.532 269.579 395.532 270.137V270.186C395.533 270.792 395.691 271.387 395.989 271.914C396.288 272.441 396.717 272.882 397.235 273.195C397.754 273.507 398.344 273.681 398.949 273.699C399.555 273.718 400.155 273.579 400.691 273.298C401.227 273.017 401.682 272.602 402.011 272.094C402.341 271.586 402.534 271.002 402.571 270.397C402.609 269.793 402.49 269.189 402.227 268.644C401.963 268.098 401.563 267.63 401.066 267.285H401.064Z" fill="white"/>
<path d="M408.211 278.37C410.157 278.37 411.734 276.792 411.734 274.846C411.734 272.9 410.157 271.323 408.211 271.323C406.265 271.323 404.688 272.9 404.688 274.846C404.688 276.792 406.265 278.37 408.211 278.37Z" fill="white"/>
<path d="M425.437 278.37C427.383 278.37 428.961 276.792 428.961 274.846C428.961 272.9 427.383 271.323 425.437 271.323C423.491 271.323 421.914 272.9 421.914 274.846C421.914 276.792 423.491 278.37 425.437 278.37Z" fill="white"/>
</g>
<path opacity="0.488" d="M106.521 731.6L283.215 628.94L322.534 651.575L151.053 757.09L106.521 731.6Z" fill="url(#paint24_linear_205_8608)"/>
<path d="M282.935 609.811L323.196 632.699V651.733L282.935 628.849V609.811Z" fill="#23D29E"/>
<path d="M282.935 583.852L323.196 606.74V625.773L282.935 602.889V583.852Z" fill="#23D29E"/>
<path d="M282.935 557.026L323.196 579.914V598.947L282.935 576.063V557.026Z" fill="#23D29E"/>
<path d="M282.935 530.2L323.196 553.089V572.122L282.935 549.238V530.2Z" fill="#23D29E"/>
<path opacity="0.772" d="M282.935 609.811L323.196 632.699V651.733L282.935 628.849V609.811Z" fill="url(#paint25_linear_205_8608)"/>
<path opacity="0.772" d="M282.935 583.852L323.196 606.74V625.773L282.935 602.889V583.852Z" fill="url(#paint26_linear_205_8608)"/>
<path opacity="0.772" d="M282.935 557.026L323.196 579.914V598.947L282.935 576.063V557.026Z" fill="url(#paint27_linear_205_8608)"/>
<path opacity="0.772" d="M282.935 530.2L323.196 553.089V572.122L282.935 549.238V530.2Z" fill="url(#paint28_linear_205_8608)"/>
<path opacity="0.488" d="M106.521 731.6L283.215 628.94L322.534 651.575L151.053 757.09L106.521 731.6Z" fill="url(#paint29_linear_205_8608)"/>
<g filter="url(#filter3_d_205_8608)">
<path opacity="0.086" d="M380.694 425.474C380.94 425.727 404.662 442.472 414.955 441.894C419.133 441.663 422.684 441.182 429.814 437.326C447.236 427.901 464.398 417.67 472.769 413.242C477.64 414.954 477.346 414.772 477.346 414.772V473.063C477.346 473.063 573.555 417.068 533.943 438.741C494.317 460.413 574.923 418.233 574.923 418.233L576.541 357.12L571.957 355.437L609.362 333.258C609.362 333.258 621.251 327.831 621.519 320.701C621.786 313.571 605.897 305.554 605.897 305.554L429.814 203.134C429.814 203.134 416.939 193.447 401.185 203.134C352.019 231.408 240.623 294.804 221.544 305.71C197.023 319.727 218.147 331.868 218.147 331.868C218.147 331.868 380.33 425.111 380.694 425.474Z" stroke="#48FFF1" stroke-linecap="round"/>
</g>
<path d="M308.883 348.019L352.976 373.798L320.502 392.555L276.408 366.776L308.883 348.019Z" fill="url(#paint30_linear_205_8608)"/>
<path d="M326.584 392.556H320.5V469.57L326.584 465.583V392.556Z" fill="url(#paint31_linear_205_8608)"/>
<path d="M352.974 381.196V373.798L320.5 392.555V399.952L352.974 381.196Z" fill="url(#paint32_linear_205_8608)"/>
<path d="M276.408 366.775L320.499 392.556V469.57L276.408 443.79V366.775Z" fill="url(#paint33_linear_205_8608)"/>
<path d="M556.743 366.776L512.652 392.556V469.571L556.745 443.791L556.743 366.776Z" fill="url(#paint34_linear_205_8608)"/>
<path d="M524.269 348.019L480.178 373.799L512.652 392.555L556.745 366.776L524.269 348.019Z" fill="url(#paint35_linear_205_8608)"/>
<path d="M506.567 392.556H512.652V469.57L506.567 465.584V392.556Z" fill="url(#paint36_linear_205_8608)"/>
<path d="M480.178 381.196V373.799L512.652 392.555V399.953L480.178 381.196Z" fill="url(#paint37_linear_205_8608)"/>
<path d="M507.909 234.66L552.003 260.44L519.528 279.196L475.435 253.418L507.909 234.66Z" fill="url(#paint38_linear_205_8608)"/>
<path d="M475.851 260.915V253.518L520.01 278.64V286.037L475.851 260.915Z" fill="url(#paint39_linear_205_8608)"/>
<path d="M519.983 286.009V278.611L551.997 260.407V277.776L544.087 273.371L519.983 286.009Z" fill="url(#paint40_linear_205_8608)"/>
<path d="M320.915 234.66L276.824 260.44L309.298 279.196L353.391 253.417L320.915 234.66Z" fill="url(#paint41_linear_205_8608)"/>
<path d="M352.973 260.915V253.518L308.814 278.64V286.037L352.973 260.915Z" fill="url(#paint42_linear_205_8608)"/>
<path d="M308.841 286.009V278.611L276.828 260.407V280.039L286.691 273.812L308.841 286.009Z" fill="url(#paint43_linear_205_8608)"/>
<path opacity="0.21" d="M307.659 262.358L330.375 250.085L339.376 255.711L316.66 267.984L307.659 262.358Z" fill="url(#paint44_linear_205_8608)"/>
<path opacity="0.21" d="M498.032 369.659L520.748 357.386L529.749 363.012L507.033 375.285L498.032 369.659Z" fill="url(#paint45_linear_205_8608)"/>
<path opacity="0.21" d="M339.018 370.507L314.501 356.974L305.701 362.91L330.218 376.442L339.018 370.507Z" fill="url(#paint46_linear_205_8608)"/>
<path opacity="0.21" d="M523.334 264.071L498.817 250.538L490.017 256.474L514.534 270.006L523.334 264.071Z" fill="url(#paint47_linear_205_8608)"/>
<path d="M397.955 420.923L414.76 411.377C415.409 411.266 416.073 411.266 416.722 411.377L433.275 420.923C433.457 421.026 433.608 421.176 433.714 421.357C433.819 421.538 433.875 421.744 433.875 421.953C433.875 422.163 433.819 422.369 433.714 422.55C433.608 422.731 433.457 422.881 433.275 422.984L416.215 432.786C416.033 432.892 415.825 432.949 415.614 432.949C415.403 432.949 415.196 432.892 415.014 432.786L397.955 422.984C397.766 422.886 397.607 422.739 397.496 422.557C397.386 422.375 397.327 422.166 397.327 421.953C397.327 421.741 397.386 421.532 397.496 421.35C397.607 421.168 397.766 421.02 397.955 420.923Z" fill="url(#paint48_linear_205_8608)"/>
<path d="M397.955 420.923L414.532 411.385C414.872 411.209 415.25 411.116 415.633 411.116C416.016 411.116 416.394 411.209 416.734 411.385L433.275 420.923C433.457 421.026 433.608 421.176 433.714 421.357C433.819 421.538 433.875 421.744 433.875 421.953C433.875 422.163 433.819 422.369 433.714 422.55C433.608 422.731 433.457 422.881 433.275 422.984L416.215 432.786C416.033 432.892 415.825 432.949 415.614 432.949C415.403 432.949 415.196 432.892 415.014 432.786L397.955 422.984C397.766 422.886 397.607 422.739 397.496 422.557C397.386 422.375 397.327 422.166 397.327 421.953C397.327 421.741 397.386 421.532 397.496 421.35C397.607 421.168 397.766 421.02 397.955 420.923Z" fill="url(#paint49_linear_205_8608)"/>
<path opacity="0.399" d="M433.855 422.116C433.882 422.705 433.105 423.082 433.105 423.082C433.105 423.082 430.257 424.717 426.899 426.652C422.707 429.063 417.697 431.944 416.864 432.426C416.492 432.681 416.052 432.818 415.602 432.818C415.151 432.818 414.711 432.681 414.34 432.426L397.715 422.814C397.715 422.814 397.35 422.664 397.337 422.01" stroke="white" stroke-linecap="round" stroke-linejoin="round"/>
<path d="M402.517 421.213L415.139 414.177C415.274 414.098 415.427 414.057 415.583 414.057C415.739 414.057 415.893 414.098 416.027 414.177L428.649 421.213C428.784 421.289 428.897 421.4 428.975 421.534C429.053 421.668 429.094 421.821 429.094 421.976C429.094 422.131 429.053 422.283 428.975 422.417C428.897 422.551 428.784 422.662 428.649 422.739L416.027 429.992C415.893 430.071 415.739 430.113 415.583 430.113C415.427 430.113 415.274 430.071 415.139 429.992L402.517 422.739C402.377 422.666 402.26 422.557 402.178 422.422C402.096 422.288 402.053 422.133 402.053 421.976C402.053 421.818 402.096 421.664 402.178 421.529C402.26 421.395 402.377 421.285 402.517 421.213Z" fill="url(#paint50_linear_205_8608)"/>
<path d="M223.158 319.679L239.963 310.134C240.612 310.023 241.276 310.023 241.925 310.134L258.478 319.679C258.66 319.783 258.812 319.933 258.917 320.114C259.022 320.295 259.078 320.501 259.078 320.71C259.078 320.92 259.022 321.126 258.917 321.307C258.812 321.488 258.66 321.638 258.478 321.741L241.418 331.543C241.236 331.649 241.029 331.705 240.817 331.705C240.606 331.705 240.399 331.649 240.217 331.543L223.158 321.741C222.969 321.643 222.81 321.495 222.699 321.314C222.589 321.132 222.53 320.923 222.53 320.71C222.53 320.497 222.589 320.289 222.699 320.107C222.81 319.925 222.969 319.777 223.158 319.679Z" fill="url(#paint51_linear_205_8608)"/>
<path d="M223.158 319.679L239.735 310.142C240.075 309.965 240.453 309.873 240.836 309.873C241.219 309.873 241.597 309.965 241.937 310.142L258.478 319.679C258.66 319.783 258.812 319.933 258.917 320.114C259.022 320.295 259.078 320.501 259.078 320.71C259.078 320.92 259.022 321.125 258.917 321.307C258.812 321.488 258.66 321.638 258.478 321.741L241.418 331.543C241.236 331.649 241.029 331.705 240.817 331.705C240.606 331.705 240.399 331.649 240.217 331.543L223.158 321.741C222.969 321.643 222.81 321.495 222.699 321.314C222.589 321.132 222.53 320.923 222.53 320.71C222.53 320.497 222.589 320.289 222.699 320.107C222.81 319.925 222.969 319.777 223.158 319.679Z" fill="url(#paint52_linear_205_8608)"/>
<path opacity="0.399" d="M259.058 320.873C259.086 321.462 258.309 321.839 258.309 321.839C258.309 321.839 255.46 323.474 252.103 325.409C247.911 327.82 242.901 330.701 242.068 331.183C241.696 331.438 241.256 331.575 240.805 331.575C240.355 331.575 239.915 331.438 239.543 331.183L222.918 321.571C222.918 321.571 222.554 321.421 222.541 320.767" stroke="white" stroke-linecap="round" stroke-linejoin="round"/>
<path d="M227.72 319.97L240.342 312.934C240.477 312.855 240.63 312.814 240.787 312.814C240.943 312.814 241.096 312.855 241.231 312.934L253.853 319.97C253.988 320.046 254.1 320.157 254.178 320.291C254.256 320.425 254.298 320.578 254.298 320.733C254.298 320.888 254.256 321.04 254.178 321.174C254.1 321.308 253.988 321.419 253.853 321.495L241.231 328.749C241.096 328.828 240.943 328.869 240.787 328.869C240.63 328.869 240.477 328.828 240.342 328.749L227.72 321.495C227.58 321.423 227.463 321.314 227.381 321.179C227.3 321.044 227.256 320.89 227.256 320.733C227.256 320.575 227.3 320.421 227.381 320.286C227.463 320.152 227.58 320.042 227.72 319.97Z" fill="url(#paint53_linear_205_8608)"/>
<path d="M571.886 319.679L588.691 310.134C589.341 310.023 590.004 310.023 590.654 310.134L607.206 319.679C607.389 319.783 607.54 319.933 607.645 320.114C607.751 320.295 607.806 320.501 607.806 320.71C607.806 320.92 607.751 321.126 607.645 321.307C607.54 321.488 607.389 321.638 607.206 321.741L590.146 331.543C589.964 331.649 589.757 331.705 589.546 331.705C589.335 331.705 589.128 331.649 588.946 331.543L571.886 321.741C571.697 321.643 571.539 321.495 571.428 321.314C571.317 321.132 571.259 320.923 571.259 320.71C571.259 320.497 571.317 320.289 571.428 320.107C571.539 319.925 571.697 319.777 571.886 319.679Z" fill="url(#paint54_linear_205_8608)"/>
<path d="M571.886 319.679L588.463 310.142C588.804 309.965 589.181 309.873 589.564 309.873C589.948 309.873 590.325 309.965 590.666 310.142L607.206 319.679C607.389 319.783 607.54 319.933 607.645 320.114C607.751 320.295 607.806 320.501 607.806 320.71C607.806 320.92 607.751 321.125 607.645 321.307C607.54 321.488 607.389 321.638 607.206 321.741L590.146 331.543C589.964 331.649 589.757 331.705 589.546 331.705C589.335 331.705 589.128 331.649 588.946 331.543L571.886 321.741C571.697 321.643 571.539 321.495 571.428 321.314C571.317 321.132 571.259 320.923 571.259 320.71C571.259 320.497 571.317 320.289 571.428 320.107C571.539 319.925 571.697 319.777 571.886 319.679Z" fill="url(#paint55_linear_205_8608)"/>
<path opacity="0.399" d="M607.787 320.873C607.814 321.462 607.037 321.839 607.037 321.839C607.037 321.839 604.189 323.474 600.831 325.409C596.639 327.82 591.629 330.701 590.796 331.183C590.424 331.438 589.984 331.575 589.534 331.575C589.083 331.575 588.643 331.438 588.272 331.183L571.647 321.571C571.647 321.571 571.282 321.421 571.27 320.767" stroke="white" stroke-linecap="round" stroke-linejoin="round"/>
<path d="M576.449 319.97L589.071 312.934C589.206 312.855 589.359 312.814 589.515 312.814C589.671 312.814 589.825 312.855 589.959 312.934L602.582 319.97C602.717 320.046 602.829 320.157 602.907 320.291C602.985 320.425 603.026 320.578 603.026 320.733C603.026 320.888 602.985 321.04 602.907 321.174C602.829 321.308 602.717 321.419 602.582 321.495L589.959 328.749C589.825 328.828 589.671 328.869 589.515 328.869C589.359 328.869 589.206 328.828 589.071 328.749L576.449 321.495C576.309 321.423 576.192 321.314 576.11 321.179C576.028 321.044 575.985 320.89 575.985 320.733C575.985 320.575 576.028 320.421 576.11 320.286C576.192 320.152 576.309 320.042 576.449 319.97Z" fill="url(#paint56_linear_205_8608)"/>
<path d="M408.301 421.234L415.253 417.279C415.522 417.233 415.796 417.233 416.065 417.279L422.912 421.234C422.987 421.277 423.05 421.339 423.094 421.414C423.137 421.489 423.16 421.574 423.16 421.661C423.16 421.748 423.137 421.833 423.094 421.908C423.05 421.983 422.987 422.045 422.912 422.087L415.855 426.138C415.779 426.182 415.694 426.206 415.606 426.206C415.519 426.206 415.433 426.182 415.358 426.138L408.301 422.084C408.223 422.043 408.158 421.982 408.113 421.907C408.067 421.833 408.043 421.747 408.043 421.659C408.043 421.572 408.067 421.486 408.113 421.411C408.158 421.336 408.223 421.275 408.301 421.234Z" fill="url(#paint57_linear_205_8608)"/>
<path d="M408.301 421.231L415.159 417.285C415.299 417.212 415.456 417.174 415.614 417.174C415.773 417.174 415.929 417.212 416.07 417.285L422.912 421.231C422.987 421.274 423.05 421.336 423.094 421.411C423.137 421.486 423.16 421.571 423.16 421.658C423.16 421.744 423.137 421.829 423.094 421.904C423.05 421.979 422.987 422.041 422.912 422.084L415.855 426.138C415.779 426.182 415.694 426.206 415.606 426.206C415.519 426.206 415.433 426.182 415.358 426.138L408.301 422.083C408.222 422.043 408.157 421.982 408.111 421.907C408.065 421.831 408.041 421.745 408.041 421.657C408.041 421.569 408.065 421.483 408.111 421.408C408.157 421.332 408.222 421.271 408.301 421.231Z" fill="url(#paint58_linear_205_8608)"/>
<path opacity="0.399" d="M423.149 421.726C423.159 421.97 422.839 422.125 422.839 422.125C422.839 422.125 421.665 422.798 420.268 423.602C418.535 424.6 416.464 425.79 416.121 425.992C415.967 426.098 415.784 426.154 415.597 426.154C415.41 426.154 415.227 426.098 415.073 425.992L408.196 422.016C408.196 422.016 408.047 421.954 408.043 421.679" stroke="white" stroke-linecap="round" stroke-linejoin="round"/>
<path d="M410.186 421.351L415.411 418.441C415.467 418.408 415.531 418.391 415.595 418.391C415.66 418.391 415.723 418.408 415.779 418.441L421.002 421.351C421.058 421.383 421.105 421.429 421.137 421.484C421.169 421.54 421.186 421.603 421.186 421.667C421.186 421.731 421.169 421.794 421.137 421.849C421.105 421.905 421.058 421.951 421.002 421.982L415.779 424.983C415.723 425.016 415.66 425.033 415.595 425.033C415.531 425.033 415.467 425.016 415.411 424.983L410.186 421.982C410.128 421.952 410.079 421.907 410.045 421.852C410.012 421.796 409.994 421.732 409.994 421.667C409.994 421.602 410.012 421.538 410.045 421.482C410.079 421.426 410.128 421.381 410.186 421.351Z" fill="url(#paint59_linear_205_8608)"/>
<path d="M582.233 319.99L589.185 316.035C589.454 315.989 589.728 315.989 589.997 316.035L596.844 319.99C596.92 320.033 596.982 320.095 597.026 320.17C597.07 320.245 597.093 320.33 597.093 320.417C597.093 320.503 597.07 320.589 597.026 320.663C596.982 320.738 596.92 320.8 596.844 320.843L589.787 324.894C589.711 324.938 589.626 324.961 589.539 324.961C589.451 324.961 589.366 324.938 589.29 324.894L582.233 320.84C582.155 320.799 582.09 320.738 582.045 320.663C582 320.588 581.976 320.503 581.976 320.415C581.976 320.327 582 320.242 582.045 320.167C582.09 320.092 582.155 320.031 582.233 319.99Z" fill="url(#paint60_linear_205_8608)"/>
<path d="M582.233 319.987L589.091 316.041C589.232 315.968 589.388 315.93 589.546 315.93C589.705 315.93 589.861 315.968 590.002 316.041L596.844 319.987C596.92 320.03 596.982 320.092 597.026 320.167C597.07 320.241 597.093 320.327 597.093 320.413C597.093 320.5 597.07 320.585 597.026 320.66C596.982 320.735 596.92 320.797 596.844 320.84L589.787 324.894C589.711 324.938 589.626 324.962 589.538 324.962C589.451 324.962 589.366 324.938 589.29 324.894L582.233 320.839C582.155 320.799 582.089 320.738 582.043 320.662C581.997 320.587 581.973 320.501 581.973 320.413C581.973 320.325 581.997 320.239 582.043 320.163C582.089 320.088 582.155 320.027 582.233 319.987Z" fill="url(#paint61_linear_205_8608)"/>
<path opacity="0.399" d="M597.081 320.482C597.091 320.726 596.771 320.881 596.771 320.881C596.771 320.881 595.597 321.554 594.2 322.358C592.467 323.356 590.396 324.546 590.053 324.748C589.899 324.854 589.716 324.91 589.529 324.91C589.342 324.91 589.159 324.854 589.005 324.748L582.128 320.772C582.128 320.772 581.979 320.709 581.976 320.435" stroke="white" stroke-linecap="round" stroke-linejoin="round"/>
<path d="M584.118 320.107L589.344 317.196C589.399 317.164 589.463 317.146 589.527 317.146C589.592 317.146 589.656 317.164 589.711 317.196L594.934 320.107C594.99 320.139 595.037 320.185 595.069 320.24C595.101 320.295 595.118 320.358 595.118 320.423C595.118 320.487 595.101 320.55 595.069 320.605C595.037 320.661 594.99 320.707 594.934 320.738L589.711 323.739C589.656 323.772 589.592 323.789 589.527 323.789C589.463 323.789 589.399 323.772 589.344 323.739L584.118 320.738C584.06 320.708 584.012 320.663 583.978 320.607C583.944 320.552 583.926 320.488 583.926 320.423C583.926 320.357 583.944 320.294 583.978 320.238C584.012 320.182 584.06 320.137 584.118 320.107Z" fill="url(#paint62_linear_205_8608)"/>
<path d="M233.503 319.99L240.455 316.035C240.724 315.989 240.998 315.989 241.267 316.035L248.114 319.99C248.19 320.033 248.252 320.095 248.296 320.17C248.34 320.245 248.363 320.33 248.363 320.417C248.363 320.503 248.34 320.589 248.296 320.663C248.252 320.738 248.19 320.8 248.114 320.843L241.057 324.894C240.981 324.938 240.896 324.961 240.809 324.961C240.721 324.961 240.636 324.938 240.56 324.894L233.503 320.84C233.425 320.799 233.36 320.738 233.315 320.663C233.27 320.588 233.246 320.503 233.246 320.415C233.246 320.327 233.27 320.242 233.315 320.167C233.36 320.092 233.425 320.031 233.503 319.99Z" fill="url(#paint63_linear_205_8608)"/>
<path d="M233.503 319.987L240.361 316.041C240.502 315.968 240.658 315.93 240.817 315.93C240.975 315.93 241.131 315.968 241.272 316.041L248.114 319.987C248.19 320.03 248.252 320.092 248.296 320.167C248.34 320.241 248.363 320.327 248.363 320.413C248.363 320.5 248.34 320.585 248.296 320.66C248.252 320.735 248.19 320.797 248.114 320.84L241.057 324.894C240.981 324.938 240.896 324.962 240.809 324.962C240.721 324.962 240.636 324.938 240.56 324.894L233.503 320.839C233.425 320.799 233.359 320.738 233.313 320.662C233.267 320.587 233.243 320.501 233.243 320.413C233.243 320.325 233.267 320.239 233.313 320.163C233.359 320.088 233.425 320.027 233.503 319.987Z" fill="url(#paint64_linear_205_8608)"/>
<path opacity="0.399" d="M248.351 320.482C248.361 320.726 248.041 320.881 248.041 320.881C248.041 320.881 246.867 321.554 245.47 322.358C243.737 323.356 241.666 324.546 241.323 324.748C241.169 324.854 240.986 324.91 240.799 324.91C240.612 324.91 240.429 324.854 240.275 324.748L233.398 320.772C233.398 320.772 233.249 320.709 233.246 320.435" stroke="white" stroke-linecap="round" stroke-linejoin="round"/>
<path d="M235.388 320.107L240.614 317.196C240.669 317.164 240.733 317.146 240.797 317.146C240.862 317.146 240.926 317.164 240.981 317.196L246.204 320.107C246.26 320.139 246.307 320.185 246.339 320.24C246.371 320.295 246.388 320.358 246.388 320.423C246.388 320.487 246.371 320.55 246.339 320.605C246.307 320.661 246.26 320.707 246.204 320.738L240.981 323.739C240.926 323.772 240.862 323.789 240.797 323.789C240.733 323.789 240.669 323.772 240.614 323.739L235.388 320.738C235.33 320.708 235.282 320.663 235.248 320.607C235.214 320.552 235.196 320.488 235.196 320.423C235.196 320.357 235.214 320.294 235.248 320.238C235.282 320.182 235.33 320.137 235.388 320.107Z" fill="url(#paint65_linear_205_8608)"/>
<path d="M493.326 608.259L575.313 560.903C578.693 558.962 579.2 558.485 579.16 564.996V604.827C579.15 609.777 578.918 609.932 575.313 612.05L492.623 659.753C491.534 660.519 490.074 661.352 489.955 657.948V613.845C489.955 611.448 489.556 610.378 493.326 608.259Z" fill="url(#paint66_linear_205_8608)"/>
<path d="M492.768 608.849L553.873 573.558C556.392 572.111 556.769 571.756 556.741 576.608V606.293C556.733 609.982 556.561 610.097 553.873 611.678L492.247 647.227C491.435 647.799 490.348 648.418 490.259 645.881V613.014C490.259 611.227 489.962 610.429 492.768 608.849Z" fill="url(#paint67_linear_205_8608)"/>
<path d="M493.326 542.493L575.313 495.137C578.693 493.196 579.2 492.719 579.16 499.23V539.061C579.15 544.011 578.918 544.166 575.313 546.284L492.623 593.987C491.534 594.754 490.074 595.586 489.955 592.182V548.079C489.955 545.682 489.556 544.612 493.326 542.493Z" fill="url(#paint68_linear_205_8608)"/>
<path d="M492.768 543.083L553.873 507.792C556.392 506.345 556.769 505.99 556.741 510.842V540.527C556.733 544.216 556.561 544.331 553.873 545.912L492.247 581.462C491.435 582.033 490.348 582.652 490.259 580.115V547.248C490.259 545.461 489.962 544.663 492.768 543.083Z" fill="url(#paint69_linear_205_8608)"/>
<path d="M491.925 543.104L532.641 519.589C534.319 518.626 534.57 518.389 534.551 521.622V541.398C534.546 543.856 534.431 543.932 532.641 544.984L491.577 568.672C491.036 569.053 490.314 569.465 490.252 567.776V545.878C490.256 544.688 490.058 544.156 491.925 543.104Z" fill="url(#paint70_linear_205_8608)"/>
<path d="M491.925 608.87L532.641 585.355C534.319 584.391 534.57 584.154 534.551 587.387V607.163C534.546 609.621 534.431 609.698 532.641 610.749L491.577 634.437C491.036 634.818 490.314 635.231 490.252 633.541V611.643C490.256 610.453 490.058 609.921 491.925 608.87Z" fill="url(#paint71_linear_205_8608)"/>
<path d="M493.622 542.672L575.327 495.48C578.693 493.544 579.198 493.07 579.161 499.558V539.252C579.151 544.185 578.92 544.339 575.327 546.45L492.922 593.994C491.836 594.758 490.382 595.586 490.263 592.196V548.239C490.263 545.85 489.865 544.783 493.622 542.672Z" stroke="#312FB7"/>
<path d="M493.622 576.42L575.327 529.228C578.693 527.292 579.198 526.819 579.161 533.307V573.001C579.151 577.933 578.92 578.087 575.327 580.199L492.922 627.742C491.836 628.506 490.382 629.334 490.263 625.944V581.988C490.263 579.598 489.865 578.532 493.622 576.42Z" stroke="#2F3E4F"/>
<path d="M493.622 557.383L575.327 510.19C578.693 508.255 579.198 507.781 579.161 514.269V553.963C579.151 558.896 578.92 559.05 575.327 561.161L492.922 608.705C491.836 609.469 490.382 610.297 490.263 606.906V562.95C490.263 560.56 489.865 559.494 493.622 557.383Z" stroke="#2F3E4F"/>
<path d="M493.622 593.726L575.327 546.534C578.693 544.598 579.198 544.124 579.161 550.612V590.306C579.151 595.239 578.92 595.393 575.327 597.504L492.922 645.048C491.836 645.812 490.382 646.64 490.263 643.25V599.293C490.263 596.904 489.865 595.837 493.622 593.726Z" stroke="#2F3E4F"/>
<path d="M493.622 608.437L575.327 561.244C578.693 559.309 579.198 558.835 579.161 565.323V605.017C579.151 609.95 578.92 610.104 575.327 612.215L492.922 659.759C491.836 660.523 490.382 661.351 490.263 657.96V614.004C490.263 611.614 489.865 610.548 493.622 608.437Z" stroke="#21828F" stroke-width="2"/>
<path d="M493.622 542.672L575.327 495.48C578.693 493.544 579.198 493.07 579.161 499.558V539.252C579.151 544.185 578.92 544.339 575.327 546.45L492.922 593.994C491.836 594.758 490.382 595.586 490.263 592.196V548.239C490.263 545.85 489.865 544.783 493.622 542.672Z" stroke="#21828F" stroke-width="2"/>
<path opacity="0.69" d="M195.85 634.862C195.193 635.146 194.586 635.533 194.051 636.007C193.927 636.024 193.812 636.082 193.724 636.171L115.216 590.701C114.217 590.118 113.388 589.282 112.814 588.277C112.24 587.272 111.941 586.134 111.945 584.977C111.981 583.828 112.298 582.706 112.868 581.708C113.438 580.711 114.244 579.868 115.216 579.255L132.393 569.439C133.251 569.934 134.192 570.267 135.17 570.42L116.361 581.379C115.728 581.745 115.199 582.269 114.827 582.899C114.455 583.529 114.251 584.245 114.235 584.977C114.248 585.731 114.45 586.47 114.821 587.127C115.193 587.784 115.722 588.338 116.361 588.738L195.85 634.862Z" fill="#39FFEE"/>
<path opacity="0.69" d="M212.206 638.788C212.206 641.733 207.79 644.022 202.392 644.022C196.995 644.022 192.579 641.731 192.579 638.788C192.591 638.305 192.715 637.831 192.943 637.404C193.17 636.978 193.493 636.61 193.888 636.331L194.215 636.003C194.79 635.585 195.391 635.202 196.014 634.858C196.177 634.858 196.341 634.695 196.505 634.695C198.433 633.941 200.486 633.554 202.557 633.554C207.79 633.554 212.206 635.843 212.206 638.788Z" fill="#39FFEE"/>
<path opacity="0.69" d="M149.4 565.841C149.4 568.786 144.984 571.075 139.423 571.075C137.991 571.083 136.563 570.918 135.17 570.584C134.189 570.257 133.208 569.93 132.393 569.603C130.594 568.622 129.616 567.313 129.616 566.005C129.616 563.06 134.032 560.771 139.43 560.771C144.984 560.607 149.4 563.061 149.4 565.841Z" fill="#39FFEE"/>
<path opacity="0.643" d="M129.937 544.741V564.695C129.937 570.183 139.587 570.417 139.587 570.417C139.587 570.417 149.237 570.67 149.237 564.695V537.872" fill="url(#paint72_linear_205_8608)"/>
<path opacity="0.643" d="M192.58 617.852V637.805C192.58 643.667 202.393 643.367 202.393 643.367C202.393 643.367 212.043 643.558 212.043 637.805V610.982" fill="url(#paint73_linear_205_8608)"/>
<g opacity="0.266">
<path opacity="0.69" d="M195.85 611.301C195.193 611.585 194.586 611.971 194.051 612.446C193.927 612.463 193.812 612.52 193.724 612.609L115.216 567.14C114.217 566.556 113.388 565.72 112.814 564.716C112.24 563.711 111.941 562.573 111.945 561.415C111.981 560.267 112.298 559.144 112.868 558.147C113.438 557.149 114.244 556.307 115.216 555.693L132.393 545.877C133.251 546.372 134.192 546.705 135.17 546.859L116.361 557.817C115.728 558.184 115.199 558.708 114.827 559.338C114.455 559.968 114.251 560.683 114.235 561.415C114.248 562.17 114.45 562.909 114.821 563.566C115.193 564.223 115.722 564.776 116.361 565.177L195.85 611.301Z" fill="#39FFEE"/>
<path opacity="0.69" d="M212.206 615.226C212.206 618.171 207.79 620.46 202.392 620.46C196.995 620.46 192.579 618.17 192.579 615.226C192.591 614.743 192.715 614.269 192.943 613.843C193.17 613.416 193.493 613.049 193.888 612.769L194.215 612.442C194.79 612.023 195.391 611.641 196.014 611.296C196.177 611.296 196.341 611.133 196.505 611.133C198.433 610.379 200.486 609.992 202.557 609.992C207.79 609.992 212.206 612.282 212.206 615.226Z" fill="#39FFEE"/>
<path opacity="0.69" d="M149.4 542.279C149.4 545.225 144.984 547.513 139.423 547.513C137.991 547.521 136.563 547.357 135.17 547.023C134.189 546.695 133.208 546.369 132.393 546.042C130.594 545.06 129.616 543.752 129.616 542.443C129.616 539.498 134.032 537.209 139.43 537.209C144.984 537.045 149.4 539.499 149.4 542.279Z" fill="#39FFEE"/>
<path opacity="0.643" d="M129.937 521.18V541.134C129.937 546.621 139.587 546.856 139.587 546.856C139.587 546.856 149.237 547.109 149.237 541.134V514.31" fill="url(#paint74_linear_205_8608)"/>
<path opacity="0.643" d="M192.58 595.132V615.086C192.58 620.947 202.393 620.647 202.393 620.647C202.393 620.647 212.043 620.838 212.043 615.086V588.262" fill="url(#paint75_linear_205_8608)"/>
</g>
<path opacity="0.69" d="M470.766 731.347C470.766 731.347 469.205 732.967 474.066 733.282C474.242 733.282 641.958 635.636 726.704 590.167C728.823 589.022 730.238 587.427 730.238 584.973C730.183 583.798 729.83 582.656 729.211 581.655C728.593 580.654 727.73 579.827 726.704 579.251L708.166 569.439C707.23 569.937 706.215 570.269 705.165 570.42L725.469 581.379C726.137 581.72 726.701 582.234 727.105 582.866C727.508 583.499 727.736 584.227 727.764 584.977C727.764 586.449 726.882 587.218 725.469 588.036L470.766 731.347Z" fill="#39FFEE"/>
<path opacity="0.69" d="M622.007 640.471C622.007 643.416 626.774 645.705 632.6 645.705C638.427 645.705 643.194 643.415 643.194 640.471C643.175 639.977 643.036 639.496 642.791 639.068C642.545 638.64 642.198 638.278 641.782 638.013L641.428 637.686C640.804 637.266 640.156 636.884 639.486 636.541C639.309 636.541 639.133 636.378 638.957 636.378C636.862 635.621 634.651 635.235 632.423 635.237C626.774 635.237 622.007 637.526 622.007 640.471Z" fill="#39FFEE"/>
<path opacity="0.69" d="M689.804 565.841C689.804 568.786 694.571 571.075 700.575 571.075C702.118 571.083 703.658 570.918 705.165 570.584C706.224 570.257 707.284 569.93 708.166 569.603C710.109 568.622 711.168 567.313 711.168 566.005C711.168 563.06 706.401 560.771 700.575 560.771C694.571 560.607 689.804 563.061 689.804 565.841Z" fill="#39FFEE"/>
<path opacity="0.69" d="M455.394 736.399C455.394 739.344 460.161 741.633 465.987 741.633C471.814 741.633 476.581 739.343 476.581 736.399C476.562 735.906 476.424 735.424 476.178 734.996C475.932 734.568 475.586 734.207 475.169 733.942L474.815 733.615C474.191 733.194 473.543 732.812 472.873 732.469C472.697 732.469 472.52 732.306 472.344 732.306C470.249 731.55 468.038 731.163 465.811 731.165C460.161 731.165 455.394 733.455 455.394 736.399Z" fill="#39FFEE"/>
<path opacity="0.231" d="M455.394 708.63C455.394 711.575 460.161 713.864 465.987 713.864C471.814 713.864 476.581 711.575 476.581 708.63C476.562 708.137 476.424 707.656 476.178 707.228C475.932 706.8 475.586 706.438 475.169 706.173L474.815 705.846C474.191 705.426 473.543 705.043 472.873 704.701C472.697 704.701 472.52 704.537 472.344 704.537C470.249 703.781 468.038 703.395 465.811 703.396C460.161 703.396 455.394 705.686 455.394 708.63Z" fill="#39FFEE"/>
<path opacity="0.643" d="M710.813 544.741V564.695C710.813 570.183 700.397 570.417 700.397 570.417C700.397 570.417 689.98 570.674 689.98 564.695V537.872" fill="url(#paint76_linear_205_8608)"/>
<path opacity="0.643" d="M643.193 620.376V640.33C643.193 646.192 632.599 645.891 632.599 645.891C632.599 645.891 622.183 646.081 622.183 640.33V613.506" fill="url(#paint77_linear_205_8608)"/>
<g opacity="0.266">
<path opacity="0.69" d="M471.474 704.188C471.71 704.965 473.038 705.276 474.952 706.106C476.866 706.935 726.704 567.14 726.704 567.14C727.758 566.597 728.643 565.778 729.266 564.77C729.889 563.761 730.225 562.603 730.239 561.418C730.183 560.243 729.83 559.101 729.212 558.1C728.593 557.099 727.731 556.271 726.704 555.696L708.167 545.877C707.231 546.376 706.215 546.708 705.165 546.859L725.469 557.817C726.137 558.159 726.702 558.672 727.105 559.305C727.509 559.937 727.736 560.666 727.765 561.415C727.739 562.187 727.515 562.939 727.112 563.598C726.71 564.258 726.144 564.801 725.469 565.177L471.474 704.188Z" fill="#39FFEE"/>
<path opacity="0.69" d="M622.007 618.592C622.007 621.537 626.774 623.826 632.6 623.826C638.427 623.826 643.194 621.536 643.194 618.592C643.175 618.099 643.036 617.618 642.791 617.19C642.545 616.761 642.198 616.4 641.782 616.135L641.428 615.808C640.804 615.388 640.156 615.005 639.486 614.662C639.309 614.662 639.133 614.499 638.957 614.499C636.862 613.743 634.651 613.357 632.423 613.358C626.774 613.358 622.007 615.648 622.007 618.592Z" fill="#39FFEE"/>
<path opacity="0.69" d="M689.804 542.279C689.804 545.225 694.571 547.513 700.575 547.513C702.118 547.521 703.658 547.357 705.165 547.023C706.224 546.695 707.284 546.369 708.166 546.042C710.109 545.06 711.168 543.752 711.168 542.443C711.168 539.498 706.401 537.209 700.575 537.209C694.571 537.045 689.804 539.499 689.804 542.279Z" fill="#39FFEE"/>
<path opacity="0.643" d="M710.813 521.18V541.134C710.813 546.621 700.397 546.856 700.397 546.856C700.397 546.856 689.98 547.113 689.98 541.134V514.31" fill="url(#paint78_linear_205_8608)"/>
<path opacity="0.643" d="M643.193 597.656V617.61C643.193 623.472 632.599 623.171 632.599 623.171C632.599 623.171 622.183 623.362 622.183 617.61V590.786" fill="url(#paint79_linear_205_8608)"/>
</g>
<path opacity="0.643" d="M476.58 716.304V736.258C476.58 742.12 465.987 741.819 465.987 741.819C465.987 741.819 455.57 742.01 455.57 736.258V709.434" fill="url(#paint80_linear_205_8608)"/>
<path opacity="0.209" d="M476.58 688.535V708.489C476.58 714.351 465.987 714.051 465.987 714.051C465.987 714.051 455.57 714.241 455.57 708.489V681.666" fill="url(#paint81_linear_205_8608)"/>
<path opacity="0.69" d="M195.85 611.301C195.194 611.585 194.587 611.971 194.051 612.446C193.927 612.463 193.812 612.52 193.724 612.609L154.472 589.875L115.217 567.14C114.217 566.556 113.389 565.72 112.815 564.716C112.241 563.711 111.941 562.573 111.946 561.415C111.981 560.267 112.298 559.144 112.868 558.147C113.439 557.149 114.245 556.307 115.217 555.693L132.394 545.877C133.251 546.372 134.193 546.705 135.171 546.859L116.362 557.817C115.728 558.184 115.2 558.708 114.828 559.338C114.455 559.968 114.251 560.683 114.236 561.415C114.249 562.17 114.45 562.909 114.822 563.566C115.193 564.223 115.722 564.776 116.362 565.177L195.85 611.301Z" fill="#39FFEE"/>
<path opacity="0.69" d="M309.818 699.374C309.818 702.319 305.401 704.608 300.004 704.608C294.607 704.608 290.191 702.318 290.191 699.374C290.203 698.891 290.327 698.417 290.554 697.991C290.782 697.564 291.105 697.197 291.499 696.917L291.827 696.59C292.402 696.171 293.003 695.789 293.626 695.444C293.789 695.444 293.953 695.281 294.116 695.281C296.045 694.527 298.098 694.14 300.168 694.14C305.401 694.14 309.818 696.43 309.818 699.374Z" fill="#39FFEE"/>
<path opacity="0.69" d="M307.963 701.717C308.071 702.642 307.385 701.694 307.212 702.545C307.324 702.724 306.112 703.223 306.112 703.223L355.584 731.086L407.535 760.693C411.093 762.747 414.812 764.912 422.121 760.691C424.483 759.214 433.08 754.974 433.08 754.974L460.825 741.195C459.958 740.727 457.702 739.85 457.702 739.85L422.7 757.33C418.729 759.402 417.691 760.262 414.063 760.182C410.434 760.102 406.906 757.371 404.467 755.943L307.963 701.717Z" fill="#39FFEE"/>
<path opacity="0.643" d="M290.191 678.438V698.392C290.191 704.253 300.005 703.953 300.005 703.953C300.005 703.953 309.655 704.144 309.655 698.392V671.568" fill="url(#paint82_linear_205_8608)"/>
<path opacity="0.239" d="M309.592 674.938C309.701 675.862 309.412 675.15 309.24 676C309.352 676.179 308.129 677.047 308.129 677.047L407.535 732.083C411.092 734.136 414.811 736.301 422.12 732.08C424.483 730.604 433.079 726.363 433.079 726.363L460.824 712.585C459.958 712.116 457.701 711.239 457.701 711.239L422.699 728.72C418.729 730.791 417.69 731.651 414.062 731.571C410.434 731.491 406.905 728.761 404.467 727.333L309.592 674.938Z" fill="#39FFEE"/>
<path opacity="0.146" d="M309.818 674.129C309.818 677.074 305.402 679.363 300.005 679.363C294.607 679.363 290.191 677.072 290.191 674.129C290.203 673.646 290.328 673.172 290.555 672.745C290.782 672.319 291.106 671.951 291.5 671.672L291.827 671.344C292.403 670.926 293.004 670.543 293.626 670.199C293.79 670.199 293.954 670.036 294.117 670.036C296.045 669.282 298.098 668.895 300.169 668.895C305.402 668.895 309.818 671.184 309.818 674.129Z" fill="#39FFEE"/>
<path opacity="0.172" d="M290.191 654.035V673.989C290.191 679.851 300.005 679.55 300.005 679.55C300.005 679.55 309.655 679.741 309.655 673.989V647.165" fill="url(#paint83_linear_205_8608)"/>
<g filter="url(#filter4_f_205_8608)">
<path d="M546.498 206.894C598.59 206.894 640.819 173.576 640.819 132.475C640.819 91.375 598.59 58.0566 546.498 58.0566C494.406 58.0566 452.177 91.375 452.177 132.475C452.177 173.576 494.406 206.894 546.498 206.894Z" fill="#26DFCD" fill-opacity="0.6"/>
</g>
<defs>
<filter id="filter0_d_205_8608" x="324.176" y="257.022" width="183.306" height="125.463" filterUnits="userSpaceOnUse" color-interpolation-filters="sRGB">
<feFlood flood-opacity="0" result="BackgroundImageFix"/>
<feColorMatrix in="SourceAlpha" type="matrix" values="0 0 0 0 0 0 0 0 0 0 0 0 0 0 0 0 0 0 127 0" result="hardAlpha"/>
<feOffset dy="-1"/>
<feColorMatrix type="matrix" values="0 0 0 0 0 0 0 0 0 0 0 0 0 0 0 0 0 0 0.957 0"/>
<feBlend mode="normal" in2="BackgroundImageFix" result="effect1_dropShadow_205_8608"/>
<feBlend mode="normal" in="SourceGraphic" in2="effect1_dropShadow_205_8608" result="shape"/>
</filter>
<filter id="filter1_d_205_8608" x="348.965" y="273.153" width="135.467" height="88.0081" filterUnits="userSpaceOnUse" color-interpolation-filters="sRGB">
<feFlood flood-opacity="0" result="BackgroundImageFix"/>
<feColorMatrix in="SourceAlpha" type="matrix" values="0 0 0 0 0 0 0 0 0 0 0 0 0 0 0 0 0 0 127 0" result="hardAlpha"/>
<feOffset dy="-1"/>
<feColorMatrix type="matrix" values="0 0 0 0 0 0 0 0 0 0 0 0 0 0 0 0 0 0 0.957 0"/>
<feBlend mode="normal" in2="BackgroundImageFix" result="effect1_dropShadow_205_8608"/>
<feBlend mode="normal" in="SourceGraphic" in2="effect1_dropShadow_205_8608" result="shape"/>
</filter>
<filter id="filter2_d_205_8608" x="207.689" y="199.425" width="416.06" height="249.173" filterUnits="userSpaceOnUse" color-interpolation-filters="sRGB">
<feFlood flood-opacity="0" result="BackgroundImageFix"/>
<feColorMatrix in="SourceAlpha" type="matrix" values="0 0 0 0 0 0 0 0 0 0 0 0 0 0 0 0 0 0 127 0" result="hardAlpha"/>
<feOffset dy="2"/>
<feColorMatrix type="matrix" values="0 0 0 0 0 0 0 0 0 0 0 0 0 0 0 0 0 0 0.749 0"/>
<feBlend mode="normal" in2="BackgroundImageFix" result="effect1_dropShadow_205_8608"/>
<feBlend mode="normal" in="SourceGraphic" in2="effect1_dropShadow_205_8608" result="shape"/>
</filter>
<filter id="filter3_d_205_8608" x="209.189" y="198.329" width="412.833" height="277.604" filterUnits="userSpaceOnUse" color-interpolation-filters="sRGB">
<feFlood flood-opacity="0" result="BackgroundImageFix"/>
<feColorMatrix in="SourceAlpha" type="matrix" values="0 0 0 0 0 0 0 0 0 0 0 0 0 0 0 0 0 0 127 0" result="hardAlpha"/>
<feOffset dy="2"/>
<feColorMatrix type="matrix" values="0 0 0 0 0 0 0 0 0 0 0 0 0 0 0 0 0 0 0.749 0"/>
<feBlend mode="normal" in2="BackgroundImageFix" result="effect1_dropShadow_205_8608"/>
<feBlend mode="normal" in="SourceGraphic" in2="effect1_dropShadow_205_8608" result="shape"/>
</filter>
<filter id="filter4_f_205_8608" x="394.177" y="0.0566406" width="304.643" height="264.837" filterUnits="userSpaceOnUse" color-interpolation-filters="sRGB">
<feFlood flood-opacity="0" result="BackgroundImageFix"/>
<feBlend mode="normal" in="SourceGraphic" in2="BackgroundImageFix" result="shape"/>
<feGaussianBlur stdDeviation="29" result="effect1_foregroundBlur_205_8608"/>
</filter>
<radialGradient id="paint0_radial_205_8608" cx="0" cy="0" r="1" gradientUnits="userSpaceOnUse" gradientTransform="translate(40.0557 132.093) rotate(-87.2437) scale(1040.72 423.301)">
<stop stop-color="#00F2CD"/>
<stop offset="0.274" stop-color="#37364E"/>
<stop offset="0.946" stop-color="#262536"/>
<stop offset="1" stop-color="#222222"/>
</radialGradient>
<linearGradient id="paint1_linear_205_8608" x1="409.098" y1="1158.42" x2="411.465" y2="200.13" gradientUnits="userSpaceOnUse">
<stop stop-color="#BDA0FF"/>
<stop offset="0.244" stop-color="#37364E"/>
<stop offset="0.731" stop-color="#262536"/>
<stop offset="1" stop-color="#222222"/>
</linearGradient>
<radialGradient id="paint2_radial_205_8608" cx="0" cy="0" r="1" gradientUnits="userSpaceOnUse" gradientTransform="translate(-396.092 318.225) rotate(170.929) scale(524.983 586.624)">
<stop stop-color="#00F2CD"/>
<stop offset="0.274" stop-color="#37364E"/>
<stop offset="0.946" stop-color="#262536"/>
<stop offset="1" stop-color="#222222"/>
</radialGradient>
<linearGradient id="paint3_linear_205_8608" x1="662.539" y1="66.4829" x2="662.539" y2="557.3" gradientUnits="userSpaceOnUse">
<stop stop-color="#0BB5E3"/>
<stop offset="1" stop-color="#2AF698"/>
</linearGradient>
<linearGradient id="paint4_linear_205_8608" x1="680.81" y1="58" x2="680.81" y2="548.817" gradientUnits="userSpaceOnUse">
<stop stop-color="#0BB5E3"/>
<stop offset="1" stop-color="#2AF698"/>
</linearGradient>
<linearGradient id="paint5_linear_205_8608" x1="416.337" y1="221.744" x2="416.337" y2="731.037" gradientUnits="userSpaceOnUse">
<stop stop-color="#BDA0FF"/>
<stop offset="0.244" stop-color="#37364E"/>
<stop offset="0.731" stop-color="#262536"/>
<stop offset="1" stop-color="#222222"/>
</linearGradient>
<linearGradient id="paint6_linear_205_8608" x1="421.502" y1="869.417" x2="421.502" y2="422.312" gradientUnits="userSpaceOnUse">
<stop stop-color="#BDA0FF"/>
<stop offset="0.244" stop-color="#37364E"/>
<stop offset="0.731" stop-color="#262536"/>
<stop offset="1" stop-color="#222222"/>
</linearGradient>
<linearGradient id="paint7_linear_205_8608" x1="421.502" y1="734.424" x2="421.502" y2="287.32" gradientUnits="userSpaceOnUse">
<stop stop-color="#BDA0FF"/>
<stop offset="0.244" stop-color="#37364E"/>
<stop offset="0.731" stop-color="#262536"/>
<stop offset="1" stop-color="#222222"/>
</linearGradient>
<linearGradient id="paint8_linear_205_8608" x1="434.355" y1="641.662" x2="438.712" y2="192.19" gradientUnits="userSpaceOnUse">
<stop stop-color="#0BB5E3"/>
<stop offset="1" stop-color="#2AF698"/>
</linearGradient>
<linearGradient id="paint9_linear_205_8608" x1="435.193" y1="757.148" x2="438.877" y2="196.74" gradientUnits="userSpaceOnUse">
<stop stop-color="#BDA0FF"/>
<stop offset="0.244" stop-color="#37364E"/>
<stop offset="0.731" stop-color="#262536"/>
<stop offset="1" stop-color="#222222"/>
</linearGradient>
<linearGradient id="paint10_linear_205_8608" x1="421.502" y1="613.763" x2="421.502" y2="167.067" gradientUnits="userSpaceOnUse">
<stop stop-color="#BDA0FF"/>
<stop offset="0.244" stop-color="#37364E"/>
<stop offset="0.731" stop-color="#262536"/>
<stop offset="1" stop-color="#222222"/>
</linearGradient>
<linearGradient id="paint11_linear_205_8608" x1="933.201" y1="544.061" x2="-430.145" y2="541.396" gradientUnits="userSpaceOnUse">
<stop stop-color="#BDA0FF"/>
<stop offset="0.244" stop-color="#37364E"/>
<stop offset="0.397" stop-color="#262536"/>
<stop offset="1" stop-color="#222222"/>
</linearGradient>
<linearGradient id="paint12_linear_205_8608" x1="765.334" y1="539.114" x2="140.637" y2="570.382" gradientUnits="userSpaceOnUse">
<stop stop-color="#6AFFD8"/>
<stop offset="0.263" stop-color="#37364E"/>
<stop offset="0.559" stop-color="#262536"/>
<stop offset="1" stop-color="#222222"/>
</linearGradient>
<linearGradient id="paint13_linear_205_8608" x1="767.003" y1="378.286" x2="194.776" y2="387.392" gradientUnits="userSpaceOnUse">
<stop stop-color="#6AFFD8"/>
<stop offset="0.289" stop-color="#37364E"/>
<stop offset="0.654" stop-color="#262536"/>
<stop offset="1" stop-color="#222222"/>
</linearGradient>
<linearGradient id="paint14_linear_205_8608" x1="848.339" y1="241.935" x2="669.902" y2="545.983" gradientUnits="userSpaceOnUse">
<stop stop-color="#BDA0FF" stop-opacity="0"/>
<stop offset="0.384" stop-color="#1A12ED"/>
<stop offset="0.837" stop-color="#1B1786" stop-opacity="0"/>
<stop offset="1"/>
</linearGradient>
<linearGradient id="paint15_linear_205_8608" x1="479.368" y1="30.2676" x2="614.318" y2="337.285" gradientUnits="userSpaceOnUse">
<stop stop-color="#BDA0FF"/>
<stop offset="0.286" stop-color="#1A12ED"/>
<stop offset="0.837" stop-color="#1B1786" stop-opacity="0"/>
<stop offset="1"/>
</linearGradient>
<linearGradient id="paint16_linear_205_8608" x1="415.601" y1="235.287" x2="415.601" y2="209.842" gradientUnits="userSpaceOnUse">
<stop stop-color="#0BB5E3" stop-opacity="0.282"/>
<stop offset="1" stop-color="#2AF698"/>
</linearGradient>
<linearGradient id="paint17_linear_205_8608" x1="415.601" y1="209.885" x2="415.601" y2="233.922" gradientUnits="userSpaceOnUse">
<stop stop-color="#0BB5E3"/>
<stop offset="1" stop-color="#00FFC4"/>
</linearGradient>
<linearGradient id="paint18_linear_205_8608" x1="415.573" y1="230.139" x2="415.573" y2="213.361" gradientUnits="userSpaceOnUse">
<stop stop-color="#007FFF"/>
<stop offset="1" stop-color="#2AF698"/>
</linearGradient>
<linearGradient id="paint19_linear_205_8608" x1="415.602" y1="227.743" x2="415.602" y2="217.214" gradientUnits="userSpaceOnUse">
<stop stop-color="#0BB5E3" stop-opacity="0.282"/>
<stop offset="1" stop-color="#2AF698"/>
</linearGradient>
<linearGradient id="paint20_linear_205_8608" x1="415.601" y1="217.234" x2="415.601" y2="227.178" gradientUnits="userSpaceOnUse">
<stop stop-color="#0BB5E3"/>
<stop offset="1" stop-color="#00FFC4"/>
</linearGradient>
<linearGradient id="paint21_linear_205_8608" x1="415.59" y1="225.614" x2="415.59" y2="218.673" gradientUnits="userSpaceOnUse">
<stop stop-color="#007FFF"/>
<stop offset="1" stop-color="#2AF698"/>
</linearGradient>
<linearGradient id="paint22_linear_205_8608" x1="415.832" y1="290.831" x2="415.832" y2="337.559" gradientUnits="userSpaceOnUse">
<stop stop-color="#0BB5E3"/>
<stop offset="1" stop-color="#2AF698"/>
</linearGradient>
<linearGradient id="paint23_linear_205_8608" x1="417.003" y1="175.845" x2="315.21" y2="292.297" gradientUnits="userSpaceOnUse">
<stop stop-color="#0BB5E3" stop-opacity="0"/>
<stop offset="0.438" stop-color="#34BCBC" stop-opacity="0.4"/>
<stop offset="0.729" stop-color="#28DBF2" stop-opacity="0.376"/>
<stop offset="1" stop-color="#2AE6F6" stop-opacity="0.404"/>
</linearGradient>
<linearGradient id="paint24_linear_205_8608" x1="230.081" y1="608.436" x2="202.752" y2="742.918" gradientUnits="userSpaceOnUse">
<stop stop-color="#0BB5E3"/>
<stop offset="0.298" stop-color="#23E8A8"/>
<stop offset="1" stop-color="#2AF698" stop-opacity="0"/>
</linearGradient>
<linearGradient id="paint25_linear_205_8608" x1="303.065" y1="609.811" x2="303.065" y2="651.733" gradientUnits="userSpaceOnUse">
<stop stop-color="#24D8B5"/>
<stop offset="1" stop-color="#43BEFF"/>
</linearGradient>
<linearGradient id="paint26_linear_205_8608" x1="303.065" y1="583.852" x2="303.065" y2="625.773" gradientUnits="userSpaceOnUse">
<stop stop-color="#24D8B5"/>
<stop offset="1" stop-color="#43BEFF"/>
</linearGradient>
<linearGradient id="paint27_linear_205_8608" x1="303.065" y1="557.026" x2="303.065" y2="598.947" gradientUnits="userSpaceOnUse">
<stop stop-color="#24D8B5"/>
<stop offset="1" stop-color="#43BEFF"/>
</linearGradient>
<linearGradient id="paint28_linear_205_8608" x1="303.065" y1="530.2" x2="303.065" y2="572.122" gradientUnits="userSpaceOnUse">
<stop stop-color="#24D8B5"/>
<stop offset="1" stop-color="#43BEFF"/>
</linearGradient>
<linearGradient id="paint29_linear_205_8608" x1="230.081" y1="608.436" x2="202.752" y2="742.918" gradientUnits="userSpaceOnUse">
<stop stop-color="#0BB5E3"/>
<stop offset="0.298" stop-color="#23E8A8"/>
<stop offset="1" stop-color="#2AF698" stop-opacity="0"/>
</linearGradient>
<linearGradient id="paint30_linear_205_8608" x1="190.04" y1="262.955" x2="312.254" y2="571.307" gradientUnits="userSpaceOnUse">
<stop stop-color="#BDA0FF"/>
<stop offset="0.331" stop-color="#37364E"/>
<stop offset="0.451" stop-color="#3F3C59"/>
<stop offset="1" stop-color="#222222"/>
</linearGradient>
<linearGradient id="paint31_linear_205_8608" x1="346.554" y1="325.63" x2="317.965" y2="326.746" gradientUnits="userSpaceOnUse">
<stop stop-color="#BDA0FF"/>
<stop offset="0.244" stop-color="#37364E"/>
<stop offset="0.355" stop-color="#262536"/>
<stop offset="1" stop-color="#222222"/>
</linearGradient>
<linearGradient id="paint32_linear_205_8608" x1="459.554" y1="351.071" x2="348.541" y2="419.189" gradientUnits="userSpaceOnUse">
<stop stop-color="#BDA0FF"/>
<stop offset="0.244" stop-color="#37364E"/>
<stop offset="0.355" stop-color="#262536"/>
<stop offset="1" stop-color="#222222"/>
</linearGradient>
<linearGradient id="paint33_linear_205_8608" x1="276.408" y1="335.937" x2="383.054" y2="475.682" gradientUnits="userSpaceOnUse">
<stop stop-color="#BDA0FF"/>
<stop offset="0.151" stop-color="#37364E"/>
<stop offset="0.731" stop-color="#262536"/>
<stop offset="1" stop-color="#222222"/>
</linearGradient>
<linearGradient id="paint34_linear_205_8608" x1="512.652" y1="335.937" x2="619.296" y2="475.688" gradientUnits="userSpaceOnUse">
<stop stop-color="#BDA0FF"/>
<stop offset="0.151" stop-color="#37364E"/>
<stop offset="0.731" stop-color="#262536"/>
<stop offset="1" stop-color="#222222"/>
</linearGradient>
<linearGradient id="paint35_linear_205_8608" x1="393.809" y1="262.955" x2="516.024" y2="571.308" gradientUnits="userSpaceOnUse">
<stop stop-color="#BDA0FF"/>
<stop offset="0.331" stop-color="#37364E"/>
<stop offset="0.451" stop-color="#3F3C59"/>
<stop offset="1" stop-color="#222222"/>
</linearGradient>
<linearGradient id="paint36_linear_205_8608" x1="532.622" y1="325.63" x2="504.033" y2="326.746" gradientUnits="userSpaceOnUse">
<stop stop-color="#BDA0FF"/>
<stop offset="0.244" stop-color="#37364E"/>
<stop offset="0.355" stop-color="#262536"/>
<stop offset="1" stop-color="#222222"/>
</linearGradient>
<linearGradient id="paint37_linear_205_8608" x1="619.233" y1="351.071" x2="508.219" y2="419.19" gradientUnits="userSpaceOnUse">
<stop stop-color="#BDA0FF"/>
<stop offset="0.244" stop-color="#37364E"/>
<stop offset="0.355" stop-color="#262536"/>
<stop offset="1" stop-color="#222222"/>
</linearGradient>
<linearGradient id="paint38_linear_205_8608" x1="389.067" y1="149.596" x2="511.281" y2="457.949" gradientUnits="userSpaceOnUse">
<stop stop-color="#BDA0FF"/>
<stop offset="0.331" stop-color="#37364E"/>
<stop offset="0.451" stop-color="#3F3C59"/>
<stop offset="1" stop-color="#222222"/>
</linearGradient>
<linearGradient id="paint39_linear_205_8608" x1="664.94" y1="225.258" x2="521.664" y2="321.405" gradientUnits="userSpaceOnUse">
<stop stop-color="#BDA0FF"/>
<stop offset="0.244" stop-color="#37364E"/>
<stop offset="0.355" stop-color="#262536"/>
<stop offset="1" stop-color="#222222"/>
</linearGradient>
<linearGradient id="paint40_linear_205_8608" x1="657.064" y1="238.159" x2="548.049" y2="305.523" gradientUnits="userSpaceOnUse">
<stop stop-color="#BDA0FF"/>
<stop offset="0.244" stop-color="#37364E"/>
<stop offset="0.355" stop-color="#262536"/>
<stop offset="1" stop-color="#222222"/>
</linearGradient>
<linearGradient id="paint41_linear_205_8608" x1="190.455" y1="149.596" x2="312.67" y2="457.949" gradientUnits="userSpaceOnUse">
<stop stop-color="#BDA0FF"/>
<stop offset="0.331" stop-color="#37364E"/>
<stop offset="0.451" stop-color="#3F3C59"/>
<stop offset="1" stop-color="#222222"/>
</linearGradient>
<linearGradient id="paint42_linear_205_8608" x1="497.903" y1="225.258" x2="354.627" y2="321.405" gradientUnits="userSpaceOnUse">
<stop stop-color="#BDA0FF"/>
<stop offset="0.244" stop-color="#37364E"/>
<stop offset="0.355" stop-color="#262536"/>
<stop offset="1" stop-color="#222222"/>
</linearGradient>
<linearGradient id="paint43_linear_205_8608" x1="413.908" y1="238.159" x2="304.893" y2="305.523" gradientUnits="userSpaceOnUse">
<stop stop-color="#BDA0FF"/>
<stop offset="0.244" stop-color="#37364E"/>
<stop offset="0.355" stop-color="#262536"/>
<stop offset="1" stop-color="#222222"/>
</linearGradient>
<linearGradient id="paint44_linear_205_8608" x1="313.607" y1="252.841" x2="333.427" y2="265.228" gradientUnits="userSpaceOnUse">
<stop stop-color="#24D8B5"/>
<stop offset="1" stop-color="#43BEFF"/>
</linearGradient>
<linearGradient id="paint45_linear_205_8608" x1="503.981" y1="360.142" x2="523.801" y2="372.529" gradientUnits="userSpaceOnUse">
<stop stop-color="#24D8B5"/>
<stop offset="1" stop-color="#43BEFF"/>
</linearGradient>
<linearGradient id="paint46_linear_205_8608" x1="332.048" y1="360.173" x2="312.671" y2="373.243" gradientUnits="userSpaceOnUse">
<stop stop-color="#24D8B5"/>
<stop offset="1" stop-color="#43BEFF"/>
</linearGradient>
<linearGradient id="paint47_linear_205_8608" x1="516.364" y1="253.737" x2="496.987" y2="266.807" gradientUnits="userSpaceOnUse">
<stop stop-color="#24D8B5"/>
<stop offset="1" stop-color="#43BEFF"/>
</linearGradient>
<linearGradient id="paint48_linear_205_8608" x1="415.601" y1="434.313" x2="415.601" y2="408.869" gradientUnits="userSpaceOnUse">
<stop stop-color="#0BB5E3" stop-opacity="0.282"/>
<stop offset="1" stop-color="#2AF698"/>
</linearGradient>
<linearGradient id="paint49_linear_205_8608" x1="415.601" y1="408.911" x2="415.601" y2="432.949" gradientUnits="userSpaceOnUse">
<stop stop-color="#0BB5E3"/>
<stop offset="1" stop-color="#00FFC4"/>
</linearGradient>
<linearGradient id="paint50_linear_205_8608" x1="415.573" y1="429.165" x2="415.573" y2="412.387" gradientUnits="userSpaceOnUse">
<stop stop-color="#007FFF"/>
<stop offset="1" stop-color="#2AF698"/>
</linearGradient>
<linearGradient id="paint51_linear_205_8608" x1="240.804" y1="333.07" x2="240.804" y2="307.625" gradientUnits="userSpaceOnUse">
<stop stop-color="#0BB5E3" stop-opacity="0.282"/>
<stop offset="1" stop-color="#2AF698"/>
</linearGradient>
<linearGradient id="paint52_linear_205_8608" x1="240.804" y1="307.668" x2="240.804" y2="331.705" gradientUnits="userSpaceOnUse">
<stop stop-color="#0BB5E3"/>
<stop offset="1" stop-color="#00FFC4"/>
</linearGradient>
<linearGradient id="paint53_linear_205_8608" x1="240.777" y1="327.922" x2="240.777" y2="311.144" gradientUnits="userSpaceOnUse">
<stop stop-color="#007FFF"/>
<stop offset="1" stop-color="#2AF698"/>
</linearGradient>
<linearGradient id="paint54_linear_205_8608" x1="589.533" y1="333.07" x2="589.533" y2="307.625" gradientUnits="userSpaceOnUse">
<stop stop-color="#0BB5E3" stop-opacity="0.282"/>
<stop offset="1" stop-color="#2AF698"/>
</linearGradient>
<linearGradient id="paint55_linear_205_8608" x1="589.533" y1="307.668" x2="589.533" y2="331.705" gradientUnits="userSpaceOnUse">
<stop stop-color="#0BB5E3"/>
<stop offset="1" stop-color="#00FFC4"/>
</linearGradient>
<linearGradient id="paint56_linear_205_8608" x1="589.505" y1="327.922" x2="589.505" y2="311.144" gradientUnits="userSpaceOnUse">
<stop stop-color="#007FFF"/>
<stop offset="1" stop-color="#2AF698"/>
</linearGradient>
<linearGradient id="paint57_linear_205_8608" x1="415.602" y1="426.77" x2="415.602" y2="416.241" gradientUnits="userSpaceOnUse">
<stop stop-color="#0BB5E3" stop-opacity="0.282"/>
<stop offset="1" stop-color="#2AF698"/>
</linearGradient>
<linearGradient id="paint58_linear_205_8608" x1="415.601" y1="416.262" x2="415.601" y2="426.206" gradientUnits="userSpaceOnUse">
<stop stop-color="#0BB5E3"/>
<stop offset="1" stop-color="#00FFC4"/>
</linearGradient>
<linearGradient id="paint59_linear_205_8608" x1="415.59" y1="424.641" x2="415.59" y2="417.7" gradientUnits="userSpaceOnUse">
<stop stop-color="#007FFF"/>
<stop offset="1" stop-color="#2AF698"/>
</linearGradient>
<linearGradient id="paint60_linear_205_8608" x1="589.534" y1="325.526" x2="589.534" y2="314.997" gradientUnits="userSpaceOnUse">
<stop stop-color="#0BB5E3" stop-opacity="0.282"/>
<stop offset="1" stop-color="#2AF698"/>
</linearGradient>
<linearGradient id="paint61_linear_205_8608" x1="589.533" y1="315.017" x2="589.533" y2="324.962" gradientUnits="userSpaceOnUse">
<stop stop-color="#0BB5E3"/>
<stop offset="1" stop-color="#00FFC4"/>
</linearGradient>
<linearGradient id="paint62_linear_205_8608" x1="589.522" y1="323.397" x2="589.522" y2="316.456" gradientUnits="userSpaceOnUse">
<stop stop-color="#007FFF"/>
<stop offset="1" stop-color="#2AF698"/>
</linearGradient>
<linearGradient id="paint63_linear_205_8608" x1="240.804" y1="325.526" x2="240.804" y2="314.997" gradientUnits="userSpaceOnUse">
<stop stop-color="#0BB5E3" stop-opacity="0.282"/>
<stop offset="1" stop-color="#2AF698"/>
</linearGradient>
<linearGradient id="paint64_linear_205_8608" x1="240.803" y1="315.017" x2="240.803" y2="324.962" gradientUnits="userSpaceOnUse">
<stop stop-color="#0BB5E3"/>
<stop offset="1" stop-color="#00FFC4"/>
</linearGradient>
<linearGradient id="paint65_linear_205_8608" x1="240.792" y1="323.397" x2="240.792" y2="316.456" gradientUnits="userSpaceOnUse">
<stop stop-color="#007FFF"/>
<stop offset="1" stop-color="#2AF698"/>
</linearGradient>
<linearGradient id="paint66_linear_205_8608" x1="535.891" y1="728.281" x2="535.891" y2="546.32" gradientUnits="userSpaceOnUse">
<stop stop-color="#BDA0FF"/>
<stop offset="0.244" stop-color="#37364E"/>
<stop offset="0.731" stop-color="#262536"/>
<stop offset="1" stop-color="#222222"/>
</linearGradient>
<linearGradient id="paint67_linear_205_8608" x1="381.203" y1="721.664" x2="541.551" y2="582.318" gradientUnits="userSpaceOnUse">
<stop stop-color="#BDA0FF"/>
<stop offset="0.244" stop-color="#37364E"/>
<stop offset="0.731" stop-color="#262536"/>
<stop offset="1" stop-color="#222222"/>
</linearGradient>
<linearGradient id="paint68_linear_205_8608" x1="535.891" y1="662.515" x2="535.891" y2="480.555" gradientUnits="userSpaceOnUse">
<stop stop-color="#BDA0FF"/>
<stop offset="0.244" stop-color="#37364E"/>
<stop offset="0.731" stop-color="#262536"/>
<stop offset="1" stop-color="#222222"/>
</linearGradient>
<linearGradient id="paint69_linear_205_8608" x1="381.203" y1="655.898" x2="541.551" y2="516.552" gradientUnits="userSpaceOnUse">
<stop stop-color="#BDA0FF"/>
<stop offset="0.244" stop-color="#37364E"/>
<stop offset="0.731" stop-color="#262536"/>
<stop offset="1" stop-color="#222222"/>
</linearGradient>
<linearGradient id="paint70_linear_205_8608" x1="311.125" y1="688.744" x2="530.87" y2="538.369" gradientUnits="userSpaceOnUse">
<stop stop-color="#BDA0FF"/>
<stop offset="0.244" stop-color="#37364E"/>
<stop offset="0.731" stop-color="#262536"/>
<stop offset="1" stop-color="#222222"/>
</linearGradient>
<linearGradient id="paint71_linear_205_8608" x1="311.125" y1="754.509" x2="530.87" y2="604.134" gradientUnits="userSpaceOnUse">
<stop stop-color="#BDA0FF"/>
<stop offset="0.244" stop-color="#37364E"/>
<stop offset="0.731" stop-color="#262536"/>
<stop offset="1" stop-color="#222222"/>
</linearGradient>
<linearGradient id="paint72_linear_205_8608" x1="139.587" y1="549.947" x2="139.587" y2="565.797" gradientUnits="userSpaceOnUse">
<stop stop-color="#0BB5E3" stop-opacity="0"/>
<stop offset="1" stop-color="#2AF698"/>
</linearGradient>
<linearGradient id="paint73_linear_205_8608" x1="202.311" y1="619.273" x2="202.311" y2="635.694" gradientUnits="userSpaceOnUse">
<stop stop-color="#0BB5E3" stop-opacity="0"/>
<stop offset="1" stop-color="#2AF698"/>
</linearGradient>
<linearGradient id="paint74_linear_205_8608" x1="139.587" y1="526.385" x2="139.587" y2="542.236" gradientUnits="userSpaceOnUse">
<stop stop-color="#0BB5E3" stop-opacity="0"/>
<stop offset="1" stop-color="#2AF698"/>
</linearGradient>
<linearGradient id="paint75_linear_205_8608" x1="202.311" y1="596.553" x2="202.311" y2="612.974" gradientUnits="userSpaceOnUse">
<stop stop-color="#0BB5E3" stop-opacity="0"/>
<stop offset="1" stop-color="#2AF698"/>
</linearGradient>
<linearGradient id="paint76_linear_205_8608" x1="700.397" y1="549.947" x2="700.397" y2="565.797" gradientUnits="userSpaceOnUse">
<stop stop-color="#0BB5E3" stop-opacity="0"/>
<stop offset="1" stop-color="#2AF698"/>
</linearGradient>
<linearGradient id="paint77_linear_205_8608" x1="632.688" y1="621.797" x2="632.688" y2="638.218" gradientUnits="userSpaceOnUse">
<stop stop-color="#0BB5E3" stop-opacity="0"/>
<stop offset="1" stop-color="#2AF698"/>
</linearGradient>
<linearGradient id="paint78_linear_205_8608" x1="700.397" y1="526.385" x2="700.397" y2="542.236" gradientUnits="userSpaceOnUse">
<stop stop-color="#0BB5E3" stop-opacity="0"/>
<stop offset="1" stop-color="#2AF698"/>
</linearGradient>
<linearGradient id="paint79_linear_205_8608" x1="632.688" y1="599.078" x2="632.688" y2="615.498" gradientUnits="userSpaceOnUse">
<stop stop-color="#0BB5E3" stop-opacity="0"/>
<stop offset="1" stop-color="#2AF698"/>
</linearGradient>
<linearGradient id="paint80_linear_205_8608" x1="466.075" y1="717.726" x2="466.075" y2="734.146" gradientUnits="userSpaceOnUse">
<stop stop-color="#0BB5E3" stop-opacity="0"/>
<stop offset="1" stop-color="#2AF698"/>
</linearGradient>
<linearGradient id="paint81_linear_205_8608" x1="466.075" y1="689.957" x2="466.075" y2="706.377" gradientUnits="userSpaceOnUse">
<stop stop-color="#0BB5E3" stop-opacity="0"/>
<stop offset="1" stop-color="#2AF698"/>
</linearGradient>
<linearGradient id="paint82_linear_205_8608" x1="299.923" y1="679.859" x2="299.923" y2="696.28" gradientUnits="userSpaceOnUse">
<stop stop-color="#0BB5E3" stop-opacity="0"/>
<stop offset="1" stop-color="#2AF698"/>
</linearGradient>
<linearGradient id="paint83_linear_205_8608" x1="299.923" y1="655.456" x2="299.923" y2="671.877" gradientUnits="userSpaceOnUse">
<stop stop-color="#0BB5E3" stop-opacity="0"/>
<stop offset="1" stop-color="#2AF698"/>
</linearGradient>
</defs>
</svg>
