<svg width="418" height="980" viewBox="0 0 418 980" fill="none" xmlns="http://www.w3.org/2000/svg">
<path d="M208.952 297.747C282.101 297.747 341.4 238.448 341.4 165.299C341.4 92.1496 282.101 32.8506 208.952 32.8506C135.803 32.8506 76.5039 92.1496 76.5039 165.299C76.5039 238.448 135.803 297.747 208.952 297.747Z" fill="url(#paint0_radial_205_8081)"/>
<path opacity="0.747" d="M283.589 182.124C306.463 182.124 325.006 163.581 325.006 140.707C325.006 117.833 306.463 99.2903 283.589 99.2903C260.715 99.2903 242.172 117.833 242.172 140.707C242.172 163.581 260.715 182.124 283.589 182.124Z" fill="url(#paint1_linear_205_8081)"/>
<mask id="mask0_205_8081" style="mask-type:luminance" maskUnits="userSpaceOnUse" x="76" y="32" width="266" height="266">
<path d="M208.952 297.747C282.101 297.747 341.4 238.448 341.4 165.299C341.4 92.1496 282.101 32.8506 208.952 32.8506C135.803 32.8506 76.5039 92.1496 76.5039 165.299C76.5039 238.448 135.803 297.747 208.952 297.747Z" fill="white"/>
</mask>
<g mask="url(#mask0_205_8081)">
<path d="M247.78 290.844C290.431 290.844 325.006 256.269 325.006 213.619C325.006 170.968 290.431 136.393 247.78 136.393C205.13 136.393 170.555 170.968 170.555 213.619C170.555 256.269 205.13 290.844 247.78 290.844Z" fill="url(#paint2_linear_205_8081)"/>
</g>
<path opacity="0.396" d="M296.532 216.639C312.258 216.639 325.006 203.89 325.006 188.164C325.006 172.439 312.258 159.69 296.532 159.69C280.806 159.69 268.058 172.439 268.058 188.164C268.058 203.89 280.806 216.639 296.532 216.639Z" fill="url(#paint3_linear_205_8081)"/>
<path opacity="0.747" d="M237.858 247.701C252.154 247.701 263.743 236.112 263.743 221.816C263.743 207.519 252.154 195.93 237.858 195.93C223.562 195.93 211.972 207.519 211.972 221.816C211.972 236.112 223.562 247.701 237.858 247.701Z" fill="url(#paint4_linear_205_8081)"/>
<path opacity="0.747" d="M252.526 250.29C263.01 250.29 271.509 241.791 271.509 231.307C271.509 220.823 263.01 212.324 252.526 212.324C242.042 212.324 233.543 220.823 233.543 231.307C233.543 241.791 242.042 250.29 252.526 250.29Z" fill="url(#paint5_linear_205_8081)"/>
<path opacity="0.412" d="M180.047 185.576C215.787 185.576 244.761 158.341 244.761 124.745C244.761 91.1484 215.787 63.9133 180.047 63.9133C144.306 63.9133 115.333 91.1484 115.333 124.745C115.333 158.341 144.306 185.576 180.047 185.576Z" fill="url(#paint6_linear_205_8081)"/>
<path opacity="0.453" d="M135.61 196.793C145.379 196.793 153.298 188.873 153.298 179.104C153.298 169.335 145.379 161.416 135.61 161.416C125.841 161.416 117.921 169.335 117.921 179.104C117.921 188.873 125.841 196.793 135.61 196.793Z" fill="url(#paint7_linear_205_8081)"/>
<path opacity="0.453" d="M167.535 226.993C177.304 226.993 185.224 219.073 185.224 209.304C185.224 199.535 177.304 191.616 167.535 191.616C157.766 191.616 149.847 199.535 149.847 209.304C149.847 219.073 157.766 226.993 167.535 226.993Z" fill="url(#paint8_linear_205_8081)"/>
<path opacity="0.453" d="M130.001 225.267C135.72 225.267 140.355 220.631 140.355 214.913C140.355 209.194 135.72 204.559 130.001 204.559C124.283 204.559 119.647 209.194 119.647 214.913C119.647 220.631 124.283 225.267 130.001 225.267Z" fill="url(#paint9_linear_205_8081)"/>
<path d="M128.481 60.1168C118.776 67.6116 120.009 68.439 123.558 68.1612C127.107 67.8834 134.854 65.1938 135.537 63.8806C136.219 62.5673 137.582 68.1612 137.582 68.1612L141.091 70.9819C141.091 70.9819 144.867 83.7055 139.797 86.106C134.727 88.5064 136.699 92.4652 136.699 92.4652C136.699 92.4652 141.405 92.5696 141.089 96.0279C140.773 99.4863 139.794 105.347 139.794 105.347C139.794 105.347 137.231 102.003 137.577 100.687C137.922 99.3715 134.261 109.673 132.4 111.243C130.538 112.812 125.658 131.506 125.658 131.506L128.738 142.809L132.399 146.703L134.35 160.02L136.7 162.614L134.35 164.866C134.35 164.866 143.219 181.605 143.833 182.285C144.448 182.965 149.228 187.344 148.952 186.168C148.676 184.992 139.799 162.612 139.799 162.612L138.824 155.355L136.7 152.107H141.09V160.018L148.952 172.223L150.363 171.309V176.487L157.678 186.169L159.452 189.189L157.678 190.144V195.559L163.824 201.465L185.279 212.192H188.623L193.78 213.135L196.101 217.23L202.713 220.854L208.969 224.798L211.052 230.499L215.035 231.717L224.905 234.184L225.898 237.11H229.953L228.295 234.184L231.708 231.717L234.324 232.946V235.061L237.737 236.154V239.156L235.446 241.943V246.536L233.075 247.76L231.708 250.839L225.894 252.187L222.921 258.783H225.894L222.921 262.946V267.692L225.894 269.639L234.325 279.131L240.089 281.04H247.423C247.423 281.04 246.373 289.429 241.674 290.382C236.976 291.334 233.077 295.429 233.077 295.429C233.077 295.429 262.277 293.263 296.365 265.041C319.257 243.801 326.448 226.346 326.448 226.346C326.448 226.346 312.91 230.646 309.731 230.499C306.552 230.351 309.731 222.301 309.731 222.301H300.337L296.951 226.348L290.785 222.301H287.606V214.795L271.385 220.854L267.231 222.302L259.575 217.231L260.791 220.855L257.022 222.303V229.109L253.553 226.348L255.178 219.238L247.425 223.34L240.091 231.718L233.079 227.531L227.008 230.499L219.646 226.347L220.809 212.192L211.051 210.322L201.326 212.192L204.397 207.887V204.781L207.599 203.676L208.969 197.941L211.052 195.563L200.082 193.718L198.022 197.941L200.082 201.47L190.293 204.782V201.47H185.279L182.609 195.563V182.297L185.279 183.562V176.499L191.894 172.237L200.082 171.323H202.713L204.397 168.258H212.594L215.033 170.234L217.509 168.258L220.807 172.236V176.499L222.922 180.363L225.895 183.561H228.296L227.002 164.004L231.705 160.034L234.322 157.886L237.734 153.602L241.67 152.124L242.827 146.718L247.419 137.08V133.072H250.42L252.468 129.96H256.085V127.609L255.172 125.813L262.603 117.314L263.558 121.612L274.411 114.347L264.637 111.252L263.558 106.42H257.015L259.569 101.793H269.87L276.082 96.0331L264.637 88.3597L259.569 86.1112L252.467 77.2488L250.419 81.5484L247.418 82.7072L242.826 77.2488L228.292 73.7793V82.7081L231.704 86.1112L228.292 92.4704L229.95 100.697L224.898 103.958V98.3197L222.913 91.0648L202.702 85.0326L205.923 79.0349H208.958L209.882 73.7793L215.025 69.2061L217.5 76.2358L224.893 75.2659L219.635 70.9905L221.664 64.9678L226.997 59.877L225.888 63.8875L226.997 68.1681L240.081 72.4504L249.379 73.781L243.919 68.1724L249.379 66.2232L231.701 56.9389L220.797 50.5763L226.997 48.1395L219.636 45.2654L212.586 48.1395L196.089 45.2654L191.883 46.778L177.49 50.5745L175.074 53.1165L176.368 55.7102H181.106V58.6439L185.267 61.7545L181.106 60.7476L166.974 55.7102L161.133 54.3357L157.665 50.5745L159.44 48.1378H152.932L148.941 51.9836L148.648 47.457C141.569 51.0799 134.821 55.316 128.481 60.1168Z" fill="url(#paint10_linear_205_8081)"/>
<path d="M213.302 194.144L223.796 189.35L248.592 196.119L238.009 200.368L236.183 196.119L225.139 194.144L215.603 196.119L213.302 194.144Z" fill="url(#paint11_linear_205_8081)"/>
<path d="M250.297 198.122L262.179 196.032L266.671 199.483L259.091 201.473L257.1 204.998L249.388 203.297L253.319 201.473L250.297 198.122Z" fill="url(#paint12_linear_205_8081)"/>
<path opacity="0.27" d="M125.892 57.5279C116.187 65.0227 117.42 65.8502 120.969 65.5723C124.518 65.2945 132.265 62.605 132.948 61.2917C133.63 59.9784 134.993 65.5723 134.993 65.5723L138.502 68.393C138.502 68.393 142.278 81.1166 137.208 83.5171C132.138 85.9176 134.11 89.8764 134.11 89.8764C134.11 89.8764 138.816 89.9808 138.5 93.4391C138.184 96.8974 137.206 102.758 137.206 102.758C137.206 102.758 134.643 99.4144 134.988 98.0985C135.333 96.7827 131.672 107.084 129.811 108.654C127.949 110.223 123.07 128.917 123.07 128.917L126.149 140.22L129.81 144.114L131.761 157.431L134.111 160.025L131.761 162.277C131.761 162.277 140.63 179.016 141.244 179.696C141.859 180.376 146.639 184.755 146.363 183.579C146.087 182.403 137.211 160.023 137.211 160.023L136.235 152.766L134.111 149.519H138.502V157.429L146.363 169.634L147.774 168.721V173.898L155.089 183.58L156.863 186.6L155.089 187.555V192.97L161.235 198.876L182.69 209.603H186.034L191.191 210.546L193.512 214.641L200.124 218.265L206.381 222.209L208.463 227.911L212.447 229.128L222.316 231.595L223.309 234.521H227.365L225.706 231.595L229.119 229.128L231.735 230.357V232.472L235.148 233.565V236.568L232.857 239.354V243.947L230.487 245.171L229.119 248.25L223.306 249.598L220.332 256.194H223.306L220.332 260.357V265.103L223.306 267.051L231.736 276.542L237.5 278.451H244.834C244.834 278.451 243.784 286.84 239.086 287.793C234.387 288.745 230.488 292.84 230.488 292.84C230.488 292.84 259.688 290.674 293.776 262.452C316.668 241.212 323.859 223.758 323.859 223.758C323.859 223.758 310.321 228.057 307.142 227.91C303.964 227.762 307.142 219.713 307.142 219.713H297.748L294.362 223.759L288.196 219.713H285.017V212.206L268.796 218.266L264.643 219.713L256.986 214.642L258.202 218.266L254.433 219.714V226.521L250.964 223.759L252.59 216.649L244.837 220.751L237.502 229.129L230.49 224.942L224.419 227.911L217.058 223.759L218.22 209.603L208.462 207.734L198.737 209.603L201.808 205.299V202.192L205.01 201.087L206.381 195.352L208.463 192.974L197.493 191.129L195.433 195.352L197.493 198.881L187.704 202.193V198.881H182.69L180.021 192.974V179.708L182.69 180.973V173.911L189.305 169.648L197.493 168.734H200.124L201.808 165.669H210.006L212.444 167.645L214.92 165.669L218.218 169.647V173.91L220.333 177.774L223.306 180.972H225.707L224.413 161.415L229.116 157.446L231.733 155.297L235.145 151.013L239.081 149.535L240.238 144.129L244.83 134.491V130.483H247.831L249.879 127.371H253.496V125.02L252.583 123.224L260.014 114.725L260.97 119.024L271.822 111.758L262.048 108.663L260.97 103.831H254.426L256.98 99.2038H267.281L273.494 93.4442L262.048 85.7709L256.98 83.5223L249.878 74.6599L247.83 78.9595L244.829 80.1183L240.237 74.6599L225.703 71.1904V80.1192L229.116 83.5223L225.703 89.8815L227.361 98.108L222.31 101.37V95.7308L220.324 88.4759L200.113 82.4437L203.334 76.4461H206.37L207.293 71.1904L212.436 66.6172L214.911 73.6469L222.305 72.6771L217.047 68.4017L219.075 62.3789L224.409 57.2881L223.299 61.2986L224.409 65.5793L237.492 69.8616L246.791 71.1921L241.33 65.5835L246.791 63.6344L229.112 54.3501L218.209 47.9874L224.409 45.5507L217.047 42.6765L209.997 45.5507L193.5 42.6765L189.294 44.1891L174.901 47.9857L172.485 50.5276L173.779 53.1213H178.517V56.0551L182.678 59.1656L178.517 58.1587L164.385 53.1213L158.544 51.7469L155.076 47.9857L156.852 45.5489H150.343L146.352 49.3947L146.059 44.8681C138.98 48.491 132.232 52.7272 125.892 57.5279Z" fill="url(#paint13_linear_205_8081)"/>
<path d="M80.2828 59.2764C55.3248 92.4342 321.192 301.511 336.189 253.086C351.186 204.662 105.237 26.1204 80.2828 59.2764Z" stroke="#4DD2BA"/>
<path d="M76.8317 62.7278C51.8736 95.8856 317.741 304.962 332.738 256.538C347.735 208.114 101.786 29.5718 76.8317 62.7278Z" stroke="#4DD2BA"/>
<path d="M83.7345 55.825C58.7764 88.9827 324.643 298.059 339.641 249.635C354.638 201.211 108.689 22.669 83.7345 55.825Z" stroke="#4DD2BA"/>
<path d="M208.952 297.747C282.101 297.747 341.4 238.448 341.4 165.299C341.4 92.1496 282.101 32.8506 208.952 32.8506C135.803 32.8506 76.5039 92.1496 76.5039 165.299C76.5039 238.448 135.803 297.747 208.952 297.747Z" fill="url(#paint14_radial_205_8081)"/>
<g opacity="0.747" filter="url(#filter0_f_205_8081)">
<path d="M283.589 182.124C306.463 182.124 325.006 163.581 325.006 140.707C325.006 117.833 306.463 99.2903 283.589 99.2903C260.715 99.2903 242.172 117.833 242.172 140.707C242.172 163.581 260.715 182.124 283.589 182.124Z" fill="url(#paint15_linear_205_8081)"/>
</g>
<mask id="mask1_205_8081" style="mask-type:luminance" maskUnits="userSpaceOnUse" x="76" y="32" width="265" height="266">
<path d="M208.752 297.747C281.791 297.747 341 238.448 341 165.299C341 92.1496 281.791 32.8506 208.752 32.8506C135.713 32.8506 76.5039 92.1496 76.5039 165.299C76.5039 238.448 135.713 297.747 208.752 297.747Z" fill="white"/>
</mask>
<g mask="url(#mask1_205_8081)">
<g filter="url(#filter1_f_205_8081)">
<path d="M247.78 290.844C290.431 290.844 325.006 256.269 325.006 213.619C325.006 170.968 290.431 136.393 247.78 136.393C205.13 136.393 170.555 170.968 170.555 213.619C170.555 256.269 205.13 290.844 247.78 290.844Z" fill="url(#paint16_linear_205_8081)"/>
</g>
</g>
<g opacity="0.396" filter="url(#filter2_f_205_8081)">
<path d="M296.532 216.639C312.258 216.639 325.006 203.89 325.006 188.164C325.006 172.439 312.258 159.69 296.532 159.69C280.806 159.69 268.058 172.439 268.058 188.164C268.058 203.89 280.806 216.639 296.532 216.639Z" fill="url(#paint17_linear_205_8081)"/>
</g>
<g opacity="0.747" filter="url(#filter3_f_205_8081)">
<path d="M237.858 247.701C252.154 247.701 263.743 236.112 263.743 221.816C263.743 207.519 252.154 195.93 237.858 195.93C223.562 195.93 211.972 207.519 211.972 221.816C211.972 236.112 223.562 247.701 237.858 247.701Z" fill="url(#paint18_linear_205_8081)"/>
</g>
<g opacity="0.747" filter="url(#filter4_f_205_8081)">
<path d="M252.526 250.29C263.01 250.29 271.509 241.791 271.509 231.307C271.509 220.823 263.01 212.324 252.526 212.324C242.042 212.324 233.543 220.823 233.543 231.307C233.543 241.791 242.042 250.29 252.526 250.29Z" fill="url(#paint19_linear_205_8081)"/>
</g>
<g opacity="0.412" filter="url(#filter5_f_205_8081)">
<path d="M180.047 185.576C215.787 185.576 244.761 158.341 244.761 124.745C244.761 91.1484 215.787 63.9133 180.047 63.9133C144.306 63.9133 115.333 91.1484 115.333 124.745C115.333 158.341 144.306 185.576 180.047 185.576Z" fill="url(#paint20_linear_205_8081)"/>
</g>
<g opacity="0.453" filter="url(#filter6_f_205_8081)">
<path d="M135.61 196.793C145.379 196.793 153.298 188.873 153.298 179.104C153.298 169.335 145.379 161.416 135.61 161.416C125.841 161.416 117.921 169.335 117.921 179.104C117.921 188.873 125.841 196.793 135.61 196.793Z" fill="url(#paint21_linear_205_8081)"/>
</g>
<g opacity="0.453" filter="url(#filter7_f_205_8081)">
<path d="M167.535 226.993C177.304 226.993 185.224 219.073 185.224 209.304C185.224 199.535 177.304 191.616 167.535 191.616C157.766 191.616 149.847 199.535 149.847 209.304C149.847 219.073 157.766 226.993 167.535 226.993Z" fill="url(#paint22_linear_205_8081)"/>
</g>
<g opacity="0.453" filter="url(#filter8_f_205_8081)">
<path d="M130.001 225.267C135.72 225.267 140.355 220.631 140.355 214.913C140.355 209.194 135.72 204.559 130.001 204.559C124.283 204.559 119.647 209.194 119.647 214.913C119.647 220.631 124.283 225.267 130.001 225.267Z" fill="url(#paint23_linear_205_8081)"/>
</g>
<path d="M128.481 60.1168C118.776 67.6116 120.009 68.439 123.558 68.1612C127.107 67.8834 134.854 65.1938 135.537 63.8806C136.219 62.5673 137.582 68.1612 137.582 68.1612L141.091 70.9819C141.091 70.9819 144.867 83.7055 139.797 86.106C134.727 88.5064 136.699 92.4652 136.699 92.4652C136.699 92.4652 141.405 92.5696 141.089 96.0279C140.773 99.4863 139.794 105.347 139.794 105.347C139.794 105.347 137.231 102.003 137.577 100.687C137.922 99.3715 134.261 109.673 132.4 111.243C130.538 112.812 125.658 131.506 125.658 131.506L128.738 142.809L132.399 146.703L134.35 160.02L136.7 162.614L134.35 164.866C134.35 164.866 143.219 181.605 143.833 182.285C144.448 182.965 149.228 187.344 148.952 186.168C148.676 184.992 139.799 162.612 139.799 162.612L138.824 155.355L136.7 152.107H141.09V160.018L148.952 172.223L150.363 171.309V176.487L157.678 186.169L159.452 189.189L157.678 190.144V195.559L163.824 201.465L185.279 212.192H188.623L193.78 213.135L196.101 217.23L202.713 220.854L208.969 224.798L211.052 230.499L215.035 231.717L224.905 234.184L225.898 237.11H229.953L228.295 234.184L231.708 231.717L234.324 232.946V235.061L237.737 236.154V239.156L235.446 241.943V246.536L233.075 247.76L231.708 250.839L225.894 252.187L222.921 258.783H225.894L222.921 262.946V267.692L225.894 269.639L234.325 279.131L240.089 281.04H247.423C247.423 281.04 246.373 289.429 241.674 290.382C236.976 291.334 233.077 295.429 233.077 295.429C233.077 295.429 262.277 293.263 296.365 265.041C319.257 243.801 326.448 226.346 326.448 226.346C326.448 226.346 312.91 230.646 309.731 230.499C306.552 230.351 309.731 222.301 309.731 222.301H300.337L296.951 226.348L290.785 222.301H287.606V214.795L271.385 220.854L267.231 222.302L259.575 217.231L260.791 220.855L257.022 222.303V229.109L253.553 226.348L255.178 219.238L247.425 223.34L240.091 231.718L233.079 227.531L227.008 230.499L219.646 226.347L220.809 212.192L211.051 210.322L201.326 212.192L204.397 207.887V204.781L207.599 203.676L208.969 197.941L211.052 195.563L200.082 193.718L198.022 197.941L200.082 201.47L190.293 204.782V201.47H185.279L182.609 195.563V182.297L185.279 183.562V176.499L191.894 172.237L200.082 171.323H202.713L204.397 168.258H212.594L215.033 170.234L217.509 168.258L220.807 172.236V176.499L222.922 180.363L225.895 183.561H228.296L227.002 164.004L231.705 160.034L234.322 157.886L237.734 153.602L241.67 152.124L242.827 146.718L247.419 137.08V133.072H250.42L252.468 129.96H256.085V127.609L255.172 125.813L262.603 117.314L263.558 121.612L274.411 114.347L264.637 111.252L263.558 106.42H257.015L259.569 101.793H269.87L276.082 96.0331L264.637 88.3597L259.569 86.1112L252.467 77.2488L250.419 81.5484L247.418 82.7072L242.826 77.2488L228.292 73.7793V82.7081L231.704 86.1112L228.292 92.4704L229.95 100.697L224.898 103.958V98.3197L222.913 91.0648L202.702 85.0326L205.923 79.0349H208.958L209.882 73.7793L215.025 69.2061L217.5 76.2358L224.893 75.2659L219.635 70.9905L221.664 64.9678L226.997 59.877L225.888 63.8875L226.997 68.1681L240.081 72.4504L249.379 73.781L243.919 68.1724L249.379 66.2232L231.701 56.9389L220.797 50.5763L226.997 48.1395L219.636 45.2654L212.586 48.1395L196.089 45.2654L191.883 46.778L177.49 50.5745L175.074 53.1165L176.368 55.7102H181.106V58.6439L185.267 61.7545L181.106 60.7476L166.974 55.7102L161.133 54.3357L157.665 50.5745L159.44 48.1378H152.932L148.941 51.9836L148.648 47.457C141.569 51.0799 134.821 55.316 128.481 60.1168Z" fill="url(#paint24_linear_205_8081)"/>
<path d="M213.302 194.144L223.796 189.35L248.592 196.119L238.009 200.368L236.183 196.119L225.139 194.144L215.603 196.119L213.302 194.144Z" fill="url(#paint25_linear_205_8081)"/>
<path d="M250.297 198.122L262.179 196.032L266.671 199.483L259.091 201.473L257.1 204.998L249.388 203.297L253.319 201.473L250.297 198.122Z" fill="url(#paint26_linear_205_8081)"/>
<path opacity="0.27" d="M125.892 57.5279C116.187 65.0227 117.42 65.8502 120.969 65.5723C124.518 65.2945 132.265 62.605 132.948 61.2917C133.63 59.9784 134.993 65.5723 134.993 65.5723L138.502 68.393C138.502 68.393 142.278 81.1166 137.208 83.5171C132.138 85.9176 134.11 89.8764 134.11 89.8764C134.11 89.8764 138.816 89.9808 138.5 93.4391C138.184 96.8974 137.206 102.758 137.206 102.758C137.206 102.758 134.643 99.4144 134.988 98.0985C135.333 96.7827 131.672 107.084 129.811 108.654C127.949 110.223 123.07 128.917 123.07 128.917L126.149 140.22L129.81 144.114L131.761 157.431L134.111 160.025L131.761 162.277C131.761 162.277 140.63 179.016 141.244 179.696C141.859 180.376 146.639 184.755 146.363 183.579C146.087 182.403 137.211 160.023 137.211 160.023L136.235 152.766L134.111 149.519H138.502V157.429L146.363 169.634L147.774 168.721V173.898L155.089 183.58L156.863 186.6L155.089 187.555V192.97L161.235 198.876L182.69 209.603H186.034L191.191 210.546L193.512 214.641L200.124 218.265L206.381 222.209L208.463 227.911L212.447 229.128L222.316 231.595L223.309 234.521H227.365L225.706 231.595L229.119 229.128L231.735 230.357V232.472L235.148 233.565V236.568L232.857 239.354V243.947L230.487 245.171L229.119 248.25L223.306 249.598L220.332 256.194H223.306L220.332 260.357V265.103L223.306 267.051L231.736 276.542L237.5 278.451H244.834C244.834 278.451 243.784 286.84 239.086 287.793C234.387 288.745 230.488 292.84 230.488 292.84C230.488 292.84 259.688 290.674 293.776 262.452C316.668 241.212 323.859 223.758 323.859 223.758C323.859 223.758 310.321 228.057 307.142 227.91C303.964 227.762 307.142 219.713 307.142 219.713H297.748L294.362 223.759L288.196 219.713H285.017V212.206L268.796 218.266L264.643 219.713L256.986 214.642L258.202 218.266L254.433 219.714V226.521L250.964 223.759L252.59 216.649L244.837 220.751L237.502 229.129L230.49 224.942L224.419 227.911L217.058 223.759L218.22 209.603L208.462 207.734L198.737 209.603L201.808 205.299V202.192L205.01 201.087L206.381 195.352L208.463 192.974L197.493 191.129L195.433 195.352L197.493 198.881L187.704 202.193V198.881H182.69L180.021 192.974V179.708L182.69 180.973V173.911L189.305 169.648L197.493 168.734H200.124L201.808 165.669H210.006L212.444 167.645L214.92 165.669L218.218 169.647V173.91L220.333 177.774L223.306 180.972H225.707L224.413 161.415L229.116 157.446L231.733 155.297L235.145 151.013L239.081 149.535L240.238 144.129L244.83 134.491V130.483H247.831L249.879 127.371H253.496V125.02L252.583 123.224L260.014 114.725L260.97 119.024L271.822 111.758L262.048 108.663L260.97 103.831H254.426L256.98 99.2038H267.281L273.494 93.4442L262.048 85.7709L256.98 83.5223L249.878 74.6599L247.83 78.9595L244.829 80.1183L240.237 74.6599L225.703 71.1904V80.1192L229.116 83.5223L225.703 89.8815L227.361 98.108L222.31 101.37V95.7308L220.324 88.4759L200.113 82.4437L203.334 76.4461H206.37L207.293 71.1904L212.436 66.6172L214.911 73.6469L222.305 72.6771L217.047 68.4017L219.075 62.3789L224.409 57.2881L223.299 61.2986L224.409 65.5793L237.492 69.8616L246.791 71.1921L241.33 65.5835L246.791 63.6344L229.112 54.3501L218.209 47.9874L224.409 45.5507L217.047 42.6765L209.997 45.5507L193.5 42.6765L189.294 44.1891L174.901 47.9857L172.485 50.5276L173.779 53.1213H178.517V56.0551L182.678 59.1656L178.517 58.1587L164.385 53.1213L158.544 51.7469L155.076 47.9857L156.852 45.5489H150.343L146.352 49.3947L146.059 44.8681C138.98 48.491 132.232 52.7272 125.892 57.5279Z" fill="url(#paint27_linear_205_8081)"/>
<path d="M80.2828 59.2764C55.3248 92.4342 321.192 301.511 336.189 253.086C351.186 204.662 105.237 26.1204 80.2828 59.2764Z" stroke="#4DD2BA"/>
<path d="M76.8317 62.7278C51.8736 95.8856 317.741 304.962 332.738 256.538C347.735 208.114 101.786 29.5718 76.8317 62.7278Z" stroke="#4DD2BA"/>
<path d="M83.7345 55.825C58.7764 88.9827 324.643 298.059 339.641 249.635C354.638 201.211 108.689 22.669 83.7345 55.825Z" stroke="#4DD2BA"/>
<path d="M76.2898 250.855C100.702 284.417 378.374 91.2951 336.451 62.7953C294.527 34.2955 51.8785 217.297 76.2898 250.855Z" stroke="#4DD2BA"/>
<path d="M78.5817 255.165C102.994 288.727 380.666 95.6052 338.743 67.1054C296.819 38.6055 54.1705 221.607 78.5817 255.165Z" stroke="#4DD2BA"/>
<path d="M73.9997 246.546C98.4116 280.108 376.084 86.9858 334.161 58.486C292.237 29.9861 49.5885 212.988 73.9997 246.546Z" stroke="#4DD2BA"/>
<g filter="url(#filter9_f_205_8081)">
<path d="M330.183 268.41C336.378 268.41 341.401 263.388 341.401 257.193C341.401 250.998 336.378 245.976 330.183 245.976C323.988 245.976 318.966 250.998 318.966 257.193C318.966 263.388 323.988 268.41 330.183 268.41Z" fill="url(#paint28_linear_205_8081)"/>
</g>
<g filter="url(#filter10_f_205_8081)">
<path d="M81.6815 66.5018C87.8765 66.5018 92.8986 61.4798 92.8986 55.2847C92.8986 49.0897 87.8765 44.0676 81.6815 44.0676C75.4864 44.0676 70.4644 49.0897 70.4644 55.2847C70.4644 61.4798 75.4864 66.5018 81.6815 66.5018Z" fill="url(#paint29_linear_205_8081)"/>
</g>
<g filter="url(#filter11_f_205_8081)">
<path d="M337.086 72.5419C343.281 72.5419 348.303 67.5198 348.303 61.3248C348.303 55.1297 343.281 50.1077 337.086 50.1077C330.891 50.1077 325.869 55.1297 325.869 61.3248C325.869 67.5198 330.891 72.5419 337.086 72.5419Z" fill="url(#paint30_linear_205_8081)"/>
</g>
<g filter="url(#filter12_f_205_8081)">
<path d="M81.6815 268.41C87.8765 268.41 92.8986 263.388 92.8986 257.193C92.8986 250.998 87.8765 245.976 81.6815 245.976C75.4864 245.976 70.4644 250.998 70.4644 257.193C70.4644 263.388 75.4864 268.41 81.6815 268.41Z" fill="url(#paint31_linear_205_8081)"/>
</g>
<mask id="mask2_205_8081" style="mask-type:luminance" maskUnits="userSpaceOnUse" x="0" y="479" width="418" height="250">
<path d="M7.25014 591.697L196.403 482.881C203.856 478.578 214.81 478.998 221.529 482.881L410.246 591.697C412.325 592.877 414.055 594.587 415.257 596.653C416.46 598.719 417.094 601.067 417.094 603.458C417.094 605.849 416.46 608.197 415.257 610.263C414.055 612.329 412.325 614.039 410.246 615.219L215.596 727.054C213.518 728.27 211.155 728.911 208.748 728.911C206.341 728.911 203.977 728.27 201.9 727.054L7.25014 615.219C-2.29562 610.267 -2.29562 597.061 7.25014 591.697Z" fill="white"/>
</mask>
<g mask="url(#mask2_205_8081)">
<path d="M7.25014 591.608L196.403 482.792C203.856 478.489 214.81 478.909 221.529 482.792L410.246 591.608C412.325 592.788 414.055 594.499 415.257 596.565C416.46 598.631 417.094 600.979 417.094 603.369C417.094 605.76 416.46 608.108 415.257 610.174C414.055 612.24 412.325 613.95 410.246 615.13L215.596 726.965C213.518 728.181 211.155 728.822 208.748 728.822C206.341 728.822 203.977 728.181 201.9 726.965L7.25014 615.13C-2.29562 610.179 -2.29562 596.973 7.25014 591.608Z" fill="url(#paint32_linear_205_8081)"/>
</g>
<path d="M252.976 553.232L207.75 579.389L253.01 605.521L298.12 579.42" fill="url(#paint33_linear_205_8081)"/>
<path d="M252.976 527.194L207.75 553.352L253.01 579.483L298.12 553.382" fill="url(#paint34_linear_205_8081)"/>
<path d="M252.976 502.323L207.75 528.481L253.01 554.612L298.12 528.511" fill="url(#paint35_linear_205_8081)"/>
<path d="M252.976 476.286L207.75 502.443L253.01 528.575L298.12 502.474" fill="url(#paint36_linear_205_8081)"/>
<path d="M252.976 450.552L207.75 476.71L253.01 502.841L298.12 476.74" fill="url(#paint37_linear_205_8081)"/>
<path d="M252.976 424.515L207.75 450.672L253.01 476.804L298.12 450.702" fill="url(#paint38_linear_205_8081)"/>
<path d="M252.976 399.644L207.75 425.801L253.01 451.933L298.12 425.831" fill="url(#paint39_linear_205_8081)"/>
<path d="M252.976 373.606L207.75 399.764L253.01 425.895L298.12 399.794" fill="url(#paint40_linear_205_8081)"/>
<path d="M252.976 349.598L207.75 375.756L253.01 401.887L298.12 375.786" fill="url(#paint41_linear_205_8081)"/>
<path d="M252.976 323.561L207.75 349.718L253.01 375.85L298.12 349.748" fill="url(#paint42_linear_205_8081)"/>
<path d="M253.012 298.753L207.75 323.985L253.012 350.117L298.121 324.016" fill="url(#paint43_linear_205_8081)"/>
<path d="M166.689 553.232L121.463 579.389L166.724 605.521L211.834 579.42" fill="url(#paint44_linear_205_8081)"/>
<path d="M166.689 527.194L121.463 553.352L166.724 579.483L211.834 553.382" fill="url(#paint45_linear_205_8081)"/>
<path d="M166.689 502.324L121.463 528.481L166.724 554.613L211.834 528.511" fill="url(#paint46_linear_205_8081)"/>
<path d="M166.689 476.286L121.463 502.444L166.724 528.575L211.834 502.474" fill="url(#paint47_linear_205_8081)"/>
<path d="M166.689 450.552L121.463 476.71L166.724 502.841L211.834 476.74" fill="url(#paint48_linear_205_8081)"/>
<path d="M166.689 424.515L121.463 450.672L166.724 476.804L211.834 450.703" fill="url(#paint49_linear_205_8081)"/>
<path d="M166.689 399.644L121.463 425.801L166.724 451.933L211.834 425.831" fill="url(#paint50_linear_205_8081)"/>
<path d="M166.689 373.606L121.463 399.764L166.724 425.895L211.834 399.794" fill="url(#paint51_linear_205_8081)"/>
<path d="M166.689 349.598L121.463 375.756L166.724 401.887L211.834 375.786" fill="url(#paint52_linear_205_8081)"/>
<path d="M166.689 323.561L121.463 349.718L166.724 375.85L211.834 349.748" fill="url(#paint53_linear_205_8081)"/>
<path d="M166.726 298.753L121.465 323.985L166.726 350.117L211.835 324.016" fill="url(#paint54_linear_205_8081)"/>
<path d="M164.084 348.128V603.818L208.727 628.963L253.171 603.818L253.845 348.128L208.727 322.145L164.084 348.128Z" fill="url(#paint55_linear_205_8081)"/>
<mask id="mask3_205_8081" style="mask-type:luminance" maskUnits="userSpaceOnUse" x="256" y="578" width="86" height="52">
<path d="M257.907 600.952L296.694 578.64C297.49 578.226 298.373 578.01 299.27 578.01C300.167 578.01 301.05 578.226 301.846 578.64L340.543 600.953C340.97 601.195 341.324 601.546 341.571 601.969C341.818 602.393 341.947 602.875 341.947 603.365C341.947 603.855 341.818 604.336 341.571 604.76C341.324 605.184 340.97 605.534 340.543 605.776L300.63 628.708C300.204 628.957 299.719 629.089 299.225 629.089C298.732 629.089 298.247 628.957 297.821 628.708L257.907 605.776C257.465 605.547 257.094 605.201 256.834 604.776C256.575 604.35 256.438 603.862 256.438 603.364C256.438 602.866 256.575 602.377 256.834 601.952C257.094 601.527 257.465 601.181 257.907 600.952Z" fill="white"/>
</mask>
<g mask="url(#mask3_205_8081)">
<g opacity="0.653">
<path d="M195.969 558.696L292.943 502.909C294.932 501.875 297.141 501.335 299.383 501.335C301.625 501.335 303.834 501.875 305.823 502.909L402.575 558.696C403.641 559.301 404.528 560.178 405.144 561.237C405.761 562.297 406.086 563.5 406.086 564.726C406.086 565.952 405.761 567.155 405.144 568.215C404.528 569.274 403.641 570.151 402.575 570.756L302.783 628.091C301.718 628.714 300.506 629.043 299.272 629.043C298.038 629.043 296.826 628.714 295.761 628.091L195.969 570.756C194.863 570.184 193.935 569.319 193.288 568.256C192.64 567.192 192.298 565.971 192.298 564.726C192.298 563.481 192.64 562.26 193.288 561.196C193.935 560.133 194.863 559.268 195.969 558.696Z" fill="url(#paint56_linear_205_8081)"/>
</g>
</g>
<path d="M253.167 347.894L208.16 373.154V628.99L253.167 603.357V347.894Z" fill="url(#paint57_linear_205_8081)"/>
<path opacity="0.589" d="M208.16 373.074L163.817 348.069L208.937 322.058L253.719 348.069L208.16 373.074Z" fill="url(#paint58_linear_205_8081)"/>
<path d="M253.839 602.415L208.613 628.572L253.874 654.704L298.984 628.602" fill="url(#paint59_linear_205_8081)"/>
<path d="M253.839 576.377L208.613 602.535L253.874 628.666L298.984 602.565" fill="url(#paint60_linear_205_8081)"/>
<path d="M253.839 551.506L208.613 577.664L253.874 603.795L298.984 577.694" fill="url(#paint61_linear_205_8081)"/>
<path d="M253.839 525.469L208.613 551.626L253.874 577.757L298.984 551.656" fill="url(#paint62_linear_205_8081)"/>
<path d="M253.839 499.735L208.613 525.892L253.874 552.024L298.984 525.923" fill="url(#paint63_linear_205_8081)"/>
<path d="M253.839 473.697L208.613 499.855L253.874 525.986L298.984 499.885" fill="url(#paint64_linear_205_8081)"/>
<path d="M253.839 448.827L208.613 474.984L253.874 501.116L298.984 475.014" fill="url(#paint65_linear_205_8081)"/>
<path d="M253.839 422.789L208.613 448.946L253.874 475.078L298.984 448.977" fill="url(#paint66_linear_205_8081)"/>
<path d="M253.839 398.781L208.613 424.939L253.874 451.07L298.984 424.969" fill="url(#paint67_linear_205_8081)"/>
<path d="M253.839 372.744L208.613 398.901L253.874 425.033L298.984 398.931" fill="url(#paint68_linear_205_8081)"/>
<path d="M253.875 347.936L208.614 373.168L253.875 399.3L298.984 373.198" fill="url(#paint69_linear_205_8081)"/>
<path d="M165.827 602.415L120.602 628.572L165.862 654.704L210.972 628.602" fill="url(#paint70_linear_205_8081)"/>
<path d="M165.827 576.377L120.602 602.534L165.862 628.666L210.972 602.565" fill="url(#paint71_linear_205_8081)"/>
<path d="M165.827 551.506L120.602 577.664L165.862 603.795L210.972 577.694" fill="url(#paint72_linear_205_8081)"/>
<path d="M165.827 525.469L120.602 551.626L165.862 577.758L210.972 551.656" fill="url(#paint73_linear_205_8081)"/>
<path d="M165.827 499.735L120.602 525.892L165.862 552.024L210.972 525.923" fill="url(#paint74_linear_205_8081)"/>
<path d="M165.827 473.698L120.602 499.855L165.862 525.986L210.972 499.885" fill="url(#paint75_linear_205_8081)"/>
<path d="M165.827 448.826L120.602 474.984L165.862 501.115L210.972 475.014" fill="url(#paint76_linear_205_8081)"/>
<path d="M165.827 422.789L120.602 448.946L165.862 475.078L210.972 448.977" fill="url(#paint77_linear_205_8081)"/>
<path d="M165.827 398.781L120.602 424.938L165.862 451.07L210.972 424.969" fill="url(#paint78_linear_205_8081)"/>
<path d="M165.827 372.743L120.602 398.901L165.862 425.032L210.972 398.931" fill="url(#paint79_linear_205_8081)"/>
<mask id="mask4_205_8081" style="mask-type:luminance" maskUnits="userSpaceOnUse" x="77" y="578" width="87" height="52">
<path d="M79.2957 600.952L118.083 578.639C118.878 578.226 119.762 578.01 120.659 578.01C121.556 578.01 122.439 578.226 123.235 578.639L161.932 600.953C162.358 601.195 162.713 601.546 162.96 601.969C163.206 602.393 163.336 602.874 163.336 603.365C163.336 603.855 163.206 604.336 162.96 604.76C162.713 605.183 162.358 605.534 161.932 605.776L122.018 628.707C121.592 628.957 121.107 629.088 120.614 629.088C120.12 629.088 119.636 628.957 119.21 628.707L79.2957 605.775C78.8532 605.547 78.4822 605.201 78.2232 604.775C77.9642 604.35 77.8271 603.862 77.8271 603.364C77.8271 602.866 77.9642 602.377 78.2232 601.952C78.4822 601.526 78.8532 601.181 79.2957 600.952Z" fill="white"/>
</mask>
<g mask="url(#mask4_205_8081)">
<g opacity="0.653">
<path d="M17.3582 558.696L114.332 502.908C116.321 501.874 118.53 501.335 120.772 501.335C123.014 501.335 125.223 501.874 127.212 502.908L223.964 558.696C225.03 559.301 225.917 560.178 226.534 561.237C227.15 562.296 227.475 563.5 227.475 564.726C227.475 565.951 227.15 567.155 226.534 568.214C225.917 569.274 225.03 570.15 223.964 570.755L124.172 628.09C123.107 628.714 121.895 629.042 120.661 629.042C119.427 629.042 118.215 628.714 117.15 628.09L17.3582 570.755C16.2521 570.184 15.3245 569.319 14.677 568.255C14.0295 567.192 13.687 565.971 13.687 564.726C13.687 563.481 14.0295 562.26 14.677 561.196C15.3245 560.133 16.2521 559.268 17.3582 558.696Z" fill="url(#paint80_linear_205_8081)"/>
</g>
</g>
<path d="M165.864 347.936L120.603 373.168L165.864 399.3L210.973 373.198" fill="url(#paint81_linear_205_8081)"/>
<path opacity="0.541" d="M165.929 399.46C165.79 463.367 165.714 654.759 165.714 654.759L209.392 629.588L209.101 373.779L165.929 399.46Z" fill="url(#paint82_linear_205_8081)"/>
<path opacity="0.844" d="M253.552 399.518L254.138 655.148L209.249 629.24L209.101 373.78L253.552 399.518Z" fill="url(#paint83_linear_205_8081)"/>
<path opacity="0.541" d="M253.632 399.49C253.493 463.398 254.048 655.226 254.048 655.226L299.129 629.588L298.838 373.779L253.632 399.49Z" fill="url(#paint84_linear_205_8081)"/>
<path opacity="0.784" d="M166.016 399.591C166.163 463.499 166.127 655.148 166.127 655.148L121.238 629.24L120.862 373.311L166.016 399.591Z" fill="url(#paint85_linear_205_8081)"/>
<path opacity="0.46" d="M120.875 324.006V373.131L165.718 347.925L120.875 324.006Z" fill="#1355E7"/>
<path opacity="0.46" d="M298.983 323.778V373.358L253.726 347.919L298.983 323.778Z" fill="#1355E7"/>
<mask id="mask5_205_8081" style="mask-type:luminance" maskUnits="userSpaceOnUse" x="167" y="629" width="87" height="52">
<path d="M169.033 652.723L207.82 630.411C208.616 629.997 209.5 629.781 210.397 629.781C211.293 629.781 212.177 629.997 212.973 630.411L251.67 652.724C252.096 652.966 252.451 653.317 252.697 653.741C252.944 654.164 253.074 654.646 253.074 655.136C253.074 655.626 252.944 656.108 252.697 656.531C252.451 656.955 252.096 657.306 251.67 657.548L211.756 680.479C211.33 680.728 210.845 680.86 210.352 680.86C209.858 680.86 209.373 680.728 208.947 680.479L169.033 657.547C168.591 657.318 168.22 656.972 167.961 656.547C167.702 656.122 167.565 655.633 167.565 655.135C167.565 654.637 167.702 654.149 167.961 653.723C168.22 653.298 168.591 652.952 169.033 652.723Z" fill="white"/>
</mask>
<g mask="url(#mask5_205_8081)">
<path d="M107.095 610.468L204.069 554.68C206.058 553.646 208.267 553.106 210.509 553.106C212.751 553.106 214.96 553.646 216.95 554.68L313.702 610.468C314.768 611.073 315.654 611.949 316.271 613.009C316.888 614.068 317.213 615.272 317.213 616.497C317.213 617.723 316.888 618.927 316.271 619.986C315.654 621.045 314.768 621.922 313.702 622.527L213.909 679.862C212.844 680.485 211.632 680.814 210.398 680.814C209.164 680.814 207.952 680.485 206.887 679.862L107.095 622.527C105.989 621.955 105.062 621.09 104.414 620.027C103.767 618.963 103.424 617.742 103.424 616.497C103.424 615.252 103.767 614.031 104.414 612.968C105.062 611.904 105.989 611.039 107.095 610.468Z" fill="url(#paint86_linear_205_8081)"/>
</g>
<path d="M8.7165 615.595C18.1639 620.995 187.683 718.502 198.875 724.562C210.066 730.621 218.218 725.348 218.218 725.348C218.218 725.348 396.788 622.732 407.733 616.483C418.679 610.234 417.433 602.782 417.433 602.782C417.433 602.782 418.209 627.698 417.874 635.168C417.781 637.321 417.146 639.416 416.026 641.258C414.906 643.099 413.338 644.627 411.468 645.699C411.468 645.699 227.772 751.465 217.638 757.525C214.8 759.26 211.508 760.106 208.186 759.955C204.863 759.804 201.662 758.663 198.993 756.679C198.993 756.679 14.7108 650.422 7.09443 645.975C-0.52198 641.527 0.00790589 634.356 0.00790589 634.356L0.120818 603.227C1.30023 608.297 4.37646 612.722 8.7165 615.595Z" fill="url(#paint87_linear_205_8081)"/>
<path d="M8.7165 646.658C18.1639 652.058 187.683 749.565 198.875 755.624C210.066 761.684 218.218 756.41 218.218 756.41C218.218 756.41 396.788 653.795 407.733 647.546C418.679 641.297 417.433 633.844 417.433 633.844C417.433 633.844 418.209 658.761 417.874 666.231C417.781 668.384 417.146 670.479 416.026 672.32C414.906 674.162 413.338 675.69 411.468 676.762C411.468 676.762 227.772 782.527 217.638 788.588C214.8 790.322 211.508 791.169 208.186 791.018C204.863 790.867 201.662 789.726 198.993 787.741C198.993 787.741 14.7108 681.484 7.09443 677.037C-0.52198 672.59 0.00790589 665.419 0.00790589 665.419L0.120818 634.29C1.30023 639.359 4.37646 643.785 8.7165 646.658Z" fill="url(#paint88_linear_205_8081)"/>
<path d="M8.7165 678.583C18.1639 683.983 187.683 781.49 198.875 787.55C210.066 793.61 218.218 788.336 218.218 788.336C218.218 788.336 396.788 685.72 407.733 679.471C418.679 673.223 417.433 665.77 417.433 665.77C417.433 665.77 418.209 690.687 417.874 698.156C417.781 700.31 417.146 702.405 416.026 704.246C414.906 706.087 413.338 707.615 411.468 708.688C411.468 708.688 227.772 814.453 217.638 820.514C214.8 822.248 211.508 823.094 208.186 822.943C204.863 822.793 201.662 821.651 198.993 819.667C198.993 819.667 14.7108 713.41 7.09443 708.963C-0.52198 704.516 0.00790589 697.344 0.00790589 697.344L0.120818 666.215C1.30023 671.285 4.37646 675.71 8.7165 678.583Z" fill="url(#paint89_linear_205_8081)"/>
<path d="M8.7165 709.646C18.1639 715.046 187.683 812.553 198.875 818.613C210.066 824.672 218.218 819.399 218.218 819.399C218.218 819.399 396.788 716.783 407.733 710.534C418.679 704.285 417.433 696.833 417.433 696.833C417.433 696.833 418.209 721.749 417.874 729.219C417.781 731.372 417.146 733.467 416.026 735.309C414.906 737.15 413.338 738.678 411.468 739.75C411.468 739.75 227.772 845.516 217.638 851.576C214.8 853.311 211.508 854.157 208.186 854.006C204.863 853.855 201.662 852.714 198.993 850.73C198.993 850.73 14.7108 744.473 7.09443 740.026C-0.52198 735.578 0.00790589 728.407 0.00790589 728.407L0.120818 697.278C1.30023 702.348 4.37646 706.773 8.7165 709.646Z" fill="url(#paint90_linear_205_8081)"/>
<path d="M8.7165 741.572C18.1639 746.972 187.683 844.478 198.875 850.538C210.066 856.598 218.218 851.324 218.218 851.324C218.218 851.324 396.788 748.708 407.733 742.46C418.679 736.211 417.433 728.758 417.433 728.758C417.433 728.758 418.209 753.675 417.874 761.145C417.781 763.298 417.146 765.393 416.026 767.234C414.906 769.076 413.338 770.604 411.468 771.676C411.468 771.676 227.772 877.441 217.638 883.502C214.8 885.236 211.508 886.082 208.186 885.932C204.863 885.781 201.662 884.64 198.993 882.655C198.993 882.655 14.7108 776.398 7.09443 771.951C-0.52198 767.504 0.00790589 760.333 0.00790589 760.333L0.120818 729.204C1.30023 734.273 4.37646 738.699 8.7165 741.572Z" fill="url(#paint91_linear_205_8081)"/>
<path d="M8.7165 772.635C18.1639 778.034 187.683 875.541 198.875 881.601C210.066 887.661 218.218 882.387 218.218 882.387C218.218 882.387 396.788 779.771 407.733 773.523C418.679 767.274 417.433 759.821 417.433 759.821C417.433 759.821 418.209 784.738 417.874 792.208C417.781 794.361 417.146 796.456 416.026 798.297C414.906 800.139 413.338 801.667 411.468 802.739C411.468 802.739 227.772 908.504 217.638 914.565C214.8 916.299 211.508 917.145 208.186 916.995C204.863 916.844 201.662 915.703 198.993 913.718C198.993 913.718 14.7108 807.461 7.09443 803.014C-0.52198 798.567 0.00790589 791.396 0.00790589 791.396L0.120818 760.267C1.30023 765.336 4.37646 769.762 8.7165 772.635Z" fill="url(#paint92_linear_205_8081)"/>
<path d="M8.7165 804.56C18.1639 809.96 187.683 907.467 198.875 913.527C210.066 919.587 218.218 914.313 218.218 914.313C218.218 914.313 396.788 811.697 407.733 805.448C418.679 799.199 417.433 791.747 417.433 791.747C417.433 791.747 418.209 816.664 417.874 824.133C417.781 826.287 417.146 828.381 416.026 830.223C414.906 832.064 413.338 833.592 411.468 834.664C411.468 834.664 227.772 940.43 217.638 946.49C214.8 948.225 211.508 949.071 208.186 948.92C204.863 948.769 201.662 947.628 198.993 945.644C198.993 945.644 14.7108 839.387 7.09443 834.94C-0.52198 830.493 0.00790589 823.321 0.00790589 823.321L0.120818 792.192C1.30023 797.262 4.37646 801.687 8.7165 804.56Z" fill="url(#paint93_linear_205_8081)"/>
<path d="M8.7165 835.623C18.1639 841.023 187.683 938.53 198.875 944.589C210.066 950.649 218.218 945.375 218.218 945.375C218.218 945.375 396.788 842.76 407.733 836.511C418.679 830.262 417.433 822.81 417.433 822.81C417.433 822.81 418.209 847.726 417.874 855.196C417.781 857.349 417.146 859.444 416.026 861.286C414.906 863.127 413.338 864.655 411.468 865.727C411.468 865.727 227.772 971.492 217.638 977.553C214.8 979.288 211.508 980.134 208.186 979.983C204.863 979.832 201.662 978.691 198.993 976.707C198.993 976.707 14.7108 870.45 7.09443 866.002C-0.52198 861.555 0.00790589 854.384 0.00790589 854.384L0.120818 823.255C1.30023 828.324 4.37646 832.75 8.7165 835.623Z" fill="url(#paint94_linear_205_8081)"/>
<defs>
<filter id="filter0_f_205_8081" x="222.172" y="79.2903" width="122.834" height="122.834" filterUnits="userSpaceOnUse" color-interpolation-filters="sRGB">
<feFlood flood-opacity="0" result="BackgroundImageFix"/>
<feBlend mode="normal" in="SourceGraphic" in2="BackgroundImageFix" result="shape"/>
<feGaussianBlur stdDeviation="10" result="effect1_foregroundBlur_205_8081"/>
</filter>
<filter id="filter1_f_205_8081" x="147.555" y="113.393" width="200.451" height="200.451" filterUnits="userSpaceOnUse" color-interpolation-filters="sRGB">
<feFlood flood-opacity="0" result="BackgroundImageFix"/>
<feBlend mode="normal" in="SourceGraphic" in2="BackgroundImageFix" result="shape"/>
<feGaussianBlur stdDeviation="11.5" result="effect1_foregroundBlur_205_8081"/>
</filter>
<filter id="filter2_f_205_8081" x="245.058" y="136.69" width="102.948" height="102.948" filterUnits="userSpaceOnUse" color-interpolation-filters="sRGB">
<feFlood flood-opacity="0" result="BackgroundImageFix"/>
<feBlend mode="normal" in="SourceGraphic" in2="BackgroundImageFix" result="shape"/>
<feGaussianBlur stdDeviation="11.5" result="effect1_foregroundBlur_205_8081"/>
</filter>
<filter id="filter3_f_205_8081" x="198.972" y="182.93" width="77.7715" height="77.7712" filterUnits="userSpaceOnUse" color-interpolation-filters="sRGB">
<feFlood flood-opacity="0" result="BackgroundImageFix"/>
<feBlend mode="normal" in="SourceGraphic" in2="BackgroundImageFix" result="shape"/>
<feGaussianBlur stdDeviation="6.5" result="effect1_foregroundBlur_205_8081"/>
</filter>
<filter id="filter4_f_205_8081" x="220.543" y="199.324" width="63.9658" height="63.9656" filterUnits="userSpaceOnUse" color-interpolation-filters="sRGB">
<feFlood flood-opacity="0" result="BackgroundImageFix"/>
<feBlend mode="normal" in="SourceGraphic" in2="BackgroundImageFix" result="shape"/>
<feGaussianBlur stdDeviation="6.5" result="effect1_foregroundBlur_205_8081"/>
</filter>
<filter id="filter5_f_205_8081" x="102.333" y="50.9133" width="155.428" height="147.662" filterUnits="userSpaceOnUse" color-interpolation-filters="sRGB">
<feFlood flood-opacity="0" result="BackgroundImageFix"/>
<feBlend mode="normal" in="SourceGraphic" in2="BackgroundImageFix" result="shape"/>
<feGaussianBlur stdDeviation="6.5" result="effect1_foregroundBlur_205_8081"/>
</filter>
<filter id="filter6_f_205_8081" x="103.921" y="147.416" width="63.377" height="63.377" filterUnits="userSpaceOnUse" color-interpolation-filters="sRGB">
<feFlood flood-opacity="0" result="BackgroundImageFix"/>
<feBlend mode="normal" in="SourceGraphic" in2="BackgroundImageFix" result="shape"/>
<feGaussianBlur stdDeviation="7" result="effect1_foregroundBlur_205_8081"/>
</filter>
<filter id="filter7_f_205_8081" x="135.847" y="177.616" width="63.377" height="63.377" filterUnits="userSpaceOnUse" color-interpolation-filters="sRGB">
<feFlood flood-opacity="0" result="BackgroundImageFix"/>
<feBlend mode="normal" in="SourceGraphic" in2="BackgroundImageFix" result="shape"/>
<feGaussianBlur stdDeviation="7" result="effect1_foregroundBlur_205_8081"/>
</filter>
<filter id="filter8_f_205_8081" x="105.647" y="190.559" width="48.7085" height="48.7085" filterUnits="userSpaceOnUse" color-interpolation-filters="sRGB">
<feFlood flood-opacity="0" result="BackgroundImageFix"/>
<feBlend mode="normal" in="SourceGraphic" in2="BackgroundImageFix" result="shape"/>
<feGaussianBlur stdDeviation="7" result="effect1_foregroundBlur_205_8081"/>
</filter>
<filter id="filter9_f_205_8081" x="304.966" y="231.976" width="50.4341" height="50.4343" filterUnits="userSpaceOnUse" color-interpolation-filters="sRGB">
<feFlood flood-opacity="0" result="BackgroundImageFix"/>
<feBlend mode="normal" in="SourceGraphic" in2="BackgroundImageFix" result="shape"/>
<feGaussianBlur stdDeviation="7" result="effect1_foregroundBlur_205_8081"/>
</filter>
<filter id="filter10_f_205_8081" x="56.4644" y="30.0676" width="50.4341" height="50.4343" filterUnits="userSpaceOnUse" color-interpolation-filters="sRGB">
<feFlood flood-opacity="0" result="BackgroundImageFix"/>
<feBlend mode="normal" in="SourceGraphic" in2="BackgroundImageFix" result="shape"/>
<feGaussianBlur stdDeviation="7" result="effect1_foregroundBlur_205_8081"/>
</filter>
<filter id="filter11_f_205_8081" x="311.869" y="36.1077" width="50.4341" height="50.4343" filterUnits="userSpaceOnUse" color-interpolation-filters="sRGB">
<feFlood flood-opacity="0" result="BackgroundImageFix"/>
<feBlend mode="normal" in="SourceGraphic" in2="BackgroundImageFix" result="shape"/>
<feGaussianBlur stdDeviation="7" result="effect1_foregroundBlur_205_8081"/>
</filter>
<filter id="filter12_f_205_8081" x="56.4644" y="231.976" width="50.4341" height="50.4343" filterUnits="userSpaceOnUse" color-interpolation-filters="sRGB">
<feFlood flood-opacity="0" result="BackgroundImageFix"/>
<feBlend mode="normal" in="SourceGraphic" in2="BackgroundImageFix" result="shape"/>
<feGaussianBlur stdDeviation="7" result="effect1_foregroundBlur_205_8081"/>
</filter>
<radialGradient id="paint0_radial_205_8081" cx="0" cy="0" r="1" gradientUnits="userSpaceOnUse" gradientTransform="translate(120.194 149.573) rotate(30.4132) scale(226.117 216.884)">
<stop stop-color="#3BFFA7"/>
<stop offset="1" stop-color="#006AC4"/>
</radialGradient>
<linearGradient id="paint1_linear_205_8081" x1="283.589" y1="99.2903" x2="283.589" y2="182.124" gradientUnits="userSpaceOnUse">
<stop stop-color="#BDA0FF"/>
<stop offset="0.568" stop-color="#1A12ED"/>
<stop offset="1"/>
</linearGradient>
<linearGradient id="paint2_linear_205_8081" x1="247.78" y1="136.393" x2="247.78" y2="290.844" gradientUnits="userSpaceOnUse">
<stop stop-color="#BDA0FF"/>
<stop offset="0.568" stop-color="#1A12ED"/>
<stop offset="1"/>
</linearGradient>
<linearGradient id="paint3_linear_205_8081" x1="296.532" y1="159.69" x2="296.532" y2="216.639" gradientUnits="userSpaceOnUse">
<stop stop-color="#0BB5E3"/>
<stop offset="1" stop-color="#2AF698"/>
</linearGradient>
<linearGradient id="paint4_linear_205_8081" x1="237.858" y1="195.93" x2="237.858" y2="247.701" gradientUnits="userSpaceOnUse">
<stop stop-color="#BDA0FF"/>
<stop offset="0.568" stop-color="#1A12ED"/>
<stop offset="1"/>
</linearGradient>
<linearGradient id="paint5_linear_205_8081" x1="252.526" y1="212.324" x2="252.526" y2="250.29" gradientUnits="userSpaceOnUse">
<stop stop-color="#BDA0FF"/>
<stop offset="0.568" stop-color="#1A12ED"/>
<stop offset="1"/>
</linearGradient>
<linearGradient id="paint6_linear_205_8081" x1="180.047" y1="63.9133" x2="180.047" y2="185.576" gradientUnits="userSpaceOnUse">
<stop stop-color="white"/>
<stop offset="0.537" stop-color="#D3D3D3"/>
<stop offset="0.576" stop-color="#B5B5B5"/>
<stop offset="1" stop-color="#C1C1C1"/>
</linearGradient>
<linearGradient id="paint7_linear_205_8081" x1="135.61" y1="161.416" x2="135.61" y2="196.793" gradientUnits="userSpaceOnUse">
<stop stop-color="#BDA0FF"/>
<stop offset="0.568" stop-color="#1A12ED"/>
<stop offset="1"/>
</linearGradient>
<linearGradient id="paint8_linear_205_8081" x1="167.535" y1="191.616" x2="167.535" y2="226.993" gradientUnits="userSpaceOnUse">
<stop stop-color="#BDA0FF"/>
<stop offset="0.568" stop-color="#1A12ED"/>
<stop offset="1"/>
</linearGradient>
<linearGradient id="paint9_linear_205_8081" x1="130.001" y1="204.559" x2="130.001" y2="225.267" gradientUnits="userSpaceOnUse">
<stop stop-color="#BDA0FF"/>
<stop offset="0.568" stop-color="#1A12ED"/>
<stop offset="1"/>
</linearGradient>
<linearGradient id="paint10_linear_205_8081" x1="223.699" y1="45.2654" x2="223.699" y2="295.429" gradientUnits="userSpaceOnUse">
<stop stop-color="#BDA0FF"/>
<stop offset="0.568" stop-color="#1A12ED"/>
<stop offset="1"/>
</linearGradient>
<linearGradient id="paint11_linear_205_8081" x1="229.112" y1="169.573" x2="229.905" y2="219.49" gradientUnits="userSpaceOnUse">
<stop stop-color="#BDA0FF"/>
<stop offset="0.415" stop-color="#1A12ED"/>
<stop offset="0.874" stop-color="#1B1786"/>
<stop offset="1"/>
</linearGradient>
<linearGradient id="paint12_linear_205_8081" x1="257.131" y1="179.938" x2="258.202" y2="220.54" gradientUnits="userSpaceOnUse">
<stop stop-color="#BDA0FF"/>
<stop offset="0.415" stop-color="#1A12ED"/>
<stop offset="0.874" stop-color="#1B1786"/>
<stop offset="1"/>
</linearGradient>
<linearGradient id="paint13_linear_205_8081" x1="221.11" y1="42.6765" x2="221.11" y2="292.84" gradientUnits="userSpaceOnUse">
<stop stop-color="#BDA0FF" stop-opacity="0.129"/>
<stop offset="0.151" stop-color="#173586" stop-opacity="0.294"/>
<stop offset="0.603" stop-color="#7A31C3"/>
<stop offset="1"/>
</linearGradient>
<radialGradient id="paint14_radial_205_8081" cx="0" cy="0" r="1" gradientUnits="userSpaceOnUse" gradientTransform="translate(120.194 149.573) rotate(30.4132) scale(226.117 216.884)">
<stop stop-color="#3BFFA7"/>
<stop offset="1" stop-color="#006AC4"/>
</radialGradient>
<linearGradient id="paint15_linear_205_8081" x1="283.589" y1="99.2903" x2="283.589" y2="182.124" gradientUnits="userSpaceOnUse">
<stop stop-color="#BDA0FF"/>
<stop offset="0.568" stop-color="#1A12ED"/>
<stop offset="1"/>
</linearGradient>
<linearGradient id="paint16_linear_205_8081" x1="247.78" y1="136.393" x2="247.78" y2="290.844" gradientUnits="userSpaceOnUse">
<stop stop-color="#BDA0FF"/>
<stop offset="0.568" stop-color="#1A12ED"/>
<stop offset="1"/>
</linearGradient>
<linearGradient id="paint17_linear_205_8081" x1="296.532" y1="159.69" x2="296.532" y2="216.639" gradientUnits="userSpaceOnUse">
<stop stop-color="#0BB5E3"/>
<stop offset="1" stop-color="#2AF698"/>
</linearGradient>
<linearGradient id="paint18_linear_205_8081" x1="237.858" y1="195.93" x2="237.858" y2="247.701" gradientUnits="userSpaceOnUse">
<stop stop-color="#BDA0FF"/>
<stop offset="0.568" stop-color="#1A12ED"/>
<stop offset="1"/>
</linearGradient>
<linearGradient id="paint19_linear_205_8081" x1="252.526" y1="212.324" x2="252.526" y2="250.29" gradientUnits="userSpaceOnUse">
<stop stop-color="#BDA0FF"/>
<stop offset="0.568" stop-color="#1A12ED"/>
<stop offset="1"/>
</linearGradient>
<linearGradient id="paint20_linear_205_8081" x1="180.047" y1="63.9133" x2="180.047" y2="185.576" gradientUnits="userSpaceOnUse">
<stop stop-color="white"/>
<stop offset="0.537" stop-color="#D3D3D3"/>
<stop offset="0.576" stop-color="#B5B5B5"/>
<stop offset="1" stop-color="#C1C1C1"/>
</linearGradient>
<linearGradient id="paint21_linear_205_8081" x1="135.61" y1="161.416" x2="135.61" y2="196.793" gradientUnits="userSpaceOnUse">
<stop stop-color="#BDA0FF"/>
<stop offset="0.568" stop-color="#1A12ED"/>
<stop offset="1"/>
</linearGradient>
<linearGradient id="paint22_linear_205_8081" x1="167.535" y1="191.616" x2="167.535" y2="226.993" gradientUnits="userSpaceOnUse">
<stop stop-color="#BDA0FF"/>
<stop offset="0.568" stop-color="#1A12ED"/>
<stop offset="1"/>
</linearGradient>
<linearGradient id="paint23_linear_205_8081" x1="130.001" y1="204.559" x2="130.001" y2="225.267" gradientUnits="userSpaceOnUse">
<stop stop-color="#BDA0FF"/>
<stop offset="0.568" stop-color="#1A12ED"/>
<stop offset="1"/>
</linearGradient>
<linearGradient id="paint24_linear_205_8081" x1="223.699" y1="45.2654" x2="223.699" y2="295.429" gradientUnits="userSpaceOnUse">
<stop stop-color="#BDA0FF"/>
<stop offset="0.568" stop-color="#1A12ED"/>
<stop offset="1"/>
</linearGradient>
<linearGradient id="paint25_linear_205_8081" x1="229.112" y1="169.573" x2="229.905" y2="219.49" gradientUnits="userSpaceOnUse">
<stop stop-color="#BDA0FF"/>
<stop offset="0.415" stop-color="#1A12ED"/>
<stop offset="0.874" stop-color="#1B1786"/>
<stop offset="1"/>
</linearGradient>
<linearGradient id="paint26_linear_205_8081" x1="257.131" y1="179.938" x2="258.202" y2="220.54" gradientUnits="userSpaceOnUse">
<stop stop-color="#BDA0FF"/>
<stop offset="0.415" stop-color="#1A12ED"/>
<stop offset="0.874" stop-color="#1B1786"/>
<stop offset="1"/>
</linearGradient>
<linearGradient id="paint27_linear_205_8081" x1="221.11" y1="42.6765" x2="221.11" y2="292.84" gradientUnits="userSpaceOnUse">
<stop stop-color="#BDA0FF" stop-opacity="0.129"/>
<stop offset="0.151" stop-color="#173586" stop-opacity="0.294"/>
<stop offset="0.603" stop-color="#7A31C3"/>
<stop offset="1"/>
</linearGradient>
<linearGradient id="paint28_linear_205_8081" x1="330.183" y1="245.976" x2="330.183" y2="268.41" gradientUnits="userSpaceOnUse">
<stop stop-color="#0BB5E3"/>
<stop offset="1" stop-color="#2AF698"/>
</linearGradient>
<linearGradient id="paint29_linear_205_8081" x1="81.6815" y1="44.0676" x2="81.6815" y2="66.5018" gradientUnits="userSpaceOnUse">
<stop stop-color="#0BB5E3"/>
<stop offset="1" stop-color="#2AF698"/>
</linearGradient>
<linearGradient id="paint30_linear_205_8081" x1="337.086" y1="50.1077" x2="337.086" y2="72.5419" gradientUnits="userSpaceOnUse">
<stop stop-color="#0BB5E3"/>
<stop offset="1" stop-color="#2AF698"/>
</linearGradient>
<linearGradient id="paint31_linear_205_8081" x1="81.6815" y1="245.976" x2="81.6815" y2="268.41" gradientUnits="userSpaceOnUse">
<stop stop-color="#0BB5E3"/>
<stop offset="1" stop-color="#2AF698"/>
</linearGradient>
<linearGradient id="paint32_linear_205_8081" x1="205.256" y1="861.344" x2="206.447" y2="379.576" gradientUnits="userSpaceOnUse">
<stop stop-color="#BDA0FF"/>
<stop offset="0.244" stop-color="#37364E"/>
<stop offset="0.731" stop-color="#262536"/>
<stop offset="1" stop-color="#222222"/>
</linearGradient>
<linearGradient id="paint33_linear_205_8081" x1="252.935" y1="553.232" x2="252.935" y2="605.521" gradientUnits="userSpaceOnUse">
<stop stop-color="#0BB5E3"/>
<stop offset="1" stop-color="#2AF698"/>
</linearGradient>
<linearGradient id="paint34_linear_205_8081" x1="252.935" y1="527.194" x2="252.935" y2="579.483" gradientUnits="userSpaceOnUse">
<stop stop-color="#0BB5E3"/>
<stop offset="1" stop-color="#2AF698"/>
</linearGradient>
<linearGradient id="paint35_linear_205_8081" x1="252.935" y1="502.323" x2="252.935" y2="554.612" gradientUnits="userSpaceOnUse">
<stop stop-color="#0BB5E3"/>
<stop offset="1" stop-color="#2AF698"/>
</linearGradient>
<linearGradient id="paint36_linear_205_8081" x1="252.935" y1="476.286" x2="252.935" y2="528.575" gradientUnits="userSpaceOnUse">
<stop stop-color="#0BB5E3"/>
<stop offset="1" stop-color="#2AF698"/>
</linearGradient>
<linearGradient id="paint37_linear_205_8081" x1="252.935" y1="450.552" x2="252.935" y2="502.841" gradientUnits="userSpaceOnUse">
<stop stop-color="#0BB5E3"/>
<stop offset="1" stop-color="#2AF698"/>
</linearGradient>
<linearGradient id="paint38_linear_205_8081" x1="252.935" y1="424.515" x2="252.935" y2="476.804" gradientUnits="userSpaceOnUse">
<stop stop-color="#0BB5E3"/>
<stop offset="1" stop-color="#2AF698"/>
</linearGradient>
<linearGradient id="paint39_linear_205_8081" x1="252.935" y1="399.644" x2="252.935" y2="451.933" gradientUnits="userSpaceOnUse">
<stop stop-color="#0BB5E3"/>
<stop offset="1" stop-color="#2AF698"/>
</linearGradient>
<linearGradient id="paint40_linear_205_8081" x1="252.935" y1="373.606" x2="252.935" y2="425.895" gradientUnits="userSpaceOnUse">
<stop stop-color="#0BB5E3"/>
<stop offset="1" stop-color="#2AF698"/>
</linearGradient>
<linearGradient id="paint41_linear_205_8081" x1="252.935" y1="349.598" x2="252.935" y2="401.887" gradientUnits="userSpaceOnUse">
<stop stop-color="#0BB5E3"/>
<stop offset="1" stop-color="#2AF698"/>
</linearGradient>
<linearGradient id="paint42_linear_205_8081" x1="252.935" y1="323.561" x2="252.935" y2="375.85" gradientUnits="userSpaceOnUse">
<stop stop-color="#0BB5E3"/>
<stop offset="1" stop-color="#2AF698"/>
</linearGradient>
<linearGradient id="paint43_linear_205_8081" x1="252.936" y1="298.753" x2="252.936" y2="350.117" gradientUnits="userSpaceOnUse">
<stop stop-color="#0BB5E3"/>
<stop offset="1" stop-color="#2AF698"/>
</linearGradient>
<linearGradient id="paint44_linear_205_8081" x1="166.649" y1="553.232" x2="166.649" y2="605.521" gradientUnits="userSpaceOnUse">
<stop stop-color="#0BB5E3"/>
<stop offset="1" stop-color="#2AF698"/>
</linearGradient>
<linearGradient id="paint45_linear_205_8081" x1="166.649" y1="527.194" x2="166.649" y2="579.483" gradientUnits="userSpaceOnUse">
<stop stop-color="#0BB5E3"/>
<stop offset="1" stop-color="#2AF698"/>
</linearGradient>
<linearGradient id="paint46_linear_205_8081" x1="166.649" y1="502.324" x2="166.649" y2="554.613" gradientUnits="userSpaceOnUse">
<stop stop-color="#0BB5E3"/>
<stop offset="1" stop-color="#2AF698"/>
</linearGradient>
<linearGradient id="paint47_linear_205_8081" x1="166.649" y1="476.286" x2="166.649" y2="528.575" gradientUnits="userSpaceOnUse">
<stop stop-color="#0BB5E3"/>
<stop offset="1" stop-color="#2AF698"/>
</linearGradient>
<linearGradient id="paint48_linear_205_8081" x1="166.649" y1="450.552" x2="166.649" y2="502.841" gradientUnits="userSpaceOnUse">
<stop stop-color="#0BB5E3"/>
<stop offset="1" stop-color="#2AF698"/>
</linearGradient>
<linearGradient id="paint49_linear_205_8081" x1="166.649" y1="424.515" x2="166.649" y2="476.804" gradientUnits="userSpaceOnUse">
<stop stop-color="#0BB5E3"/>
<stop offset="1" stop-color="#2AF698"/>
</linearGradient>
<linearGradient id="paint50_linear_205_8081" x1="166.649" y1="399.644" x2="166.649" y2="451.933" gradientUnits="userSpaceOnUse">
<stop stop-color="#0BB5E3"/>
<stop offset="1" stop-color="#2AF698"/>
</linearGradient>
<linearGradient id="paint51_linear_205_8081" x1="166.649" y1="373.606" x2="166.649" y2="425.895" gradientUnits="userSpaceOnUse">
<stop stop-color="#0BB5E3"/>
<stop offset="1" stop-color="#2AF698"/>
</linearGradient>
<linearGradient id="paint52_linear_205_8081" x1="166.649" y1="349.598" x2="166.649" y2="401.887" gradientUnits="userSpaceOnUse">
<stop stop-color="#0BB5E3"/>
<stop offset="1" stop-color="#2AF698"/>
</linearGradient>
<linearGradient id="paint53_linear_205_8081" x1="166.649" y1="323.561" x2="166.649" y2="375.85" gradientUnits="userSpaceOnUse">
<stop stop-color="#0BB5E3"/>
<stop offset="1" stop-color="#2AF698"/>
</linearGradient>
<linearGradient id="paint54_linear_205_8081" x1="166.65" y1="298.753" x2="166.65" y2="350.117" gradientUnits="userSpaceOnUse">
<stop stop-color="#0BB5E3"/>
<stop offset="1" stop-color="#2AF698"/>
</linearGradient>
<linearGradient id="paint55_linear_205_8081" x1="208.965" y1="322.145" x2="208.965" y2="628.963" gradientUnits="userSpaceOnUse">
<stop stop-color="#0BB5E3"/>
<stop offset="1" stop-color="#2AF698"/>
</linearGradient>
<linearGradient id="paint56_linear_205_8081" x1="299.192" y1="663.013" x2="299.192" y2="449.996" gradientUnits="userSpaceOnUse">
<stop stop-color="#BDA0FF"/>
<stop offset="0.254" stop-color="#37364E"/>
<stop offset="0.731" stop-color="#262536"/>
<stop offset="1" stop-color="#222222"/>
</linearGradient>
<linearGradient id="paint57_linear_205_8081" x1="230.663" y1="347.894" x2="230.663" y2="628.99" gradientUnits="userSpaceOnUse">
<stop stop-color="#BDA0FF"/>
<stop offset="0.368" stop-color="#1A12ED"/>
<stop offset="1"/>
</linearGradient>
<linearGradient id="paint58_linear_205_8081" x1="208.768" y1="474.596" x2="208.768" y2="336.648" gradientUnits="userSpaceOnUse">
<stop stop-color="#BDA0FF"/>
<stop offset="1" stop-color="#1911ED"/>
</linearGradient>
<linearGradient id="paint59_linear_205_8081" x1="253.799" y1="602.415" x2="253.799" y2="654.704" gradientUnits="userSpaceOnUse">
<stop stop-color="#0BB5E3"/>
<stop offset="1" stop-color="#2AF698"/>
</linearGradient>
<linearGradient id="paint60_linear_205_8081" x1="253.799" y1="576.377" x2="253.799" y2="628.666" gradientUnits="userSpaceOnUse">
<stop stop-color="#0BB5E3"/>
<stop offset="1" stop-color="#2AF698"/>
</linearGradient>
<linearGradient id="paint61_linear_205_8081" x1="253.799" y1="551.506" x2="253.799" y2="603.795" gradientUnits="userSpaceOnUse">
<stop stop-color="#0BB5E3"/>
<stop offset="1" stop-color="#2AF698"/>
</linearGradient>
<linearGradient id="paint62_linear_205_8081" x1="253.799" y1="525.469" x2="253.799" y2="577.757" gradientUnits="userSpaceOnUse">
<stop stop-color="#0BB5E3"/>
<stop offset="1" stop-color="#2AF698"/>
</linearGradient>
<linearGradient id="paint63_linear_205_8081" x1="253.799" y1="499.735" x2="253.799" y2="552.024" gradientUnits="userSpaceOnUse">
<stop stop-color="#0BB5E3"/>
<stop offset="1" stop-color="#2AF698"/>
</linearGradient>
<linearGradient id="paint64_linear_205_8081" x1="253.799" y1="473.697" x2="253.799" y2="525.986" gradientUnits="userSpaceOnUse">
<stop stop-color="#0BB5E3"/>
<stop offset="1" stop-color="#2AF698"/>
</linearGradient>
<linearGradient id="paint65_linear_205_8081" x1="253.799" y1="448.827" x2="253.799" y2="501.116" gradientUnits="userSpaceOnUse">
<stop stop-color="#0BB5E3"/>
<stop offset="1" stop-color="#2AF698"/>
</linearGradient>
<linearGradient id="paint66_linear_205_8081" x1="253.799" y1="422.789" x2="253.799" y2="475.078" gradientUnits="userSpaceOnUse">
<stop stop-color="#0BB5E3"/>
<stop offset="1" stop-color="#2AF698"/>
</linearGradient>
<linearGradient id="paint67_linear_205_8081" x1="253.799" y1="398.781" x2="253.799" y2="451.07" gradientUnits="userSpaceOnUse">
<stop stop-color="#0BB5E3"/>
<stop offset="1" stop-color="#2AF698"/>
</linearGradient>
<linearGradient id="paint68_linear_205_8081" x1="253.799" y1="372.744" x2="253.799" y2="425.033" gradientUnits="userSpaceOnUse">
<stop stop-color="#0BB5E3"/>
<stop offset="1" stop-color="#2AF698"/>
</linearGradient>
<linearGradient id="paint69_linear_205_8081" x1="253.799" y1="347.936" x2="253.799" y2="399.3" gradientUnits="userSpaceOnUse">
<stop stop-color="#0BB5E3"/>
<stop offset="1" stop-color="#2AF698"/>
</linearGradient>
<linearGradient id="paint70_linear_205_8081" x1="165.787" y1="602.415" x2="165.787" y2="654.704" gradientUnits="userSpaceOnUse">
<stop stop-color="#0BB5E3"/>
<stop offset="1" stop-color="#2AF698"/>
</linearGradient>
<linearGradient id="paint71_linear_205_8081" x1="165.787" y1="576.377" x2="165.787" y2="628.666" gradientUnits="userSpaceOnUse">
<stop stop-color="#0BB5E3"/>
<stop offset="1" stop-color="#2AF698"/>
</linearGradient>
<linearGradient id="paint72_linear_205_8081" x1="165.787" y1="551.506" x2="165.787" y2="603.795" gradientUnits="userSpaceOnUse">
<stop stop-color="#0BB5E3"/>
<stop offset="1" stop-color="#2AF698"/>
</linearGradient>
<linearGradient id="paint73_linear_205_8081" x1="165.787" y1="525.469" x2="165.787" y2="577.758" gradientUnits="userSpaceOnUse">
<stop stop-color="#0BB5E3"/>
<stop offset="1" stop-color="#2AF698"/>
</linearGradient>
<linearGradient id="paint74_linear_205_8081" x1="165.787" y1="499.735" x2="165.787" y2="552.024" gradientUnits="userSpaceOnUse">
<stop stop-color="#0BB5E3"/>
<stop offset="1" stop-color="#2AF698"/>
</linearGradient>
<linearGradient id="paint75_linear_205_8081" x1="165.787" y1="473.698" x2="165.787" y2="525.986" gradientUnits="userSpaceOnUse">
<stop stop-color="#0BB5E3"/>
<stop offset="1" stop-color="#2AF698"/>
</linearGradient>
<linearGradient id="paint76_linear_205_8081" x1="165.787" y1="448.826" x2="165.787" y2="501.115" gradientUnits="userSpaceOnUse">
<stop stop-color="#0BB5E3"/>
<stop offset="1" stop-color="#2AF698"/>
</linearGradient>
<linearGradient id="paint77_linear_205_8081" x1="165.787" y1="422.789" x2="165.787" y2="475.078" gradientUnits="userSpaceOnUse">
<stop stop-color="#0BB5E3"/>
<stop offset="1" stop-color="#2AF698"/>
</linearGradient>
<linearGradient id="paint78_linear_205_8081" x1="165.787" y1="398.781" x2="165.787" y2="451.07" gradientUnits="userSpaceOnUse">
<stop stop-color="#0BB5E3"/>
<stop offset="1" stop-color="#2AF698"/>
</linearGradient>
<linearGradient id="paint79_linear_205_8081" x1="165.787" y1="372.743" x2="165.787" y2="425.032" gradientUnits="userSpaceOnUse">
<stop stop-color="#0BB5E3"/>
<stop offset="1" stop-color="#2AF698"/>
</linearGradient>
<linearGradient id="paint80_linear_205_8081" x1="120.581" y1="663.013" x2="120.581" y2="449.996" gradientUnits="userSpaceOnUse">
<stop stop-color="#BDA0FF"/>
<stop offset="0.254" stop-color="#37364E"/>
<stop offset="0.731" stop-color="#262536"/>
<stop offset="1" stop-color="#222222"/>
</linearGradient>
<linearGradient id="paint81_linear_205_8081" x1="165.788" y1="347.936" x2="165.788" y2="399.3" gradientUnits="userSpaceOnUse">
<stop stop-color="#0BB5E3"/>
<stop offset="1" stop-color="#2AF698"/>
</linearGradient>
<linearGradient id="paint82_linear_205_8081" x1="187.553" y1="373.779" x2="187.553" y2="654.759" gradientUnits="userSpaceOnUse">
<stop stop-color="#BDA0FF"/>
<stop offset="0.568" stop-color="#1A12ED"/>
<stop offset="1"/>
</linearGradient>
<linearGradient id="paint83_linear_205_8081" x1="231.619" y1="373.78" x2="231.619" y2="655.148" gradientUnits="userSpaceOnUse">
<stop stop-color="#BDA0FF"/>
<stop offset="0.568" stop-color="#1A12ED"/>
<stop offset="1"/>
</linearGradient>
<linearGradient id="paint84_linear_205_8081" x1="276.369" y1="373.779" x2="276.369" y2="655.226" gradientUnits="userSpaceOnUse">
<stop stop-color="#BDA0FF"/>
<stop offset="0.568" stop-color="#1A12ED"/>
<stop offset="1"/>
</linearGradient>
<linearGradient id="paint85_linear_205_8081" x1="143.496" y1="373.311" x2="143.496" y2="655.148" gradientUnits="userSpaceOnUse">
<stop stop-color="#BDA0FF"/>
<stop offset="0.568" stop-color="#1A12ED"/>
<stop offset="1"/>
</linearGradient>
<linearGradient id="paint86_linear_205_8081" x1="210.318" y1="783.619" x2="207.801" y2="481.552" gradientUnits="userSpaceOnUse">
<stop stop-color="#BDA0FF"/>
<stop offset="0.468" stop-color="#37364E"/>
<stop offset="0.731" stop-color="#262536"/>
<stop offset="1" stop-color="#222222"/>
</linearGradient>
<linearGradient id="paint87_linear_205_8081" x1="435.094" y1="619.916" x2="-5.15772" y2="638.778" gradientUnits="userSpaceOnUse">
<stop stop-color="#BDA0FF"/>
<stop offset="0.495" stop-color="#1A12ED"/>
<stop offset="0.56" stop-color="#1B1786"/>
<stop offset="1" stop-color="#007765"/>
</linearGradient>
<linearGradient id="paint88_linear_205_8081" x1="435.094" y1="650.978" x2="-5.15772" y2="669.841" gradientUnits="userSpaceOnUse">
<stop stop-color="#BDA0FF"/>
<stop offset="0.244" stop-color="#37364E"/>
<stop offset="0.731" stop-color="#262536"/>
<stop offset="1" stop-color="#222222"/>
</linearGradient>
<linearGradient id="paint89_linear_205_8081" x1="435.094" y1="682.904" x2="-5.15772" y2="701.766" gradientUnits="userSpaceOnUse">
<stop stop-color="#BDA0FF"/>
<stop offset="0.495" stop-color="#1A12ED"/>
<stop offset="0.56" stop-color="#1B1786"/>
<stop offset="1" stop-color="#007765"/>
</linearGradient>
<linearGradient id="paint90_linear_205_8081" x1="435.094" y1="713.967" x2="-5.15772" y2="732.829" gradientUnits="userSpaceOnUse">
<stop stop-color="#BDA0FF"/>
<stop offset="0.244" stop-color="#37364E"/>
<stop offset="0.731" stop-color="#262536"/>
<stop offset="1" stop-color="#222222"/>
</linearGradient>
<linearGradient id="paint91_linear_205_8081" x1="435.094" y1="745.892" x2="-5.15772" y2="764.755" gradientUnits="userSpaceOnUse">
<stop stop-color="#BDA0FF"/>
<stop offset="0.495" stop-color="#1A12ED"/>
<stop offset="0.56" stop-color="#1B1786"/>
<stop offset="1" stop-color="#007765"/>
</linearGradient>
<linearGradient id="paint92_linear_205_8081" x1="435.094" y1="776.955" x2="-5.15772" y2="795.818" gradientUnits="userSpaceOnUse">
<stop stop-color="#BDA0FF"/>
<stop offset="0.244" stop-color="#37364E"/>
<stop offset="0.731" stop-color="#262536"/>
<stop offset="1" stop-color="#222222"/>
</linearGradient>
<linearGradient id="paint93_linear_205_8081" x1="435.094" y1="808.881" x2="-5.15772" y2="827.743" gradientUnits="userSpaceOnUse">
<stop stop-color="#BDA0FF"/>
<stop offset="0.495" stop-color="#1A12ED"/>
<stop offset="0.56" stop-color="#1B1786"/>
<stop offset="1" stop-color="#007765"/>
</linearGradient>
<linearGradient id="paint94_linear_205_8081" x1="435.094" y1="839.943" x2="-5.15772" y2="858.806" gradientUnits="userSpaceOnUse">
<stop stop-color="#BDA0FF"/>
<stop offset="0.244" stop-color="#37364E"/>
<stop offset="0.731" stop-color="#262536"/>
<stop offset="1" stop-color="#222222"/>
</linearGradient>
</defs>
</svg>
